{
.appVersion = "1286";
copyright = "Copyright © 2018 by Fasil Fikreab. All rights reserved.";
customParameters = (
{
name = "";
value = "New Value";
}
);
date = "2018-12-01 07:21:33 +0000";
designer = "Fasil Fikreab";
disablesAutomaticAlignment = 1;
familyName = "Addis Abiy Caped";
featurePrefixes = (
{
automatic = 1;
code = "languagesystem DFLT dflt;\012";
name = Languagesystems;
}
);
features = (
{
automatic = 1;
code = "feature ordn;\012";
name = aalt;
},
{
automatic = 1;
code = "sub [zero one two three four five six seven eight nine] [A a]' by ordfeminine;\012sub [zero one two three four five six seven eight nine] [O o]' by ordmasculine;\012";
name = ordn;
},
{
automatic = 1;
code = "lookupflag IgnoreMarks;\012sub f f by uniFB00;\012sub f f i by uniFB03;\012sub f f l by uniFB04;\012";
name = dlig;
},
{
automatic = 1;

glyphs = (
{
glyphname = A;
lastChange = "2020-08-10 01:56:02 +0000";
layers = (
{
layerId = "A36D14D1-FF07-4574-A62D-30DF65569781";
paths = (
{
closed = 1;
nodes = (
"380 9 OFFCURVE",
"389 0 OFFCURVE",
"400 0 CURVE SMOOTH",
"441 0 LINE SMOOTH",
"452 0 OFFCURVE",
"461 9 OFFCURVE",
"461 20 CURVE SMOOTH",
"461 601 LINE SMOOTH",
"461 608 OFFCURVE",
"457 616 OFFCURVE",
"451 617 CURVE",
"94 694 LINE SMOOTH",
"77 698 OFFCURVE",
"60 692 OFFCURVE",
"60 673 CURVE SMOOTH",
"60 20 LINE SMOOTH",
"60 9 OFFCURVE",
"69 0 OFFCURVE",
"80 0 CURVE SMOOTH",
"121 0 LINE SMOOTH",
"132 0 OFFCURVE",
"141 9 OFFCURVE",
"141 20 CURVE SMOOTH",
"140 587 LINE SMOOTH",
"140 602 OFFCURVE",
"153 611 OFFCURVE",
"167 608 CURVE SMOOTH",
"364 565 LINE SMOOTH",
"373 563 OFFCURVE",
"379 557 OFFCURVE",
"379 547 CURVE SMOOTH",
"380 20 LINE SMOOTH"
);
},
{
closed = 1;
nodes = (
"120 260 LINE",
"391 260 LINE",
"391 308 LINE",
"120 308 LINE"
);
}
);
width = 521;
}
);
unicode = 0041;
},
{
glyphname = B;
lastChange = "2020-08-10 01:56:02 +0000";
layers = (
{
layerId = "A36D14D1-FF07-4574-A62D-30DF65569781";
paths = (
{
closed = 1;
nodes = (
"120 253 LINE",
"425 253 LINE",
"425 301 LINE",
"120 301 LINE"
);
},
{
closed = 1;
nodes = (
"90 0 LINE",
"441 0 LINE",
"441 58 LINE",
"90 58 LINE"
);
},
{
closed = 1;
nodes = (
"409 300 LINE",
"411 0 LINE",
"441 0 LINE",
"452 0 OFFCURVE",
"491 14 OFFCURVE",
"491 25 CURVE SMOOTH",
"491 280 LINE SMOOTH",
"491 291 OFFCURVE",
"482 300 OFFCURVE",
"471 300 CURVE SMOOTH"
);
},
{
closed = 1;
nodes = (
"461 300 LINE",
"461 681 LINE SMOOTH",
"461 688 OFFCURVE",
"457 696 OFFCURVE",
"451 697 CURVE",
"94 694 LINE SMOOTH",
"77 694 OFFCURVE",
"60 692 OFFCURVE",
"60 673 CURVE SMOOTH",
"60 20 LINE SMOOTH",
"60 9 OFFCURVE",
"69 0 OFFCURVE",
"80 0 CURVE SMOOTH",
"121 0 LINE SMOOTH",
"132 0 OFFCURVE",
"141 9 OFFCURVE",
"141 20 CURVE",
"140 623 LINE",
"140 638 OFFCURVE",
"153 644 OFFCURVE",
"167 644 CURVE SMOOTH",
"364 645 LINE SMOOTH",
"373 645 OFFCURVE",
"379 637 OFFCURVE",
"379 627 CURVE SMOOTH",
"379 300 LINE"
);
}
);
width = 550;
}
);
unicode = 0042;
},
{
glyphname = C;
lastChange = "2020-08-10 01:56:02 +0000";
layers = (
{
layerId = "A36D14D1-FF07-4574-A62D-30DF65569781";
paths = (
{
closed = 1;
nodes = (
"460 684 LINE",
"459 689 OFFCURVE",
"455 693 OFFCURVE",
"451 694 CURVE",
"94 694 LINE SMOOTH",
"77 694 OFFCURVE",
"60 692 OFFCURVE",
"60 673 CURVE SMOOTH",
"60 20 LINE SMOOTH",
"60 9 OFFCURVE",
"69 0 OFFCURVE",
"80 0 CURVE SMOOTH",
"121 0 LINE SMOOTH",
"132 0 OFFCURVE",
"141 9 OFFCURVE",
"141 20 CURVE SMOOTH",
"140 587 LINE SMOOTH",
"140 602 OFFCURVE",
"153 608 OFFCURVE",
"167 608 CURVE SMOOTH",
"364 610 LINE SMOOTH",
"368 610 OFFCURVE",
"371 608 OFFCURVE",
"374 606 CURVE"
);
},
{
closed = 1;
nodes = (
"371 86 OFFCURVE",
"368 84 OFFCURVE",
"364 84 CURVE SMOOTH",
"167 86 LINE SMOOTH",
"153 86 OFFCURVE",
"140 92 OFFCURVE",
"140 107 CURVE SMOOTH",
"141 674 LINE SMOOTH",
"141 685 OFFCURVE",
"132 694 OFFCURVE",
"121 694 CURVE SMOOTH",
"80 694 LINE SMOOTH",
"69 694 OFFCURVE",
"60 685 OFFCURVE",
"60 674 CURVE SMOOTH",
"60 21 LINE SMOOTH",
"60 2 OFFCURVE",
"77 0 OFFCURVE",
"94 0 CURVE SMOOTH",
"451 0 LINE",
"455 1 OFFCURVE",
"459 5 OFFCURVE",
"460 10 CURVE",
"374 88 LINE"
);
}
);
width = 520;
}
);
unicode = 0043;
},
{
glyphname = D;
lastChange = "2020-08-10 01:56:02 +0000";
layers = (
{
layerId = "A36D14D1-FF07-4574-A62D-30DF65569781";
paths = (
{
closed = 1;
nodes = (
"84 14 LINE",
"147 14 LINE",
"147 686 LINE",
"84 686 LINE"
);
},
{
closed = 1;
nodes = (
"63 610 OFFCURVE",
"153 610 OFFCURVE",
"157 610 CURVE SMOOTH",
"354 608 LINE SMOOTH",
"368 608 OFFCURVE",
"381 602 OFFCURVE",
"381 587 CURVE SMOOTH",
"380 20 LINE SMOOTH",
"380 9 OFFCURVE",
"389 0 OFFCURVE",
"400 0 CURVE SMOOTH",
"441 0 LINE SMOOTH",
"452 0 OFFCURVE",
"461 9 OFFCURVE",
"461 20 CURVE SMOOTH",
"461 673 LINE SMOOTH",
"461 692 OFFCURVE",
"444 694 OFFCURVE",
"427 694 CURVE SMOOTH",
"70 694 LINE",
"66 693 OFFCURVE",
"62 689 OFFCURVE",
"61 684 CURVE",
"60 608 LINE"
);
},
{
closed = 1;
nodes = (
"61 10 LINE",
"62 5 OFFCURVE",
"66 1 OFFCURVE",
"70 0 CURVE",
"427 0 LINE SMOOTH",
"444 0 OFFCURVE",
"461 2 OFFCURVE",
"461 21 CURVE SMOOTH",
"461 674 LINE SMOOTH",
"461 685 OFFCURVE",
"452 694 OFFCURVE",
"441 694 CURVE SMOOTH",
"400 694 LINE SMOOTH",
"389 694 OFFCURVE",
"380 685 OFFCURVE",
"380 674 CURVE SMOOTH",
"381 107 LINE SMOOTH",
"381 92 OFFCURVE",
"368 86 OFFCURVE",
"354 86 CURVE SMOOTH",
"157 84 LINE SMOOTH",
"153 84 OFFCURVE",
"65 82 OFFCURVE",
"62 84 CURVE"
);
}
);
width = 521;
}
);
unicode = 0044;
},
{
glyphname = E;
lastChange = "2020-08-10 01:56:02 +0000";
layers = (
{
components = (
{
name = C;
}
);
layerId = "A36D14D1-FF07-4574-A62D-30DF65569781";
paths = (
{
closed = 1;
nodes = (
"127 257 LINE",
"395 257 LINE",
"395 313 LINE",
"127 313 LINE"
);
}
);
width = 520;
}
);
unicode = 0045;
},
{
glyphname = F;
lastChange = "2020-08-10 01:56:02 +0000";
layers = (
{
layerId = "A36D14D1-FF07-4574-A62D-30DF65569781";
paths = (
{
closed = 1;
nodes = (
"98 250 LINE",
"366 250 LINE",
"366 306 LINE",
"98 306 LINE"
);
},
{
closed = 1;
nodes = (
"460 684 LINE",
"459 689 OFFCURVE",
"455 693 OFFCURVE",
"451 694 CURVE",
"94 694 LINE SMOOTH",
"77 694 OFFCURVE",
"60 692 OFFCURVE",
"60 673 CURVE SMOOTH",
"60 20 LINE SMOOTH",
"60 9 OFFCURVE",
"69 0 OFFCURVE",
"80 0 CURVE SMOOTH",
"121 0 LINE SMOOTH",
"132 0 OFFCURVE",
"141 9 OFFCURVE",
"141 20 CURVE SMOOTH",
"140 587 LINE SMOOTH",
"140 602 OFFCURVE",
"153 608 OFFCURVE",
"167 608 CURVE SMOOTH",
"364 610 LINE SMOOTH",
"368 610 OFFCURVE",
"371 608 OFFCURVE",
"374 606 CURVE"
);
}
);
width = 520;
}
);
unicode = 0046;
},
{
glyphname = G;
lastChange = "2020-08-10 01:56:02 +0000";
layers = (
{
layerId = "A36D14D1-FF07-4574-A62D-30DF65569781";
paths = (
{
closed = 1;
nodes = (
"270 235 LINE",
"373 235 LINE",
"373 87 LINE",
"370 86 OFFCURVE",
"368 84 OFFCURVE",
"364 84 CURVE SMOOTH",
"167 86 LINE SMOOTH",
"155 86 OFFCURVE",
"144 90 OFFCURVE",
"141 101 CURVE",
"140 347 LINE",
"141 593 LINE",
"144 604 OFFCURVE",
"155 608 OFFCURVE",
"167 608 CURVE SMOOTH",
"364 610 LINE SMOOTH",
"368 610 OFFCURVE",
"371 608 OFFCURVE",
"374 606 CURVE",
"460 684 LINE",
"459 689 OFFCURVE",
"455 693 OFFCURVE",
"451 694 CURVE",
"80 694 LINE SMOOTH",
"69 694 OFFCURVE",
"60 685 OFFCURVE",
"60 674 CURVE SMOOTH",
"60 20 LINE SMOOTH",
"60 9 OFFCURVE",
"69 0 OFFCURVE",
"80 0 CURVE SMOOTH",
"440 0 LINE SMOOTH",
"451 0 OFFCURVE",
"460 9 OFFCURVE",
"460 20 CURVE SMOOTH",
"460 314 LINE",
"270 314 LINE"
);
}
);
width = 520;
}
);
unicode = 0047;
},
{
glyphname = H;
lastChange = "2020-08-10 01:56:02 +0000";
layers = (
{
layerId = "A36D14D1-FF07-4574-A62D-30DF65569781";
paths = (
{
closed = 1;
nodes = (
"60 539 LINE",
"60 20 LINE SMOOTH",
"60 9 OFFCURVE",
"69 0 OFFCURVE",
"80 0 CURVE SMOOTH",
"121 0 LINE SMOOTH",
"132 0 OFFCURVE",
"141 9 OFFCURVE",
"141 20 CURVE SMOOTH",
"140 537 LINE"
);
},
{
closed = 1;
nodes = (
"120 260 LINE",
"391 260 LINE",
"391 308 LINE",
"120 308 LINE"
);
},
{
closed = 1;
nodes = (
"379 519 LINE",
"380 20 LINE SMOOTH",
"380 9 OFFCURVE",
"389 0 OFFCURVE",
"400 0 CURVE SMOOTH",
"441 0 LINE SMOOTH",
"452 0 OFFCURVE",
"461 9 OFFCURVE",
"461 20 CURVE SMOOTH",
"461 540 LINE"
);
},
{
closed = 1;
nodes = (
"141 680 LINE SMOOTH",
"141 691 OFFCURVE",
"132 700 OFFCURVE",
"121 700 CURVE SMOOTH",
"80 700 LINE SMOOTH",
"69 700 OFFCURVE",
"60 691 OFFCURVE",
"60 680 CURVE SMOOTH",
"60 161 LINE",
"140 163 LINE"
);
},
{
closed = 1;
nodes = (
"461 680 LINE SMOOTH",
"461 691 OFFCURVE",
"452 700 OFFCURVE",
"441 700 CURVE SMOOTH",
"400 700 LINE SMOOTH",
"389 700 OFFCURVE",
"380 691 OFFCURVE",
"380 680 CURVE SMOOTH",
"379 181 LINE",
"461 160 LINE"
);
}
);
width = 521;
}
);
unicode = 0048;
},
{
glyphname = I;
lastChange = "2020-08-10 01:56:02 +0000";
layers = (
{
layerId = "A36D14D1-FF07-4574-A62D-30DF65569781";
paths = (
{
closed = 1;
nodes = (
"141 680 LINE SMOOTH",
"141 691 OFFCURVE",
"132 700 OFFCURVE",
"121 700 CURVE SMOOTH",
"80 700 LINE SMOOTH",
"69 700 OFFCURVE",
"60 691 OFFCURVE",
"60 680 CURVE SMOOTH",
"60 161 LINE",
"140 163 LINE"
);
},
{
closed = 1;
nodes = (
"60 540 LINE",
"60 21 LINE SMOOTH",
"60 10 OFFCURVE",
"69 1 OFFCURVE",
"80 1 CURVE SMOOTH",
"121 1 LINE SMOOTH",
"132 1 OFFCURVE",
"141 10 OFFCURVE",
"141 21 CURVE SMOOTH",
"140 538 LINE"
);
}
);
width = 201;
}
);
unicode = 0049;
},
{
glyphname = J;
lastChange = "2020-08-10 01:56:02 +0000";
layers = (
{
layerId = "A36D14D1-FF07-4574-A62D-30DF65569781";
paths = (
{
closed = 1;
nodes = (
"380 587 LINE",
"379 20 LINE SMOOTH",
"379 9 OFFCURVE",
"388 0 OFFCURVE",
"399 0 CURVE SMOOTH",
"440 0 LINE SMOOTH",
"451 0 OFFCURVE",
"460 9 OFFCURVE",
"460 20 CURVE SMOOTH",
"460 673 LINE"
);
},
{
closed = 1;
nodes = (
"399 694 LINE SMOOTH",
"388 694 OFFCURVE",
"379 685 OFFCURVE",
"379 674 CURVE SMOOTH",
"380 107 LINE SMOOTH",
"380 92 OFFCURVE",
"367 86 OFFCURVE",
"353 86 CURVE SMOOTH",
"156 84 LINE SMOOTH",
"153 84 OFFCURVE",
"150 85 OFFCURVE",
"148 87 CURVE",
"148 166 LINE",
"60 166 LINE",
"60 20 LINE SMOOTH",
"60 9 OFFCURVE",
"69 0 OFFCURVE",
"80 0 CURVE SMOOTH",
"426 0 LINE SMOOTH",
"443 0 OFFCURVE",
"460 2 OFFCURVE",
"460 21 CURVE SMOOTH",
"460 674 LINE SMOOTH",
"460 685 OFFCURVE",
"451 694 OFFCURVE",
"440 694 CURVE SMOOTH"
);
}
);
width = 520;
}
);
unicode = 004A;
},
{
glyphname = K;
lastChange = "2020-08-12 05:57:25 +0000";
layers = (
{
layerId = "A36D14D1-FF07-4574-A62D-30DF65569781";
paths = (
{
closed = 1;
nodes = (
"141 680 LINE SMOOTH",
"141 691 OFFCURVE",
"132 700 OFFCURVE",
"121 700 CURVE SMOOTH",
"80 700 LINE SMOOTH",
"69 700 OFFCURVE",
"60 691 OFFCURVE",
"60 680 CURVE SMOOTH",
"60 161 LINE",
"140 163 LINE"
);
},
{
closed = 1;
nodes = (
"60 540 LINE",
"60 21 LINE SMOOTH",
"60 10 OFFCURVE",
"69 1 OFFCURVE",
"80 1 CURVE SMOOTH",
"121 1 LINE SMOOTH",
"132 1 OFFCURVE",
"141 10 OFFCURVE",
"141 21 CURVE SMOOTH",
"140 538 LINE"
);
},
{
closed = 1;
nodes = (
"413 647 LINE SMOOTH",
"420 655 OFFCURVE",
"419 668 OFFCURVE",
"411 675 CURVE SMOOTH",
"379 701 LINE SMOOTH",
"371 708 OFFCURVE",
"358 707 OFFCURVE",
"351 699 CURVE SMOOTH",
"68 361 LINE",
"130 311 LINE"
);
},
{
closed = 1;
nodes = (
"437 -4 LINE SMOOTH",
"444 -12 OFFCURVE",
"457 -13 OFFCURVE",
"465 -6 CURVE SMOOTH",
"497 20 LINE SMOOTH",
"505 27 OFFCURVE",
"506 40 OFFCURVE",
"499 48 CURVE SMOOTH",
"196 396 LINE",
"136 343 LINE"
);
}
);
width = 544;
}
);
unicode = 004B;
},
{
glyphname = L;
lastChange = "2020-08-10 01:56:02 +0000";
layers = (
{
layerId = "A36D14D1-FF07-4574-A62D-30DF65569781";
paths = (
{
closed = 1;
nodes = (
"60 20 LINE SMOOTH",
"60 9 OFFCURVE",
"69 0 OFFCURVE",
"80 0 CURVE SMOOTH",
"121 0 LINE SMOOTH",
"132 0 OFFCURVE",
"141 9 OFFCURVE",
"141 20 CURVE SMOOTH",
"140 587 LINE",
"60 673 LINE"
);
},
{
closed = 1;
nodes = (
"402 95 LINE",
"402 87 LINE",
"400 85 OFFCURVE",
"397 84 OFFCURVE",
"394 84 CURVE SMOOTH",
"167 86 LINE SMOOTH",
"153 86 OFFCURVE",
"140 92 OFFCURVE",
"140 107 CURVE SMOOTH",
"141 674 LINE SMOOTH",
"141 685 OFFCURVE",
"132 694 OFFCURVE",
"121 694 CURVE SMOOTH",
"80 694 LINE SMOOTH",
"69 694 OFFCURVE",
"60 685 OFFCURVE",
"60 674 CURVE SMOOTH",
"60 21 LINE SMOOTH",
"60 2 OFFCURVE",
"77 0 OFFCURVE",
"94 0 CURVE SMOOTH",
"470 0 LINE SMOOTH",
"481 0 OFFCURVE",
"490 9 OFFCURVE",
"490 20 CURVE SMOOTH",
"490 98 LINE"
);
}
);
width = 550;
}
);
unicode = 004C;
},
{
glyphname = M;
lastChange = "2020-08-10 01:56:02 +0000";
layers = (
{
layerId = "A36D14D1-FF07-4574-A62D-30DF65569781";
paths = (
{
closed = 1;
nodes = (
"555 0 LINE SMOOTH",
"566 0 OFFCURVE",
"575 9 OFFCURVE",
"575 20 CURVE SMOOTH",
"575 676 LINE SMOOTH",
"575 697 OFFCURVE",
"548 701 OFFCURVE",
"537 701 CURVE SMOOTH",
"379 701 LINE SMOOTH",
"368 701 OFFCURVE",
"354 682 OFFCURVE",
"353 672 CURVE SMOOTH",
"319 198 LINE",
"293 676 LINE SMOOTH",
"292 686 OFFCURVE",
"278 701 OFFCURVE",
"267 701 CURVE SMOOTH",
"123 702 LINE SMOOTH",
"87 702 OFFCURVE",
"60 700 OFFCURVE",
"60 672 CURVE SMOOTH",
"60 20 LINE SMOOTH",
"60 9 OFFCURVE",
"69 0 OFFCURVE",
"80 0 CURVE SMOOTH",
"103 0 LINE SMOOTH",
"114 0 OFFCURVE",
"123 9 OFFCURVE",
"123 20 CURVE SMOOTH",
"127 606 LINE SMOOTH",
"127 625 OFFCURVE",
"145 628 OFFCURVE",
"174 628 CURVE SMOOTH",
"226 628 OFFCURVE",
"222 615 OFFCURVE",
"223 605 CURVE SMOOTH",
"262 119 LINE SMOOTH",
"266 71 OFFCURVE",
"379 66 OFFCURVE",
"383 117 CURVE SMOOTH",
"419 603 LINE SMOOTH",
"420 613 OFFCURVE",
"427 623 OFFCURVE",
"461 623 CURVE SMOOTH",
"499 623 OFFCURVE",
"508 619 OFFCURVE",
"508 605 CURVE SMOOTH",
"509 20 LINE SMOOTH",
"509 9 OFFCURVE",
"518 0 OFFCURVE",
"529 0 CURVE SMOOTH"
);
}
);
width = 635;
}
);
unicode = 004D;
},
{
glyphname = N;
lastChange = "2020-08-10 01:56:02 +0000";
layers = (
{
layerId = "A36D14D1-FF07-4574-A62D-30DF65569781";
paths = (
{
closed = 1;
nodes = (
"378 705 LINE SMOOTH",
"367 705 OFFCURVE",
"358 696 OFFCURVE",
"358 685 CURVE SMOOTH",
"364 123 LINE SMOOTH",
"364 112 OFFCURVE",
"359 103 OFFCURVE",
"349 103 CURVE SMOOTH",
"340 103 OFFCURVE",
"336 110 OFFCURVE",
"334 121 CURVE SMOOTH",
"225 680 LINE",
"223 688 OFFCURVE",
"215 694 OFFCURVE",
"206 694 CURVE SMOOTH",
"94 694 LINE SMOOTH",
"75 694 OFFCURVE",
"60 692 OFFCURVE",
"60 673 CURVE SMOOTH",
"60 20 LINE SMOOTH",
"60 9 OFFCURVE",
"69 0 OFFCURVE",
"80 0 CURVE SMOOTH",
"121 0 LINE SMOOTH",
"132 0 OFFCURVE",
"141 9 OFFCURVE",
"141 20 CURVE",
"140 587 LINE SMOOTH",
"140 602 OFFCURVE",
"172 600 OFFCURVE",
"175 587 CURVE SMOOTH",
"298 16 LINE SMOOTH",
"302 -2 OFFCURVE",
"358 1 OFFCURVE",
"368 1 CURVE SMOOTH",
"419 1 LINE SMOOTH",
"430 1 OFFCURVE",
"439 13 OFFCURVE",
"439 24 CURVE SMOOTH",
"439 685 LINE SMOOTH",
"439 696 OFFCURVE",
"430 705 OFFCURVE",
"419 705 CURVE SMOOTH"
);
}
);
width = 499;
}
);
unicode = 004E;
},
{
glyphname = O;
lastChange = "2020-08-10 01:56:02 +0000";
layers = (
{
layerId = "A36D14D1-FF07-4574-A62D-30DF65569781";
paths = (
{
closed = 1;
nodes = (
"461 189 LINE",
"461 680 LINE SMOOTH",
"461 687 OFFCURVE",
"457 695 OFFCURVE",
"451 696 CURVE",
"94 694 LINE SMOOTH",
"77 694 OFFCURVE",
"60 692 OFFCURVE",
"60 673 CURVE SMOOTH",
"60 186 LINE",
"141 187 LINE",
"140 587 LINE SMOOTH",
"140 602 OFFCURVE",
"153 608 OFFCURVE",
"167 608 CURVE SMOOTH",
"364 605 LINE SMOOTH",
"373 605 OFFCURVE",
"379 597 OFFCURVE",
"379 587 CURVE SMOOTH",
"380 189 LINE"
);
},
{
closed = 1;
nodes = (
"379 105 LINE SMOOTH",
"379 95 OFFCURVE",
"373 87 OFFCURVE",
"364 87 CURVE SMOOTH",
"167 84 LINE SMOOTH",
"153 84 OFFCURVE",
"140 90 OFFCURVE",
"140 105 CURVE SMOOTH",
"141 505 LINE",
"60 506 LINE",
"60 19 LINE SMOOTH",
"60 0 OFFCURVE",
"77 -2 OFFCURVE",
"94 -2 CURVE SMOOTH",
"451 -4 LINE",
"457 -3 OFFCURVE",
"461 5 OFFCURVE",
"461 12 CURVE SMOOTH",
"461 503 LINE",
"380 503 LINE"
);
}
);
width = 521;
}
);
unicode = 004F;
},
{
glyphname = P;
lastChange = "2020-08-10 01:56:02 +0000";
layers = (
{
layerId = "A36D14D1-FF07-4574-A62D-30DF65569781";
paths = (
{
closed = 1;
nodes = (
"120 253 LINE",
"441 253 LINE SMOOTH",
"452 253 OFFCURVE",
"461 262 OFFCURVE",
"461 273 CURVE SMOOTH",
"461 301 LINE",
"120 301 LINE"
);
},
{
closed = 1;
nodes = (
"461 300 LINE",
"461 681 LINE SMOOTH",
"461 688 OFFCURVE",
"457 696 OFFCURVE",
"451 697 CURVE",
"94 694 LINE SMOOTH",
"77 694 OFFCURVE",
"60 692 OFFCURVE",
"60 673 CURVE SMOOTH",
"60 20 LINE SMOOTH",
"60 9 OFFCURVE",
"69 0 OFFCURVE",
"80 0 CURVE SMOOTH",
"121 0 LINE SMOOTH",
"132 0 OFFCURVE",
"141 9 OFFCURVE",
"141 20 CURVE",
"140 623 LINE",
"140 638 OFFCURVE",
"153 644 OFFCURVE",
"167 644 CURVE SMOOTH",
"364 645 LINE SMOOTH",
"373 645 OFFCURVE",
"379 637 OFFCURVE",
"379 627 CURVE SMOOTH",
"379 300 LINE"
);
}
);
width = 521;
}
);
unicode = 0050;
},
{
glyphname = Q;
lastChange = "2020-08-10 01:56:02 +0000";
layers = (
{
layerId = "A36D14D1-FF07-4574-A62D-30DF65569781";
paths = (
{
closed = 1;
nodes = (
"343 -92 LINE",
"406 -55 LINE",
"257 202 LINE",
"194 165 LINE"
);
},
{
closed = 1;
nodes = (
"461 189 LINE",
"461 680 LINE SMOOTH",
"461 687 OFFCURVE",
"457 695 OFFCURVE",
"451 696 CURVE",
"94 694 LINE SMOOTH",
"77 694 OFFCURVE",
"60 692 OFFCURVE",
"60 673 CURVE SMOOTH",
"60 186 LINE",
"141 187 LINE",
"140 587 LINE SMOOTH",
"140 602 OFFCURVE",
"153 608 OFFCURVE",
"167 608 CURVE SMOOTH",
"364 605 LINE SMOOTH",
"373 605 OFFCURVE",
"379 597 OFFCURVE",
"379 587 CURVE SMOOTH",
"380 189 LINE"
);
},
{
closed = 1;
nodes = (
"379 105 LINE SMOOTH",
"379 95 OFFCURVE",
"373 87 OFFCURVE",
"364 87 CURVE SMOOTH",
"167 84 LINE SMOOTH",
"153 84 OFFCURVE",
"140 90 OFFCURVE",
"140 105 CURVE SMOOTH",
"141 505 LINE",
"60 506 LINE",
"60 19 LINE SMOOTH",
"60 0 OFFCURVE",
"77 -2 OFFCURVE",
"94 -2 CURVE SMOOTH",
"451 -4 LINE",
"457 -3 OFFCURVE",
"461 5 OFFCURVE",
"461 12 CURVE SMOOTH",
"461 503 LINE",
"380 503 LINE"
);
}
);
width = 521;
}
);
unicode = 0051;
},
{
glyphname = R;
lastChange = "2020-08-10 01:56:02 +0000";
layers = (
{
layerId = "A36D14D1-FF07-4574-A62D-30DF65569781";
paths = (
{
closed = 1;
nodes = (
"120 253 LINE",
"425 253 LINE",
"425 301 LINE",
"120 301 LINE"
);
},
{
closed = 1;
nodes = (
"409 300 LINE",
"411 20 LINE SMOOTH",
"411 9 OFFCURVE",
"420 0 OFFCURVE",
"431 0 CURVE SMOOTH",
"471 0 LINE SMOOTH",
"482 0 OFFCURVE",
"491 9 OFFCURVE",
"491 20 CURVE SMOOTH",
"491 280 LINE SMOOTH",
"491 291 OFFCURVE",
"482 300 OFFCURVE",
"471 300 CURVE SMOOTH"
);
},
{
closed = 1;
nodes = (
"461 300 LINE",
"461 681 LINE SMOOTH",
"461 688 OFFCURVE",
"457 696 OFFCURVE",
"451 697 CURVE",
"94 694 LINE SMOOTH",
"77 694 OFFCURVE",
"60 692 OFFCURVE",
"60 673 CURVE SMOOTH",
"60 20 LINE SMOOTH",
"60 9 OFFCURVE",
"69 0 OFFCURVE",
"80 0 CURVE SMOOTH",
"121 0 LINE SMOOTH",
"132 0 OFFCURVE",
"141 9 OFFCURVE",
"141 20 CURVE",
"140 623 LINE",
"140 638 OFFCURVE",
"153 644 OFFCURVE",
"167 644 CURVE SMOOTH",
"364 645 LINE SMOOTH",
"373 645 OFFCURVE",
"379 637 OFFCURVE",
"379 627 CURVE SMOOTH",
"379 300 LINE"
);
}
);
width = 550;
}
);
unicode = 0052;
},
{
glyphname = S;
lastChange = "2020-08-10 01:56:02 +0000";
layers = (
{
layerId = "A36D14D1-FF07-4574-A62D-30DF65569781";
paths = (
{
closed = 1;
nodes = (
"120 242 LINE",
"425 242 LINE",
"425 301 LINE",
"120 301 LINE"
);
},
{
closed = 1;
nodes = (
"60 0 LINE",
"441 0 LINE",
"441 58 LINE",
"60 58 LINE"
);
},
{
closed = 1;
nodes = (
"409 301 LINE",
"411 0 LINE",
"441 0 LINE",
"452 0 OFFCURVE",
"491 14 OFFCURVE",
"491 25 CURVE SMOOTH",
"491 280 LINE SMOOTH",
"491 301 OFFCURVE",
"482 301 OFFCURVE",
"471 301 CURVE SMOOTH"
);
},
{
closed = 1;
nodes = (
"141 242 LINE",
"140 623 LINE",
"140 638 OFFCURVE",
"153 644 OFFCURVE",
"167 644 CURVE SMOOTH",
"364 645 LINE SMOOTH",
"373 645 OFFCURVE",
"379 637 OFFCURVE",
"379 627 CURVE SMOOTH",
"379 617 LINE",
"461 622 LINE",
"461 681 LINE SMOOTH",
"461 688 OFFCURVE",
"457 696 OFFCURVE",
"451 697 CURVE",
"94 694 LINE SMOOTH",
"77 694 OFFCURVE",
"60 692 OFFCURVE",
"60 673 CURVE SMOOTH",
"60 242 LINE"
);
}
);
width = 550;
}
);
unicode = 0053;
},
{
glyphname = T;
lastChange = "2020-08-10 01:56:02 +0000";
layers = (
{
layerId = "A36D14D1-FF07-4574-A62D-30DF65569781";
paths = (
{
closed = 1;
nodes = (
"360 680 LINE SMOOTH",
"360 691 OFFCURVE",
"351 700 OFFCURVE",
"340 700 CURVE SMOOTH",
"299 700 LINE SMOOTH",
"288 700 OFFCURVE",
"279 691 OFFCURVE",
"279 680 CURVE SMOOTH",
"279 161 LINE",
"359 163 LINE"
);
},
{
closed = 1;
nodes = (
"279 540 LINE",
"279 21 LINE SMOOTH",
"279 10 OFFCURVE",
"288 1 OFFCURVE",
"299 1 CURVE SMOOTH",
"340 1 LINE SMOOTH",
"351 1 OFFCURVE",
"360 10 OFFCURVE",
"360 21 CURVE SMOOTH",
"359 538 LINE"
);
},
{
closed = 1;
nodes = (
"220 619 LINE",
"579 619 LINE SMOOTH",
"590 619 OFFCURVE",
"599 628 OFFCURVE",
"599 639 CURVE SMOOTH",
"599 680 LINE SMOOTH",
"599 691 OFFCURVE",
"590 700 OFFCURVE",
"579 700 CURVE SMOOTH",
"222 699 LINE"
);
},
{
closed = 1;
nodes = (
"80 700 LINE SMOOTH",
"69 700 OFFCURVE",
"60 691 OFFCURVE",
"60 680 CURVE SMOOTH",
"60 639 LINE SMOOTH",
"60 628 OFFCURVE",
"69 619 OFFCURVE",
"80 619 CURVE SMOOTH",
"439 619 LINE",
"437 699 LINE"
);
}
);
width = 659;
}
);
unicode = 0054;
},
{
glyphname = U;
lastChange = "2020-08-10 01:56:02 +0000";
layers = (
{
layerId = "A36D14D1-FF07-4574-A62D-30DF65569781";
paths = (
{
closed = 1;
nodes = (
"379 105 LINE SMOOTH",
"379 95 OFFCURVE",
"373 87 OFFCURVE",
"364 87 CURVE SMOOTH",
"167 84 LINE SMOOTH",
"153 84 OFFCURVE",
"140 90 OFFCURVE",
"140 105 CURVE SMOOTH",
"141 680 LINE SMOOTH",
"141 691 OFFCURVE",
"132 700 OFFCURVE",
"121 700 CURVE SMOOTH",
"81 701 LINE SMOOTH",
"69 701 OFFCURVE",
"60 692 OFFCURVE",
"60 680 CURVE SMOOTH",
"60 19 LINE SMOOTH",
"60 0 OFFCURVE",
"77 -2 OFFCURVE",
"94 -2 CURVE SMOOTH",
"451 -4 LINE",
"457 -3 OFFCURVE",
"461 5 OFFCURVE",
"461 12 CURVE SMOOTH",
"461 678 LINE SMOOTH",
"461 689 OFFCURVE",
"452 698 OFFCURVE",
"441 698 CURVE SMOOTH",
"400 698 LINE SMOOTH",
"389 698 OFFCURVE",
"380 689 OFFCURVE",
"380 678 CURVE SMOOTH"
);
}
);
width = 521;
}
);
unicode = 0055;
},
{
glyphname = V;
lastChange = "2019-02-19 02:05:59 +0000";
layers = (
{
layerId = "A36D14D1-FF07-4574-A62D-30DF65569781";
paths = (
{
closed = 1;
nodes = (
"577 683 LINE SMOOTH",
"567 687 OFFCURVE",
"555 681 OFFCURVE",
"551 671 CURVE SMOOTH",
"503 539 LINE",
"342 97 LINE",
"234 379 LINE",
"122 673 LINE",
"117 683 OFFCURVE",
"82 681 OFFCURVE",
"72 676 CURVE SMOOTH",
"58 669 LINE",
"47 666 OFFCURVE",
"42 654 OFFCURVE",
"46 644 CURVE SMOOTH",
"96 513 LINE",
"282 28 LINE SMOOTH",
"286 18 OFFCURVE",
"297 -1 OFFCURVE",
"308 -1 CURVE SMOOTH",
"376 -1 LINE SMOOTH",
"387 -1 OFFCURVE",
"398 14 OFFCURVE",
"402 24 CURVE SMOOTH",
"564 471 LINE",
"627 643 LINE SMOOTH",
"631 654 OFFCURVE",
"626 666 OFFCURVE",
"615 669 CURVE"
);
}
);
width = 673;
}
);
unicode = 0056;
},
{
glyphname = W;
lastChange = "2019-02-19 02:22:19 +0000";
layers = (
{
layerId = "A36D14D1-FF07-4574-A62D-30DF65569781";
paths = (
{
closed = 1;
nodes = (
"707 683 LINE SMOOTH",
"697 687 OFFCURVE",
"683 681 OFFCURVE",
"681 671 CURVE SMOOTH",
"582 95 LINE SMOOTH",
"580 86 OFFCURVE",
"572 79 OFFCURVE",
"563 79 CURVE SMOOTH",
"528 79 LINE SMOOTH",
"517 79 OFFCURVE",
"509 87 OFFCURVE",
"508 97 CURVE SMOOTH",
"472 583 LINE SMOOTH",
"468 634 OFFCURVE",
"355 629 OFFCURVE",
"351 581 CURVE SMOOTH",
"312 95 LINE SMOOTH",
"311 85 OFFCURVE",
"303 77 OFFCURVE",
"293 77 CURVE SMOOTH",
"239 77 LINE SMOOTH",
"229 77 OFFCURVE",
"220 84 OFFCURVE",
"219 94 CURVE SMOOTH",
"132 673 LINE",
"127 683 OFFCURVE",
"92 681 OFFCURVE",
"82 676 CURVE SMOOTH",
"68 669 LINE",
"57 666 OFFCURVE",
"54 654 OFFCURVE",
"56 644 CURVE SMOOTH",
"162 28 LINE SMOOTH",
"164 18 OFFCURVE",
"177 -1 OFFCURVE",
"188 -1 CURVE SMOOTH",
"356 -1 LINE SMOOTH",
"367 -1 OFFCURVE",
"381 14 OFFCURVE",
"382 24 CURVE",
"408 502 LINE",
"442 28 LINE SMOOTH",
"443 18 OFFCURVE",
"457 -1 OFFCURVE",
"468 -1 CURVE SMOOTH",
"626 -1 LINE SMOOTH",
"637 -1 OFFCURVE",
"650 14 OFFCURVE",
"652 24 CURVE SMOOTH",
"757 643 LINE SMOOTH",
"759 654 OFFCURVE",
"756 666 OFFCURVE",
"745 669 CURVE"
);
}
);
width = 803;
}
);
unicode = 0057;
},
{
glyphname = X;
lastChange = "2020-08-10 01:56:02 +0000";
layers = (
{
layerId = "A36D14D1-FF07-4574-A62D-30DF65569781";
paths = (
{
closed = 1;
nodes = (
"422 710 LINE SMOOTH",
"414 710 OFFCURVE",
"407 705 OFFCURVE",
"404 698 CURVE SMOOTH",
"277 347 LINE",
"169 629 LINE",
"142 700 LINE SMOOTH",
"139 708 OFFCURVE",
"131 712 OFFCURVE",
"124 712 CURVE SMOOTH",
"84 712 LINE SMOOTH",
"67 712 OFFCURVE",
"56 697 OFFCURVE",
"62 680 CURVE SMOOTH",
"217 278 LINE SMOOTH",
"221 268 OFFCURVE",
"232 249 OFFCURVE",
"243 249 CURVE SMOOTH",
"311 249 LINE SMOOTH",
"322 249 OFFCURVE",
"333 264 OFFCURVE",
"337 274 CURVE SMOOTH",
"484 679 LINE SMOOTH",
"490 695 OFFCURVE",
"480 709 OFFCURVE",
"463 709 CURVE SMOOTH"
);
},
{
closed = 1;
nodes = (
"402 -7 LINE SMOOTH",
"419 -7 OFFCURVE",
"429 7 OFFCURVE",
"423 23 CURVE SMOOTH",
"337 259 LINE SMOOTH",
"333 269 OFFCURVE",
"322 284 OFFCURVE",
"311 284 CURVE SMOOTH",
"243 284 LINE SMOOTH",
"232 284 OFFCURVE",
"221 265 OFFCURVE",
"217 255 CURVE SMOOTH",
"128 23 LINE SMOOTH",
"122 6 OFFCURVE",
"134 -9 OFFCURVE",
"151 -9 CURVE SMOOTH",
"191 -8 LINE SMOOTH",
"198 -8 OFFCURVE",
"204 -4 OFFCURVE",
"207 4 CURVE SMOOTH",
"277 186 LINE",
"344 4 LINE SMOOTH",
"347 -3 OFFCURVE",
"353 -8 OFFCURVE",
"361 -8 CURVE SMOOTH"
);
}
);
width = 546;
}
);
unicode = 0058;
},
{
glyphname = Y;
lastChange = "2020-08-10 01:56:02 +0000";
layers = (
{
layerId = "A36D14D1-FF07-4574-A62D-30DF65569781";
paths = (
{
closed = 1;
nodes = (
"422 710 LINE SMOOTH",
"414 710 OFFCURVE",
"407 705 OFFCURVE",
"404 698 CURVE",
"277 347 LINE",
"169 629 LINE",
"142 700 LINE SMOOTH",
"139 708 OFFCURVE",
"131 712 OFFCURVE",
"124 712 CURVE SMOOTH",
"84 712 LINE SMOOTH",
"67 712 OFFCURVE",
"56 697 OFFCURVE",
"62 680 CURVE SMOOTH",
"217 278 LINE SMOOTH",
"221 268 OFFCURVE",
"232 249 OFFCURVE",
"243 249 CURVE SMOOTH",
"311 249 LINE SMOOTH",
"322 249 OFFCURVE",
"333 264 OFFCURVE",
"337 274 CURVE SMOOTH",
"484 679 LINE SMOOTH",
"490 695 OFFCURVE",
"480 709 OFFCURVE",
"463 709 CURVE SMOOTH"
);
},
{
closed = 1;
nodes = (
"231 20 LINE SMOOTH",
"231 9 OFFCURVE",
"240 0 OFFCURVE",
"251 0 CURVE SMOOTH",
"300 0 LINE SMOOTH",
"311 0 OFFCURVE",
"320 9 OFFCURVE",
"320 20 CURVE SMOOTH",
"320 254 LINE",
"231 254 LINE"
);
}
);
width = 546;
}
);
unicode = 0059;
},
{
glyphname = Z;
lastChange = "2020-08-10 01:56:02 +0000";
layers = (
{
layerId = "A36D14D1-FF07-4574-A62D-30DF65569781";
paths = (
{
closed = 1;
nodes = (
"454 71 OFFCURVE",
"445 80 OFFCURVE",
"434 80 CURVE SMOOTH",
"165 80 LINE",
"439 662 LINE",
"441 667 OFFCURVE",
"430 700 OFFCURVE",
"419 700 CURVE SMOOTH",
"80 700 LINE SMOOTH",
"70 700 OFFCURVE",
"60 691 OFFCURVE",
"60 680 CURVE SMOOTH",
"61 639 LINE SMOOTH",
"61 628 OFFCURVE",
"70 619 OFFCURVE",
"81 619 CURVE SMOOTH",
"338 619 LINE",
"67 46 LINE",
"66 19 LINE",
"67 6 OFFCURVE",
"75 -1 OFFCURVE",
"86 -1 CURVE SMOOTH",
"435 -1 LINE SMOOTH",
"446 -1 OFFCURVE",
"455 8 OFFCURVE",
"455 19 CURVE",
"454 60 LINE"
);
}
);
width = 503;
}
);
unicode = 005A;
},
{
glyphname = a;
lastChange = "2020-08-10 01:56:02 +0000";
layers = (
{
layerId = "A36D14D1-FF07-4574-A62D-30DF65569781";
paths = (
{
closed = 1;
nodes = (
"111 500 LINE SMOOTH",
"82 500 OFFCURVE",
"60 478 OFFCURVE",
"60 449 CURVE SMOOTH",
"60 413 LINE",
"141 414 LINE",
"141 439 LINE SMOOTH",
"141 450 OFFCURVE",
"150 459 OFFCURVE",
"161 459 CURVE SMOOTH",
"360 459 LINE SMOOTH",
"371 459 OFFCURVE",
"380 450 OFFCURVE",
"380 439 CURVE SMOOTH",
"380 294 LINE",
"111 294 LINE SMOOTH",
"82 294 OFFCURVE",
"60 272 OFFCURVE",
"60 243 CURVE SMOOTH",
"60 51 LINE SMOOTH",
"60 22 OFFCURVE",
"82 0 OFFCURVE",
"111 0 CURVE SMOOTH",
"410 0 LINE SMOOTH",
"439 0 OFFCURVE",
"461 22 OFFCURVE",
"461 51 CURVE SMOOTH",
"461 449 LINE SMOOTH",
"461 478 OFFCURVE",
"439 500 OFFCURVE",
"410 500 CURVE SMOOTH"
);
},
{
closed = 1;
nodes = (
"380 50 OFFCURVE",
"371 41 OFFCURVE",
"360 41 CURVE SMOOTH",
"161 41 LINE SMOOTH",
"150 41 OFFCURVE",
"141 50 OFFCURVE",
"141 61 CURVE SMOOTH",
"141 233 LINE SMOOTH",
"141 244 OFFCURVE",
"150 253 OFFCURVE",
"161 253 CURVE SMOOTH",
"360 253 LINE SMOOTH",
"371 253 OFFCURVE",
"380 244 OFFCURVE",
"380 233 CURVE SMOOTH",
"380 61 LINE SMOOTH"
);
}
);
width = 521;
}
);
unicode = 0061;
},
{
glyphname = b;
lastChange = "2020-08-10 01:56:02 +0000";
layers = (
{
layerId = "A36D14D1-FF07-4574-A62D-30DF65569781";
paths = (
{
closed = 1;
nodes = (
"380 61 LINE SMOOTH",
"380 50 OFFCURVE",
"371 41 OFFCURVE",
"360 41 CURVE SMOOTH",
"161 41 LINE SMOOTH",
"150 41 OFFCURVE",
"141 50 OFFCURVE",
"141 61 CURVE SMOOTH",
"141 670 LINE SMOOTH",
"141 681 OFFCURVE",
"132 690 OFFCURVE",
"121 690 CURVE SMOOTH",
"80 690 LINE SMOOTH",
"69 690 OFFCURVE",
"60 681 OFFCURVE",
"60 670 CURVE SMOOTH",
"60 51 LINE SMOOTH",
"60 22 OFFCURVE",
"82 0 OFFCURVE",
"111 0 CURVE SMOOTH",
"410 0 LINE SMOOTH",
"439 0 OFFCURVE",
"461 22 OFFCURVE",
"461 51 CURVE SMOOTH",
"461 410 LINE SMOOTH",
"461 421 OFFCURVE",
"452 430 OFFCURVE",
"441 430 CURVE SMOOTH",
"400 430 LINE SMOOTH",
"389 430 OFFCURVE",
"380 421 OFFCURVE",
"380 410 CURVE SMOOTH"
);
},
{
closed = 1;
nodes = (
"380 39 OFFCURVE",
"389 30 OFFCURVE",
"400 30 CURVE SMOOTH",
"441 30 LINE SMOOTH",
"452 30 OFFCURVE",
"461 39 OFFCURVE",
"461 50 CURVE SMOOTH",
"461 449 LINE SMOOTH",
"461 478 OFFCURVE",
"439 500 OFFCURVE",
"410 500 CURVE SMOOTH",
"111 500 LINE SMOOTH",
"82 500 OFFCURVE",
"60 478 OFFCURVE",
"60 449 CURVE SMOOTH",
"60 50 LINE SMOOTH",
"60 39 OFFCURVE",
"69 30 OFFCURVE",
"80 30 CURVE SMOOTH",
"121 30 LINE SMOOTH",
"132 30 OFFCURVE",
"141 39 OFFCURVE",
"141 50 CURVE SMOOTH",
"141 439 LINE SMOOTH",
"141 450 OFFCURVE",
"150 459 OFFCURVE",
"161 459 CURVE SMOOTH",
"360 459 LINE SMOOTH",
"371 459 OFFCURVE",
"380 450 OFFCURVE",
"380 439 CURVE SMOOTH",
"380 50 LINE SMOOTH"
);
}
);
width = 521;
}
);
unicode = 0062;
},
{
glyphname = d;
lastChange = "2020-08-10 01:56:02 +0000";
layers = (
{
layerId = "A36D14D1-FF07-4574-A62D-30DF65569781";
paths = (
{
closed = 1;
nodes = (
"141 431 OFFCURVE",
"132 440 OFFCURVE",
"121 440 CURVE SMOOTH",
"80 440 LINE SMOOTH",
"69 440 OFFCURVE",
"60 431 OFFCURVE",
"60 420 CURVE SMOOTH",
"60 51 LINE SMOOTH",
"60 22 OFFCURVE",
"82 0 OFFCURVE",
"111 0 CURVE SMOOTH",
"410 0 LINE SMOOTH",
"439 0 OFFCURVE",
"461 22 OFFCURVE",
"461 51 CURVE SMOOTH",
"461 680 LINE SMOOTH",
"461 691 OFFCURVE",
"452 700 OFFCURVE",
"441 700 CURVE SMOOTH",
"400 700 LINE SMOOTH",
"389 700 OFFCURVE",
"380 691 OFFCURVE",
"380 680 CURVE SMOOTH",
"380 61 LINE SMOOTH",
"380 50 OFFCURVE",
"371 41 OFFCURVE",
"360 41 CURVE SMOOTH",
"161 41 LINE SMOOTH",
"150 41 OFFCURVE",
"141 50 OFFCURVE",
"141 61 CURVE SMOOTH",
"141 420 LINE SMOOTH"
);
},
{
closed = 1;
nodes = (
"141 449 LINE SMOOTH",
"141 460 OFFCURVE",
"150 469 OFFCURVE",
"161 469 CURVE SMOOTH",
"360 469 LINE SMOOTH",
"371 469 OFFCURVE",
"380 460 OFFCURVE",
"380 449 CURVE SMOOTH",
"380 50 LINE SMOOTH",
"380 39 OFFCURVE",
"389 30 OFFCURVE",
"400 30 CURVE SMOOTH",
"441 30 LINE SMOOTH",
"452 30 OFFCURVE",
"461 39 OFFCURVE",
"461 50 CURVE SMOOTH",
"461 459 LINE SMOOTH",
"461 488 OFFCURVE",
"439 510 OFFCURVE",
"410 510 CURVE SMOOTH",
"111 510 LINE SMOOTH",
"82 510 OFFCURVE",
"60 488 OFFCURVE",
"60 459 CURVE SMOOTH",
"60 50 LINE SMOOTH",
"60 39 OFFCURVE",
"69 30 OFFCURVE",
"80 30 CURVE SMOOTH",
"121 30 LINE SMOOTH",
"132 30 OFFCURVE",
"141 39 OFFCURVE",
"141 50 CURVE SMOOTH"
);
}
);
width = 521;
}
);
unicode = 0064;
},
{
glyphname = e;
lastChange = "2020-08-10 01:56:02 +0000";
layers = (
{
layerId = "A36D14D1-FF07-4574-A62D-30DF65569781";
paths = (
{
closed = 1;
nodes = (
"420 61 LINE SMOOTH",
"420 72 OFFCURVE",
"411 81 OFFCURVE",
"400 81 CURVE SMOOTH",
"121 81 LINE SMOOTH",
"110 81 OFFCURVE",
"101 90 OFFCURVE",
"101 101 CURVE SMOOTH",
"101 399 LINE SMOOTH",
"101 410 OFFCURVE",
"110 419 OFFCURVE",
"121 419 CURVE SMOOTH",
"397 419 LINE SMOOTH",
"408 419 OFFCURVE",
"417 428 OFFCURVE",
"417 439 CURVE SMOOTH",
"417 480 LINE SMOOTH",
"417 491 OFFCURVE",
"408 500 OFFCURVE",
"397 500 CURVE SMOOTH",
"111 500 LINE SMOOTH",
"82 500 OFFCURVE",
"60 478 OFFCURVE",
"60 449 CURVE SMOOTH",
"60 51 LINE SMOOTH",
"60 22 OFFCURVE",
"82 0 OFFCURVE",
"111 0 CURVE SMOOTH",
"400 0 LINE SMOOTH",
"412 0 OFFCURVE",
"421 9 OFFCURVE",
"421 21 CURVE SMOOTH"
);
},
{
closed = 1;
nodes = (
"87 225 LINE",
"366 225 LINE SMOOTH",
"395 225 OFFCURVE",
"417 247 OFFCURVE",
"417 276 CURVE SMOOTH",
"417 475 LINE",
"376 474 LINE",
"376 326 LINE SMOOTH",
"376 315 OFFCURVE",
"367 306 OFFCURVE",
"356 306 CURVE SMOOTH",
"84 306 LINE"
);
}
);
width = 480;
}
);
unicode = 0065;
},
{
glyphname = f;
lastChange = "2020-08-10 01:56:02 +0000";
layers = (
{
layerId = "A36D14D1-FF07-4574-A62D-30DF65569781";
paths = (
{
closed = 1;
nodes = (
"195 699 LINE SMOOTH",
"180 699 OFFCURVE",
"164 679 OFFCURVE",
"164 660 CURVE SMOOTH",
"164 520 LINE SMOOTH",
"164 509 OFFCURVE",
"155 500 OFFCURVE",
"144 500 CURVE SMOOTH",
"80 500 LINE SMOOTH",
"69 500 OFFCURVE",
"60 491 OFFCURVE",
"60 480 CURVE SMOOTH",
"60 479 LINE SMOOTH",
"60 468 OFFCURVE",
"69 459 OFFCURVE",
"80 459 CURVE SMOOTH",
"144 459 LINE SMOOTH",
"155 459 OFFCURVE",
"164 450 OFFCURVE",
"164 439 CURVE SMOOTH",
"164 20 LINE SMOOTH",
"164 9 OFFCURVE",
"173 0 OFFCURVE",
"184 0 CURVE SMOOTH",
"225 0 LINE SMOOTH",
"236 0 OFFCURVE",
"245 9 OFFCURVE",
"245 20 CURVE SMOOTH",
"245 439 LINE SMOOTH",
"245 450 OFFCURVE",
"254 459 OFFCURVE",
"265 459 CURVE SMOOTH",
"389 459 LINE SMOOTH",
"400 459 OFFCURVE",
"409 468 OFFCURVE",
"409 479 CURVE SMOOTH",
"409 480 LINE SMOOTH",
"409 491 OFFCURVE",
"400 500 OFFCURVE",
"389 500 CURVE SMOOTH",
"265 500 LINE SMOOTH",
"254 500 OFFCURVE",
"245 509 OFFCURVE",
"245 520 CURVE SMOOTH",
"245 631 LINE SMOOTH",
"245 642 OFFCURVE",
"254 651 OFFCURVE",
"265 651 CURVE SMOOTH",
"390 651 LINE SMOOTH",
"400 651 OFFCURVE",
"414 660 OFFCURVE",
"414 680 CURVE SMOOTH",
"414 692 OFFCURVE",
"405 700 OFFCURVE",
"394 700 CURVE SMOOTH"
);
}
);
width = 468;
}
);
unicode = 0066;
},
{
glyphname = g;
lastChange = "2020-08-10 01:56:02 +0000";
layers = (
{
layerId = "A36D14D1-FF07-4574-A62D-30DF65569781";
paths = (
{
closed = 1;
nodes = (
"101 500 LINE SMOOTH",
"78 500 OFFCURVE",
"60 482 OFFCURVE",
"60 459 CURVE SMOOTH",
"60 41 LINE SMOOTH",
"60 18 OFFCURVE",
"78 0 OFFCURVE",
"101 0 CURVE SMOOTH",
"420 0 LINE SMOOTH",
"443 0 OFFCURVE",
"461 18 OFFCURVE",
"461 41 CURVE SMOOTH",
"461 459 LINE SMOOTH",
"461 482 OFFCURVE",
"443 500 OFFCURVE",
"420 500 CURVE SMOOTH"
);
},
{
closed = 1;
nodes = (
"161 41 LINE SMOOTH",
"150 41 OFFCURVE",
"141 50 OFFCURVE",
"141 61 CURVE SMOOTH",
"141 439 LINE SMOOTH",
"141 450 OFFCURVE",
"150 459 OFFCURVE",
"161 459 CURVE SMOOTH",
"360 459 LINE SMOOTH",
"371 459 OFFCURVE",
"380 450 OFFCURVE",
"380 439 CURVE SMOOTH",
"380 61 LINE SMOOTH",
"380 50 OFFCURVE",
"371 41 OFFCURVE",
"360 41 CURVE SMOOTH"
);
},
{
closed = 1;
nodes = (
"379 -139 LINE SMOOTH",
"379 -150 OFFCURVE",
"369 -160 OFFCURVE",
"358 -160 CURVE SMOOTH",
"130 -159 LINE SMOOTH",
"119 -159 OFFCURVE",
"110 -168 OFFCURVE",
"110 -179 CURVE SMOOTH",
"110 -180 LINE SMOOTH",
"110 -191 OFFCURVE",
"119 -200 OFFCURVE",
"130 -200 CURVE SMOOTH",
"441 -200 LINE SMOOTH",
"452 -200 OFFCURVE",
"461 -191 OFFCURVE",
"461 -180 CURVE SMOOTH",
"461 44 LINE",
"379 43 LINE"
);
}
);
width = 521;
}
);
unicode = 0067;
},
{
glyphname = i;
lastChange = "2020-08-10 01:56:02 +0000";
layers = (
{
layerId = "A36D14D1-FF07-4574-A62D-30DF65569781";
paths = (
{
closed = 1;
nodes = (
"155 42 LINE",
"147 45 OFFCURVE",
"142 53 OFFCURVE",
"142 61 CURVE SMOOTH",
"142 480 LINE SMOOTH",
"142 491 OFFCURVE",
"133 500 OFFCURVE",
"122 500 CURVE SMOOTH",
"81 500 LINE SMOOTH",
"70 500 OFFCURVE",
"61 491 OFFCURVE",
"61 480 CURVE SMOOTH",
"61 51 LINE SMOOTH",
"61 22 OFFCURVE",
"83 0 OFFCURVE",
"112 0 CURVE SMOOTH",
"157 0 LINE"
);
},
{
closed = 1;
nodes = (
"60 558 LINE",
"133 558 LINE",
"133 653 LINE",
"60 653 LINE"
);
}
);
width = 217;
}
);
unicode = 0069;
},
{
glyphname = j;
lastChange = "2020-08-10 01:56:02 +0000";
layers = (
{
layerId = "A36D14D1-FF07-4574-A62D-30DF65569781";
paths = (
{
closed = 1;
nodes = (
"45 -149 LINE SMOOTH",
"45 -178 OFFCURVE",
"67 -200 OFFCURVE",
"96 -200 CURVE SMOOTH",
"245 -200 LINE SMOOTH",
"274 -200 OFFCURVE",
"296 -178 OFFCURVE",
"296 -149 CURVE SMOOTH",
"296 480 LINE SMOOTH",
"296 491 OFFCURVE",
"287 500 OFFCURVE",
"276 500 CURVE SMOOTH",
"235 500 LINE SMOOTH",
"224 500 OFFCURVE",
"215 491 OFFCURVE",
"215 480 CURVE SMOOTH",
"215 -139 LINE SMOOTH",
"215 -150 OFFCURVE",
"206 -159 OFFCURVE",
"195 -159 CURVE SMOOTH",
"146 -159 LINE SMOOTH",
"135 -159 OFFCURVE",
"126 -150 OFFCURVE",
"126 -139 CURVE SMOOTH",
"126 -122 LINE",
"45 -124 LINE"
);
},
{
closed = 1;
nodes = (
"209 653 LINE",
"209 558 LINE",
"282 558 LINE",
"282 653 LINE"
);
}
);
width = 356;
}
);
unicode = 006A;
},
{
glyphname = k;
lastChange = "2019-02-19 00:54:00 +0000";
layers = (
{
layerId = "A36D14D1-FF07-4574-A62D-30DF65569781";
paths = (
{
closed = 1;
nodes = (
"226 262 LINE",
"366 500 LINE",
"315 500 LINE",
"188 285 LINE",
"137 286 LINE",
"137 680 LINE SMOOTH",
"137 691 OFFCURVE",
"128 700 OFFCURVE",
"117 700 CURVE SMOOTH",
"76 700 LINE SMOOTH",
"65 700 OFFCURVE",
"56 691 OFFCURVE",
"56 680 CURVE SMOOTH",
"56 32 LINE SMOOTH",
"56 13 OFFCURVE",
"65 -3 OFFCURVE",
"76 -3 CURVE SMOOTH",
"117 -3 LINE SMOOTH",
"128 -3 OFFCURVE",
"137 13 OFFCURVE",
"137 32 CURVE SMOOTH",
"137 261 LINE",
"178 261 LINE",
"328 4 LINE",
"379 4 LINE"
);
}
);
width = 436;
}
);
unicode = 006B;
},
{
glyphname = l;
lastChange = "2020-08-10 01:56:02 +0000";
layers = (
{
layerId = "A36D14D1-FF07-4574-A62D-30DF65569781";
paths = (
{
closed = 1;
nodes = (
"230 78 LINE",
"230 61 LINE SMOOTH",
"230 50 OFFCURVE",
"221 41 OFFCURVE",
"210 41 CURVE SMOOTH",
"161 41 LINE SMOOTH",
"150 41 OFFCURVE",
"141 50 OFFCURVE",
"141 61 CURVE SMOOTH",
"141 680 LINE SMOOTH",
"141 691 OFFCURVE",
"132 700 OFFCURVE",
"121 700 CURVE SMOOTH",
"80 700 LINE SMOOTH",
"69 700 OFFCURVE",
"60 691 OFFCURVE",
"60 680 CURVE SMOOTH",
"60 51 LINE SMOOTH",
"60 22 OFFCURVE",
"82 0 OFFCURVE",
"111 0 CURVE SMOOTH",
"260 0 LINE SMOOTH",
"289 0 OFFCURVE",
"311 22 OFFCURVE",
"311 51 CURVE SMOOTH",
"311 76 LINE"
);
}
);
width = 371;
}
);
unicode = 006C;
},
{
glyphname = p;
lastChange = "2020-08-10 01:56:02 +0000";
layers = (
{
layerId = "A36D14D1-FF07-4574-A62D-30DF65569781";
paths = (
{
closed = 1;
nodes = (
"380 69 OFFCURVE",
"389 60 OFFCURVE",
"400 60 CURVE SMOOTH",
"441 60 LINE SMOOTH",
"452 60 OFFCURVE",
"461 69 OFFCURVE",
"461 80 CURVE SMOOTH",
"461 449 LINE SMOOTH",
"461 478 OFFCURVE",
"439 500 OFFCURVE",
"410 500 CURVE SMOOTH",
"111 500 LINE SMOOTH",
"82 500 OFFCURVE",
"60 478 OFFCURVE",
"60 449 CURVE SMOOTH",
"60 -180 LINE SMOOTH",
"60 -191 OFFCURVE",
"69 -200 OFFCURVE",
"80 -200 CURVE SMOOTH",
"121 -200 LINE SMOOTH",
"132 -200 OFFCURVE",
"141 -191 OFFCURVE",
"141 -180 CURVE SMOOTH",
"141 439 LINE SMOOTH",
"141 450 OFFCURVE",
"150 459 OFFCURVE",
"161 459 CURVE SMOOTH",
"360 459 LINE SMOOTH",
"371 459 OFFCURVE",
"380 450 OFFCURVE",
"380 439 CURVE SMOOTH",
"380 80 LINE SMOOTH"
);
},
{
closed = 1;
nodes = (
"380 51 LINE SMOOTH",
"380 40 OFFCURVE",
"371 31 OFFCURVE",
"360 31 CURVE SMOOTH",
"161 31 LINE SMOOTH",
"150 31 OFFCURVE",
"141 40 OFFCURVE",
"141 51 CURVE SMOOTH",
"141 450 LINE SMOOTH",
"141 461 OFFCURVE",
"132 470 OFFCURVE",
"121 470 CURVE SMOOTH",
"80 470 LINE SMOOTH",
"69 470 OFFCURVE",
"60 461 OFFCURVE",
"60 450 CURVE SMOOTH",
"60 41 LINE SMOOTH",
"60 12 OFFCURVE",
"82 -10 OFFCURVE",
"111 -10 CURVE SMOOTH",
"410 -10 LINE SMOOTH",
"439 -10 OFFCURVE",
"461 12 OFFCURVE",
"461 41 CURVE SMOOTH",
"461 450 LINE SMOOTH",
"461 461 OFFCURVE",
"452 470 OFFCURVE",
"441 470 CURVE SMOOTH",
"400 470 LINE SMOOTH",
"389 470 OFFCURVE",
"380 461 OFFCURVE",
"380 450 CURVE SMOOTH"
);
}
);
width = 521;
}
);
unicode = 0070;
},
{
glyphname = s;
lastChange = "2020-08-10 01:56:02 +0000";
layers = (
{
layerId = "A36D14D1-FF07-4574-A62D-30DF65569781";
paths = (
{
closed = 1;
nodes = (
"106 290 LINE",
"103 294 OFFCURVE",
"101 298 OFFCURVE",
"101 303 CURVE SMOOTH",
"101 371 LINE SMOOTH",
"101 415 OFFCURVE",
"110 411 OFFCURVE",
"121 411 CURVE SMOOTH",
"397 411 LINE SMOOTH",
"408 411 OFFCURVE",
"417 420 OFFCURVE",
"417 431 CURVE SMOOTH",
"417 472 LINE SMOOTH",
"417 483 OFFCURVE",
"408 492 OFFCURVE",
"397 492 CURVE SMOOTH",
"111 492 LINE SMOOTH",
"82 492 OFFCURVE",
"60 470 OFFCURVE",
"60 441 CURVE SMOOTH",
"60 253 LINE SMOOTH",
"60 224 OFFCURVE",
"82 202 OFFCURVE",
"111 202 CURVE SMOOTH",
"385 202 LINE",
"388 198 OFFCURVE",
"390 194 OFFCURVE",
"390 189 CURVE SMOOTH",
"390 101 LINE SMOOTH",
"390 90 OFFCURVE",
"381 81 OFFCURVE",
"370 81 CURVE SMOOTH",
"91 81 LINE SMOOTH",
"80 81 OFFCURVE",
"71 72 OFFCURVE",
"71 61 CURVE SMOOTH",
"70 21 LINE SMOOTH",
"70 9 OFFCURVE",
"79 0 OFFCURVE",
"91 0 CURVE SMOOTH",
"380 0 LINE SMOOTH",
"409 0 OFFCURVE",
"431 22 OFFCURVE",
"431 51 CURVE SMOOTH",
"431 239 LINE SMOOTH",
"431 268 OFFCURVE",
"409 290 OFFCURVE",
"380 290 CURVE SMOOTH"
);
}
);
width = 490;
}
);
unicode = 0073;
},
{
glyphname = v;
lastChange = "2020-08-10 01:56:02 +0000";
layers = (
{
layerId = "A36D14D1-FF07-4574-A62D-30DF65569781";
paths = (
{
closed = 1;
nodes = (
"265 41 LINE",
"221 41 LINE SMOOTH",
"210 41 OFFCURVE",
"203 50 OFFCURVE",
"201 61 CURVE SMOOTH",
"141 480 LINE SMOOTH",
"139 491 OFFCURVE",
"132 500 OFFCURVE",
"121 500 CURVE SMOOTH",
"80 500 LINE SMOOTH",
"69 500 OFFCURVE",
"58 491 OFFCURVE",
"60 480 CURVE SMOOTH",
"120 51 LINE SMOOTH",
"124 22 OFFCURVE",
"142 0 OFFCURVE",
"171 0 CURVE SMOOTH",
"265 0 LINE"
);
},
{
closed = 1;
nodes = (
"260 0 LINE",
"350 0 LINE SMOOTH",
"379 0 OFFCURVE",
"397 22 OFFCURVE",
"401 51 CURVE SMOOTH",
"461 480 LINE SMOOTH",
"463 491 OFFCURVE",
"452 500 OFFCURVE",
"441 500 CURVE SMOOTH",
"400 500 LINE SMOOTH",
"389 500 OFFCURVE",
"382 491 OFFCURVE",
"380 480 CURVE SMOOTH",
"320 61 LINE SMOOTH",
"318 50 OFFCURVE",
"311 41 OFFCURVE",
"300 41 CURVE SMOOTH",
"260 41 LINE"
);
}
);
width = 521;
}
);
unicode = 0076;
},
{
glyphname = x;
lastChange = "2020-08-10 01:56:02 +0000";
layers = (
{
layerId = "A36D14D1-FF07-4574-A62D-30DF65569781";
paths = (
{
closed = 1;
nodes = (
"236 278 LINE",
"222 278 LINE SMOOTH",
"211 278 OFFCURVE",
"206 287 OFFCURVE",
"202 298 CURVE SMOOTH",
"142 480 LINE SMOOTH",
"138 491 OFFCURVE",
"133 500 OFFCURVE",
"122 500 CURVE SMOOTH",
"81 500 LINE SMOOTH",
"70 500 OFFCURVE",
"57 491 OFFCURVE",
"61 480 CURVE SMOOTH",
"121 301 LINE SMOOTH",
"131 272 OFFCURVE",
"143 250 OFFCURVE",
"172 250 CURVE SMOOTH",
"236 250 LINE"
);
},
{
closed = 1;
nodes = (
"231 250 LINE",
"301 250 LINE SMOOTH",
"330 250 OFFCURVE",
"342 272 OFFCURVE",
"352 301 CURVE SMOOTH",
"412 480 LINE SMOOTH",
"416 491 OFFCURVE",
"403 500 OFFCURVE",
"392 500 CURVE SMOOTH",
"351 500 LINE SMOOTH",
"340 500 OFFCURVE",
"335 491 OFFCURVE",
"331 480 CURVE SMOOTH",
"271 298 LINE SMOOTH",
"267 287 OFFCURVE",
"262 278 OFFCURVE",
"251 278 CURVE SMOOTH",
"231 278 LINE"
);
},
{
closed = 1;
nodes = (
"172 272 LINE SMOOTH",
"143 272 OFFCURVE",
"130 250 OFFCURVE",
"121 221 CURVE SMOOTH",
"61 22 LINE SMOOTH",
"58 11 OFFCURVE",
"70 2 OFFCURVE",
"81 2 CURVE SMOOTH",
"122 2 LINE SMOOTH",
"133 2 OFFCURVE",
"139 11 OFFCURVE",
"142 22 CURVE SMOOTH",
"202 227 LINE SMOOTH",
"205 238 OFFCURVE",
"211 247 OFFCURVE",
"222 247 CURVE SMOOTH",
"236 247 LINE",
"236 272 LINE"
);
},
{
closed = 1;
nodes = (
"251 247 LINE SMOOTH",
"262 247 OFFCURVE",
"268 238 OFFCURVE",
"271 227 CURVE SMOOTH",
"331 22 LINE SMOOTH",
"334 11 OFFCURVE",
"340 2 OFFCURVE",
"351 2 CURVE SMOOTH",
"392 2 LINE SMOOTH",
"403 2 OFFCURVE",
"415 11 OFFCURVE",
"412 22 CURVE SMOOTH",
"352 221 LINE SMOOTH",
"343 250 OFFCURVE",
"330 272 OFFCURVE",
"301 272 CURVE SMOOTH",
"231 272 LINE",
"231 247 LINE"
);
}
);
width = 473;
}
);
unicode = 0078;
},
{
glyphname = y;
lastChange = "2020-08-10 01:56:02 +0000";
layers = (
{
layerId = "A36D14D1-FF07-4574-A62D-30DF65569781";
paths = (
{
closed = 1;
nodes = (
"265 41 LINE",
"221 41 LINE SMOOTH",
"210 41 OFFCURVE",
"203 50 OFFCURVE",
"201 61 CURVE SMOOTH",
"141 480 LINE SMOOTH",
"139 491 OFFCURVE",
"132 500 OFFCURVE",
"121 500 CURVE SMOOTH",
"80 500 LINE SMOOTH",
"69 500 OFFCURVE",
"58 491 OFFCURVE",
"60 480 CURVE SMOOTH",
"120 51 LINE SMOOTH",
"124 22 OFFCURVE",
"142 0 OFFCURVE",
"171 0 CURVE SMOOTH",
"265 0 LINE"
);
},
{
closed = 1;
nodes = (
"260 0 LINE",
"350 0 LINE SMOOTH",
"379 0 OFFCURVE",
"397 22 OFFCURVE",
"401 51 CURVE SMOOTH",
"461 480 LINE SMOOTH",
"463 491 OFFCURVE",
"452 500 OFFCURVE",
"441 500 CURVE SMOOTH",
"400 500 LINE SMOOTH",
"389 500 OFFCURVE",
"382 491 OFFCURVE",
"380 480 CURVE SMOOTH",
"320 61 LINE SMOOTH",
"318 50 OFFCURVE",
"311 41 OFFCURVE",
"300 41 CURVE SMOOTH",
"260 41 LINE"
);
},
{
closed = 1;
nodes = (
"232 -200 LINE",
"322 -200 LINE SMOOTH",
"351 -200 OFFCURVE",
"369 -178 OFFCURVE",
"373 -149 CURVE SMOOTH",
"433 280 LINE SMOOTH",
"435 291 OFFCURVE",
"424 300 OFFCURVE",
"413 300 CURVE SMOOTH",
"372 300 LINE SMOOTH",
"361 300 OFFCURVE",
"354 291 OFFCURVE",
"352 280 CURVE SMOOTH",
"292 -139 LINE SMOOTH",
"290 -150 OFFCURVE",
"283 -159 OFFCURVE",
"272 -159 CURVE SMOOTH",
"232 -159 LINE"
);
}
);
width = 521;
}
);
unicode = 0079;
},
{
glyphname = z;
lastChange = "2020-08-10 01:56:02 +0000";
layers = (
{
layerId = "A36D14D1-FF07-4574-A62D-30DF65569781";
paths = (
{
closed = 1;
nodes = (
"311 78 LINE",
"311 61 LINE SMOOTH",
"311 50 OFFCURVE",
"302 41 OFFCURVE",
"291 41 CURVE SMOOTH",
"172 41 LINE SMOOTH",
"161 41 OFFCURVE",
"146 50 OFFCURVE",
"152 61 CURVE SMOOTH",
"376 472 LINE SMOOTH",
"382 483 OFFCURVE",
"373 500 OFFCURVE",
"362 500 CURVE SMOOTH",
"321 500 LINE SMOOTH",
"310 500 OFFCURVE",
"307 491 OFFCURVE",
"301 480 CURVE SMOOTH",
"71 51 LINE SMOOTH",
"56 22 OFFCURVE",
"93 0 OFFCURVE",
"122 0 CURVE SMOOTH",
"341 0 LINE SMOOTH",
"370 0 OFFCURVE",
"392 22 OFFCURVE",
"392 51 CURVE SMOOTH",
"392 76 LINE"
);
},
{
closed = 1;
nodes = (
"362 501 CURVE",
"100 501 LINE SMOOTH",
"71 501 OFFCURVE",
"49 479 OFFCURVE",
"49 450 CURVE SMOOTH",
"49 425 LINE",
"130 423 LINE",
"130 440 LINE SMOOTH",
"130 451 OFFCURVE",
"139 460 OFFCURVE",
"150 460 CURVE SMOOTH",
"338 456 LINE SMOOTH",
"360 456 OFFCURVE",
"362 479 OFFCURVE"
);
}
);
width = 452;
}
);
unicode = 007A;
},
{
glyphname = ordfeminine;
lastChange = "2020-08-12 05:57:25 +0000";
layers = (
{
layerId = "A36D14D1-FF07-4574-A62D-30DF65569781";
paths = (
{
closed = 1;
nodes = (
"198 430 OFFCURVE",
"237 443 OFFCURVE",
"261 463 OFFCURVE",
"272 488 OFFCURVE",
"272 499 QCURVE SMOOTH",
"272 546 LINE",
"256 536 OFFCURVE",
"200 528 OFFCURVE",
"172 523 QCURVE SMOOTH",
"145 518 OFFCURVE",
"108 497 OFFCURVE",
"108 471 QCURVE SMOOTH",
"108 445 OFFCURVE",
"145 430 OFFCURVE",
"170 430 QCURVE",
"170 430 LINE"
);
},
{
closed = 1;
nodes = (
"332 444 OFFCURVE",
"338 430 OFFCURVE",
"346 430 QCURVE SMOOTH",
"357 430 LINE SMOOTH",
"362 430 OFFCURVE",
"368 432 QCURVE",
"368 388 LINE",
"358 384 OFFCURVE",
"338 380 OFFCURVE",
"325 380 QCURVE SMOOTH",
"277 380 OFFCURVE",
"274 426 QCURVE",
"231 380 OFFCURVE",
"157 380 QCURVE SMOOTH",
"133 380 OFFCURVE",
"91 390 OFFCURVE",
"59 412 OFFCURVE",
"40 446 OFFCURVE",
"40 469 QCURVE SMOOTH",
"40 495 OFFCURVE",
"61 531 OFFCURVE",
"95 554 OFFCURVE",
"138 566 OFFCURVE",
"160 568 QCURVE SMOOTH",
"195 572 OFFCURVE",
"240 578 OFFCURVE",
"265 587 OFFCURVE",
"275 600 OFFCURVE",
"275 610 QCURVE SMOOTH",
"275 627 OFFCURVE",
"262 646 OFFCURVE",
"240 656 OFFCURVE",
"212 659 OFFCURVE",
"198 659 QCURVE SMOOTH",
"162 659 OFFCURVE",
"117 635 OFFCURVE",
"115 603 QCURVE",
"55 603 LINE",
"56 632 OFFCURVE",
"81 672 OFFCURVE",
"121 698 OFFCURVE",
"174 709 OFFCURVE",
"202 709 QCURVE SMOOTH",
"225 709 OFFCURVE",
"271 702 OFFCURVE",
"308 683 OFFCURVE",
"332 649 OFFCURVE",
"332 622 QCURVE SMOOTH",
"332 462 LINE",
"332 462 LINE"
);
}
);
userData = {
assembly = "PUSHW[ ]	/* 1 value pushed */\01264 \012MDAP[1]	/* MoveDirectAbsPt */\012PUSHW[ ]	/* 3 values pushed */\01216 9 3 \012CALL[ ]	/* CallFunction */\012PUSHW[ ]	/* 1 value pushed */\01216 \012SRP0[ ]	/* SetRefPoint0 */\012PUSHW[ ]	/* 1 value pushed */\01264 \012SRP0[ ]	/* SetRefPoint0 */\012PUSHW[ ]	/* 1 value pushed */\01245 \012MDRP[10000]	/* MoveDirectRelPt */\012PUSHW[ ]	/* 1 value pushed */\01245 \012MDAP[1]	/* MoveDirectAbsPt */\012PUSHW[ ]	/* 1 value pushed */\0123 \012MDRP[11100]	/* MoveDirectRelPt */\012NPUSHW[ ]	/* 27 values pushed */\0126 3 22 3 38 3 54 3 70 3 86 3 102 3 118 3 134 3 150 3 166 3 182 3 198 3 13 \012DELTAP1[ ]	/* DeltaExceptionP1 */\012NPUSHW[ ]	/* 5 values pushed */\012213 3 229 3 2 \012DELTAP1[ ]	/* DeltaExceptionP1 */\012PUSHW[ ]	/* 1 value pushed */\01227 \012MDRP[10000]	/* MoveDirectRelPt */\012PUSHW[ ]	/* 1 value pushed */\01227 \012MDAP[1]	/* MoveDirectAbsPt */\012PUSHW[ ]	/* 1 value pushed */\0129 \012SRP0[ ]	/* SetRefPoint0 */\012PUSHW[ ]	/* 1 value pushed */\01235 \012MDRP[10000]	/* MoveDirectRelPt */\012PUSHW[ ]	/* 1 value pushed */\01235 \012MDAP[1]	/* MoveDirectAbsPt */\012PUSHW[ ]	/* 1 value pushed */\0129 \012SRP0[ ]	/* SetRefPoint0 */\012PUSHW[ ]	/* 1 value pushed */\01252 \012MDRP[10000]	/* MoveDirectRelPt */\012PUSHW[ ]	/* 1 value pushed */\01252 \012MDAP[1]	/* MoveDirectAbsPt */\012PUSHW[ ]	/* 1 value pushed */\01216 \012SRP0[ ]	/* SetRefPoint0 */\012PUSHW[ ]	/* 1 value pushed */\01254 \012MDRP[10000]	/* MoveDirectRelPt */\012PUSHW[ ]	/* 1 value pushed */\01254 \012MDAP[1]	/* MoveDirectAbsPt */\012SVTCA[0]	/* SetFreedomAndProjectionVectorToAxis */\012PUSHW[ ]	/* 3 values pushed */\0120 50 3 \012CALL[ ]	/* CallFunction */\012PUSHW[ ]	/* 1 value pushed */\0120 \012SRP0[ ]	/* SetRefPoint0 */\012PUSHW[ ]	/* 3 values pushed */\01221 30 3 \012CALL[ ]	/* CallFunction */\012PUSHW[ ]	/* 1 value pushed */\01221 \012SRP0[ ]	/* SetRefPoint0 */\012PUSHW[ ]	/* 1 value pushed */\01250 \012SRP0[ ]	/* SetRefPoint0 */\012PUSHW[ ]	/* 1 value pushed */\01240 \012MDRP[11100]	/* MoveDirectRelPt */\012PUSHW[ ]	/* 3 values pushed */\0129 50 40 \012SRP1[ ]	/* SetRefPoint1 */\012SRP2[ ]	/* SetRefPoint2 */\012IP[ ]	/* InterpolatePts */\012PUSHW[ ]	/* 3 values pushed */\01252 50 0 \012SRP1[ ]	/* SetRefPoint1 */\012SRP2[ ]	/* SetRefPoint2 */\012IP[ ]	/* InterpolatePts */\012PUSHW[ ]	/* 1 value pushed */\01250 \012SRP0[ ]	/* SetRefPoint0 */\012PUSHW[ ]	/* 1 value pushed */\01254 \012MDRP[10000]	/* MoveDirectRelPt */\012PUSHW[ ]	/* 3 values pushed */\01258 50 40 \012SRP1[ ]	/* SetRefPoint1 */\012SRP2[ ]	/* SetRefPoint2 */\012IP[ ]	/* InterpolatePts */\012PUSHW[ ]	/* 1 value pushed */\0120 \012SRP0[ ]	/* SetRefPoint0 */\012PUSHW[ ]	/* 1 value pushed */\01260 \012MDRP[10000]	/* MoveDirectRelPt */\012IUP[0]	/* InterpolateUntPts */\012IUP[1]	/* InterpolateUntPts */";
};
width = 408;
}
);
note = ordfeminine;
unicode = 00AA;
},
{
glyphname = ordmasculine;
lastChange = "2020-08-12 05:57:25 +0000";
layers = (
{
layerId = "A36D14D1-FF07-4574-A62D-30DF65569781";
paths = (
{
closed = 1;
nodes = (
"165 659 OFFCURVE",
"108 603 OFFCURVE",
"108 543 QCURVE SMOOTH",
"108 521 OFFCURVE",
"119 480 OFFCURVE",
"143 448 OFFCURVE",
"181 430 OFFCURVE",
"208 430 QCURVE SMOOTH",
"235 430 OFFCURVE",
"272 448 OFFCURVE",
"295 479 OFFCURVE",
"306 520 OFFCURVE",
"306 542 QCURVE SMOOTH",
"306 578 OFFCURVE",
"287 624 OFFCURVE",
"258 650 OFFCURVE",
"223 659 OFFCURVE",
"207 659 QCURVE",
"207 659 LINE"
);
},
{
closed = 1;
nodes = (
"248 709 OFFCURVE",
"310 684 OFFCURVE",
"352 639 OFFCURVE",
"374 578 OFFCURVE",
"374 543 QCURVE SMOOTH",
"374 471 OFFCURVE",
"290 380 OFFCURVE",
"208 380 QCURVE SMOOTH",
"168 380 OFFCURVE",
"106 404 OFFCURVE",
"63 448 OFFCURVE",
"40 507 OFFCURVE",
"40 543 QCURVE SMOOTH",
"40 578 OFFCURVE",
"62 638 OFFCURVE",
"104 683 OFFCURVE",
"167 709 OFFCURVE",
"207 709 QCURVE",
"207 709 LINE"
);
}
);
userData = {
assembly = "PUSHW[ ]	/* 1 value pushed */\01236 \012MDAP[1]	/* MoveDirectAbsPt */\012PUSHW[ ]	/* 1 value pushed */\01237 \012MDAP[1]	/* MoveDirectAbsPt */\012PUSHW[ ]	/* 1 value pushed */\01231 \012MDRP[11100]	/* MoveDirectRelPt */\012PUSHW[ ]	/* 1 value pushed */\0125 \012MDRP[11100]	/* MoveDirectRelPt */\012NPUSHW[ ]	/* 5 values pushed */\012218 5 234 5 2 \012DELTAP1[ ]	/* DeltaExceptionP1 */\012NPUSHW[ ]	/* 27 values pushed */\0129 5 25 5 41 5 57 5 73 5 89 5 105 5 121 5 137 5 153 5 169 5 185 5 201 5 13 \012DELTAP1[ ]	/* DeltaExceptionP1 */\012PUSHW[ ]	/* 1 value pushed */\01236 \012SRP0[ ]	/* SetRefPoint0 */\012PUSHW[ ]	/* 1 value pushed */\01223 \012MDRP[10000]	/* MoveDirectRelPt */\012PUSHW[ ]	/* 1 value pushed */\01223 \012MDAP[1]	/* MoveDirectAbsPt */\012PUSHW[ ]	/* 1 value pushed */\01215 \012MDRP[11100]	/* MoveDirectRelPt */\012NPUSHW[ ]	/* 27 values pushed */\0126 15 22 15 38 15 54 15 70 15 86 15 102 15 118 15 134 15 150 15 166 15 182 15 198 15 13 \012DELTAP1[ ]	/* DeltaExceptionP1 */\012NPUSHW[ ]	/* 5 values pushed */\012213 15 229 15 2 \012DELTAP1[ ]	/* DeltaExceptionP1 */\012SVTCA[0]	/* SetFreedomAndProjectionVectorToAxis */\012PUSHW[ ]	/* 3 values pushed */\01210 28 3 \012CALL[ ]	/* CallFunction */\012PUSHW[ ]	/* 1 value pushed */\01210 \012SRP0[ ]	/* SetRefPoint0 */\012PUSHW[ ]	/* 3 values pushed */\01218 0 3 \012CALL[ ]	/* CallFunction */\012PUSHW[ ]	/* 1 value pushed */\01218 \012SRP0[ ]	/* SetRefPoint0 */\012IUP[0]	/* InterpolateUntPts */\012IUP[1]	/* InterpolateUntPts */";
};
width = 414;
}
);
note = ordmasculine;
unicode = 00BA;
},
{
glyphname = uni01BB;
lastChange = "2020-08-12 05:57:25 +0000";
layers = (
{
layerId = "A36D14D1-FF07-4574-A62D-30DF65569781";
paths = (
{
closed = 1;
nodes = (
"110 224 OFFCURVE",
"45 90 OFFCURVE",
"40 0 QCURVE",
"520 0 LINE",
"520 83 LINE",
"138 83 LINE",
"151 135 OFFCURVE",
"199 177 QCURVE SMOOTH",
"227 201 OFFCURVE",
"275 228 QCURVE SMOOTH",
"341 265 LINE SMOOTH",
"430 314 OFFCURVE",
"464 349 QCURVE SMOOTH",
"523 408 OFFCURVE",
"523 492 QCURVE SMOOTH",
"523 572 OFFCURVE",
"412 702 OFFCURVE",
"292 702 QCURVE SMOOTH",
"148 702 OFFCURVE",
"90 600 QCURVE SMOOTH",
"58 542 OFFCURVE",
"57 451 QCURVE",
"146 451 LINE",
"148 516 OFFCURVE",
"167 553 QCURVE SMOOTH",
"201 621 OFFCURVE",
"292 621 QCURVE SMOOTH",
"353 621 OFFCURVE",
"426 549 OFFCURVE",
"426 488 QCURVE SMOOTH",
"426 436 OFFCURVE",
"386 396 QCURVE SMOOTH",
"360 370 OFFCURVE",
"298 333 QCURVE SMOOTH",
"204 279 LINE",
"204 279 LINE"
);
},
{
closed = 1;
nodes = (
"546 310 LINE",
"546 379 LINE",
"68 379 LINE",
"68 310 LINE",
"68 310 LINE"
);
}
);
userData = {
assembly = "PUSHW[ ]	/* 1 value pushed */\01220 \012CALL[ ]	/* CallFunction */\012PUSHW[ ]	/* 4 values pushed */\01220 3 5 24 \012CALL[ ]	/* CallFunction */\012PUSHW[ ]	/* 1 value pushed */\01220 \012SRP0[ ]	/* SetRefPoint0 */\012PUSHW[ ]	/* 1 value pushed */\01230 \012MDRP[10000]	/* MoveDirectRelPt */\012PUSHW[ ]	/* 1 value pushed */\01230 \012MDAP[1]	/* MoveDirectAbsPt */\012SVTCA[0]	/* SetFreedomAndProjectionVectorToAxis */\012PUSHW[ ]	/* 1 value pushed */\0121 \012RCVT[ ]	/* ReadCVT */\012IF[ ]	/* If */\012PUSHW[ ]	/* 1 value pushed */\01231 \012MDAP[1]	/* MoveDirectAbsPt */\012ELSE[ ]	/* Else */\012PUSHW[ ]	/* 2 values pushed */\01231 4 \012MIAP[0]	/* MoveIndirectAbsPt */\012EIF[ ]	/* EndIf */\012PUSHW[ ]	/* 4 values pushed */\01217 2 8 24 \012CALL[ ]	/* CallFunction */\012PUSHW[ ]	/* 4 values pushed */\01236 2 35 24 \012CALL[ ]	/* CallFunction */\012PUSHW[ ]	/* 1 value pushed */\01231 \012SRP0[ ]	/* SetRefPoint0 */\012PUSHW[ ]	/* 2 values pushed */\01229 2 \012MIRP[10100]	/* MoveIndirectRelPt */\012IUP[0]	/* InterpolateUntPts */\012IUP[1]	/* InterpolateUntPts */";
};
width = 586;
}
);
note = uni01BB;
unicode = 01BB;
},
{
glyphname = uni01C0;
lastChange = "2020-08-10 01:56:02 +0000";
layers = (
{
layerId = "A36D14D1-FF07-4574-A62D-30DF65569781";
paths = (
{
closed = 1;
nodes = (
"143 728 LINE",
"60 728 LINE",
"60 0 LINE",
"143 0 LINE",
"143 0 LINE"
);
}
);
userData = {
assembly = "PUSHW[ ]	/* 1 value pushed */\01220 \012CALL[ ]	/* CallFunction */\012PUSHW[ ]	/* 4 values pushed */\0120 3 1 24 \012CALL[ ]	/* CallFunction */\012SVTCA[0]	/* SetFreedomAndProjectionVectorToAxis */\012PUSHW[ ]	/* 1 value pushed */\0121 \012RCVT[ ]	/* ReadCVT */\012IF[ ]	/* If */\012PUSHW[ ]	/* 1 value pushed */\0122 \012MDAP[1]	/* MoveDirectAbsPt */\012ELSE[ ]	/* Else */\012PUSHW[ ]	/* 2 values pushed */\0122 10 \012MIAP[0]	/* MoveIndirectAbsPt */\012EIF[ ]	/* EndIf */\012PUSHW[ ]	/* 1 value pushed */\0121 \012RCVT[ ]	/* ReadCVT */\012IF[ ]	/* If */\012PUSHW[ ]	/* 1 value pushed */\0120 \012MDAP[1]	/* MoveDirectAbsPt */\012ELSE[ ]	/* Else */\012PUSHW[ ]	/* 2 values pushed */\0120 4 \012MIAP[0]	/* MoveIndirectAbsPt */\012EIF[ ]	/* EndIf */\012IUP[0]	/* InterpolateUntPts */\012IUP[1]	/* InterpolateUntPts */";
};
width = 203;
}
);
note = uni01C0;
unicode = 01C0;
},
{
glyphname = uni01C1;
lastChange = "2020-08-10 01:56:02 +0000";
layers = (
{
layerId = "A36D14D1-FF07-4574-A62D-30DF65569781";
paths = (
{
closed = 1;
nodes = (
"143 728 LINE",
"60 728 LINE",
"60 0 LINE",
"143 0 LINE",
"143 0 LINE"
);
},
{
closed = 1;
nodes = (
"314 728 LINE",
"231 728 LINE",
"231 0 LINE",
"314 0 LINE",
"314 0 LINE"
);
}
);
userData = {
assembly = "PUSHW[ ]	/* 1 value pushed */\01220 \012CALL[ ]	/* CallFunction */\012PUSHW[ ]	/* 1 value pushed */\0128 \012MDAP[1]	/* MoveDirectAbsPt */\012PUSHW[ ]	/* 1 value pushed */\0125 \012MDAP[1]	/* MoveDirectAbsPt */\012PUSHW[ ]	/* 1 value pushed */\0128 \012SRP0[ ]	/* SetRefPoint0 */\012PUSHW[ ]	/* 1 value pushed */\0121 \012MDRP[10000]	/* MoveDirectRelPt */\012PUSHW[ ]	/* 1 value pushed */\0121 \012MDAP[1]	/* MoveDirectAbsPt */\012PUSHW[ ]	/* 2 values pushed */\0120 3 \012MIRP[10100]	/* MoveIndirectRelPt */\012PUSHW[ ]	/* 1 value pushed */\0125 \012SRP0[ ]	/* SetRefPoint0 */\012PUSHW[ ]	/* 2 values pushed */\0124 3 \012MIRP[10100]	/* MoveIndirectRelPt */\012SVTCA[0]	/* SetFreedomAndProjectionVectorToAxis */\012PUSHW[ ]	/* 1 value pushed */\0121 \012RCVT[ ]	/* ReadCVT */\012IF[ ]	/* If */\012PUSHW[ ]	/* 1 value pushed */\0122 \012MDAP[1]	/* MoveDirectAbsPt */\012ELSE[ ]	/* Else */\012PUSHW[ ]	/* 2 values pushed */\0122 10 \012MIAP[0]	/* MoveIndirectAbsPt */\012EIF[ ]	/* EndIf */\012PUSHW[ ]	/* 1 value pushed */\0121 \012RCVT[ ]	/* ReadCVT */\012IF[ ]	/* If */\012PUSHW[ ]	/* 1 value pushed */\0126 \012MDAP[1]	/* MoveDirectAbsPt */\012ELSE[ ]	/* Else */\012PUSHW[ ]	/* 2 values pushed */\0126 10 \012MIAP[0]	/* MoveIndirectAbsPt */\012EIF[ ]	/* EndIf */\012PUSHW[ ]	/* 1 value pushed */\0121 \012RCVT[ ]	/* ReadCVT */\012IF[ ]	/* If */\012PUSHW[ ]	/* 1 value pushed */\0120 \012MDAP[1]	/* MoveDirectAbsPt */\012ELSE[ ]	/* Else */\012PUSHW[ ]	/* 2 values pushed */\0120 4 \012MIAP[0]	/* MoveIndirectAbsPt */\012EIF[ ]	/* EndIf */\012PUSHW[ ]	/* 1 value pushed */\0121 \012RCVT[ ]	/* ReadCVT */\012IF[ ]	/* If */\012PUSHW[ ]	/* 1 value pushed */\0124 \012MDAP[1]	/* MoveDirectAbsPt */\012ELSE[ ]	/* Else */\012PUSHW[ ]	/* 2 values pushed */\0124 4 \012MIAP[0]	/* MoveIndirectAbsPt */\012EIF[ ]	/* EndIf */\012IUP[0]	/* InterpolateUntPts */\012IUP[1]	/* InterpolateUntPts */";
};
width = 374;
}
);
note = uni01C1;
unicode = 01C1;
},
{
glyphname = uni01C2;
lastChange = "2020-08-12 05:57:25 +0000";
layers = (
{
layerId = "A36D14D1-FF07-4574-A62D-30DF65569781";
paths = (
{
closed = 1;
nodes = (
"331 489 LINE",
"331 728 LINE",
"248 728 LINE",
"248 489 LINE",
"40 489 LINE",
"40 407 LINE",
"248 407 LINE",
"248 280 LINE",
"40 280 LINE",
"40 196 LINE",
"248 196 LINE",
"248 0 LINE",
"331 0 LINE",
"331 196 LINE",
"549 196 LINE",
"549 280 LINE",
"331 280 LINE",
"331 407 LINE",
"549 407 LINE",
"549 489 LINE",
"549 489 LINE"
);
}
);
userData = {
assembly = "PUSHW[ ]	/* 1 value pushed */\01220 \012CALL[ ]	/* CallFunction */\012PUSHW[ ]	/* 4 values pushed */\0127 3 8 24 \012CALL[ ]	/* CallFunction */\012PUSHW[ ]	/* 1 value pushed */\0127 \012SRP0[ ]	/* SetRefPoint0 */\012PUSHW[ ]	/* 1 value pushed */\0122 \012MDRP[10000]	/* MoveDirectRelPt */\012PUSHW[ ]	/* 1 value pushed */\0128 \012SRP0[ ]	/* SetRefPoint0 */\012PUSHW[ ]	/* 1 value pushed */\01212 \012MDRP[10000]	/* MoveDirectRelPt */\012PUSHW[ ]	/* 1 value pushed */\0128 \012SRP0[ ]	/* SetRefPoint0 */\012PUSHW[ ]	/* 1 value pushed */\01216 \012MDRP[10000]	/* MoveDirectRelPt */\012PUSHW[ ]	/* 1 value pushed */\0127 \012SRP0[ ]	/* SetRefPoint0 */\012PUSHW[ ]	/* 1 value pushed */\01218 \012MDRP[10000]	/* MoveDirectRelPt */\012SVTCA[0]	/* SetFreedomAndProjectionVectorToAxis */\012PUSHW[ ]	/* 1 value pushed */\0121 \012RCVT[ ]	/* ReadCVT */\012IF[ ]	/* If */\012PUSHW[ ]	/* 1 value pushed */\01217 \012MDAP[1]	/* MoveDirectAbsPt */\012ELSE[ ]	/* Else */\012PUSHW[ ]	/* 2 values pushed */\01217 10 \012MIAP[0]	/* MoveIndirectAbsPt */\012EIF[ ]	/* EndIf */\012PUSHW[ ]	/* 1 value pushed */\0121 \012RCVT[ ]	/* ReadCVT */\012IF[ ]	/* If */\012PUSHW[ ]	/* 1 value pushed */\0127 \012MDAP[1]	/* MoveDirectAbsPt */\012ELSE[ ]	/* Else */\012PUSHW[ ]	/* 2 values pushed */\0127 4 \012MIAP[0]	/* MoveIndirectAbsPt */\012EIF[ ]	/* EndIf */\012PUSHW[ ]	/* 4 values pushed */\0124 2 5 24 \012CALL[ ]	/* CallFunction */\012PUSHW[ ]	/* 4 values pushed */\0120 2 1 24 \012CALL[ ]	/* CallFunction */\012PUSHW[ ]	/* 1 value pushed */\0125 \012SRP0[ ]	/* SetRefPoint0 */\012PUSHW[ ]	/* 1 value pushed */\0129 \012MDRP[10000]	/* MoveDirectRelPt */\012PUSHW[ ]	/* 1 value pushed */\0124 \012SRP0[ ]	/* SetRefPoint0 */\012PUSHW[ ]	/* 1 value pushed */\01211 \012MDRP[10000]	/* MoveDirectRelPt */\012PUSHW[ ]	/* 1 value pushed */\0121 \012SRP0[ ]	/* SetRefPoint0 */\012PUSHW[ ]	/* 1 value pushed */\01213 \012MDRP[10000]	/* MoveDirectRelPt */\012PUSHW[ ]	/* 1 value pushed */\0120 \012SRP0[ ]	/* SetRefPoint0 */\012PUSHW[ ]	/* 1 value pushed */\01215 \012MDRP[10000]	/* MoveDirectRelPt */\012IUP[0]	/* InterpolateUntPts */\012IUP[1]	/* InterpolateUntPts */";
};
width = 589;
}
);
note = uni01C2;
unicode = 01C2;
},
{
glyphname = uni01C3;
lastChange = "2020-08-10 01:56:02 +0000";
layers = (
{
layerId = "A36D14D1-FF07-4574-A62D-30DF65569781";
paths = (
{
closed = 1;
nodes = (
"60 481 LINE",
"86 171 LINE",
"135 171 LINE",
"159 481 LINE",
"159 717 LINE",
"60 717 LINE",
"60 717 LINE"
);
},
{
closed = 1;
nodes = (
"60 0 LINE",
"157 0 LINE",
"157 102 LINE",
"60 102 LINE",
"60 102 LINE"
);
}
);
userData = {
assembly = "PUSHW[ ]	/* 1 value pushed */\01220 \012CALL[ ]	/* CallFunction */\012PUSHW[ ]	/* 4 values pushed */\0121 3 0 24 \012CALL[ ]	/* CallFunction */\012PUSHW[ ]	/* 1 value pushed */\0120 \012SRP0[ ]	/* SetRefPoint0 */\012PUSHW[ ]	/* 1 value pushed */\0126 \012MDRP[10000]	/* MoveDirectRelPt */\012PUSHW[ ]	/* 1 value pushed */\0121 \012SRP0[ ]	/* SetRefPoint0 */\012PUSHW[ ]	/* 1 value pushed */\0127 \012MDRP[10000]	/* MoveDirectRelPt */\012PUSHW[ ]	/* 1 value pushed */\0127 \012MDAP[1]	/* MoveDirectAbsPt */\012SVTCA[0]	/* SetFreedomAndProjectionVectorToAxis */\012PUSHW[ ]	/* 1 value pushed */\0121 \012RCVT[ ]	/* ReadCVT */\012IF[ ]	/* If */\012PUSHW[ ]	/* 1 value pushed */\0120 \012MDAP[1]	/* MoveDirectAbsPt */\012ELSE[ ]	/* Else */\012PUSHW[ ]	/* 2 values pushed */\0120 10 \012MIAP[0]	/* MoveIndirectAbsPt */\012EIF[ ]	/* EndIf */\012PUSHW[ ]	/* 1 value pushed */\0121 \012RCVT[ ]	/* ReadCVT */\012IF[ ]	/* If */\012PUSHW[ ]	/* 1 value pushed */\0128 \012MDAP[1]	/* MoveDirectAbsPt */\012ELSE[ ]	/* Else */\012PUSHW[ ]	/* 2 values pushed */\0128 4 \012MIAP[0]	/* MoveIndirectAbsPt */\012EIF[ ]	/* EndIf */\012PUSHW[ ]	/* 2 values pushed */\0126 2 \012MIRP[10100]	/* MoveIndirectRelPt */\012IUP[0]	/* InterpolateUntPts */\012IUP[1]	/* InterpolateUntPts */";
};
width = 219;
}
);
note = uni01C3;
unicode = 01C3;
},
{
glyphname = uni02B0;
lastChange = "2020-08-12 05:57:25 +0000";
layers = (
{
layerId = "A36D14D1-FF07-4574-A62D-30DF65569781";
paths = (
{
closed = 1;
nodes = (
"40 356 LINE",
"84 356 LINE",
"84 495 LINE SMOOTH",
"84 547 OFFCURVE",
"129 585 OFFCURVE",
"156 585 QCURVE SMOOTH",
"189 585 OFFCURVE",
"201 563 QCURVE SMOOTH",
"208 550 OFFCURVE",
"208 521 QCURVE SMOOTH",
"208 356 LINE",
"254 356 LINE",
"254 524 LINE SMOOTH",
"254 563 OFFCURVE",
"242 584 QCURVE SMOOTH",
"222 625 OFFCURVE",
"165 625 QCURVE SMOOTH",
"133 625 OFFCURVE",
"112 610 QCURVE SMOOTH",
"100 603 OFFCURVE",
"84 583 QCURVE",
"84 716 LINE",
"40 716 LINE",
"40 716 LINE"
);
}
);
userData = {
assembly = "PUSHW[ ]	/* 1 value pushed */\01220 \012CALL[ ]	/* CallFunction */\012PUSHW[ ]	/* 1 value pushed */\01223 \012MDAP[1]	/* MoveDirectAbsPt */\012PUSHW[ ]	/* 1 value pushed */\01212 \012MDAP[1]	/* MoveDirectAbsPt */\012PUSHW[ ]	/* 1 value pushed */\01223 \012SRP0[ ]	/* SetRefPoint0 */\012PUSHW[ ]	/* 1 value pushed */\0120 \012MDRP[10000]	/* MoveDirectRelPt */\012PUSHW[ ]	/* 1 value pushed */\0120 \012MDAP[1]	/* MoveDirectAbsPt */\012PUSHW[ ]	/* 1 value pushed */\0121 \012MDRP[11100]	/* MoveDirectRelPt */\012PUSHW[ ]	/* 1 value pushed */\01212 \012SRP0[ ]	/* SetRefPoint0 */\012PUSHW[ ]	/* 2 values pushed */\01211 3 \012MIRP[10100]	/* MoveIndirectRelPt */\012PUSHW[ ]	/* 1 value pushed */\01212 \012SRP0[ ]	/* SetRefPoint0 */\012PUSHW[ ]	/* 1 value pushed */\01215 \012MDRP[10000]	/* MoveDirectRelPt */\012PUSHW[ ]	/* 1 value pushed */\01215 \012MDAP[1]	/* MoveDirectAbsPt */\012PUSHW[ ]	/* 1 value pushed */\0121 \012SRP0[ ]	/* SetRefPoint0 */\012PUSHW[ ]	/* 1 value pushed */\01220 \012MDRP[10000]	/* MoveDirectRelPt */\012SVTCA[0]	/* SetFreedomAndProjectionVectorToAxis */\012PUSHW[ ]	/* 1 value pushed */\01211 \012MDAP[1]	/* MoveDirectAbsPt */\012PUSHW[ ]	/* 1 value pushed */\01221 \012MDAP[1]	/* MoveDirectAbsPt */\012PUSHW[ ]	/* 1 value pushed */\0121 \012RCVT[ ]	/* ReadCVT */\012IF[ ]	/* If */\012PUSHW[ ]	/* 1 value pushed */\0120 \012MDAP[1]	/* MoveDirectAbsPt */\012ELSE[ ]	/* Else */\012PUSHW[ ]	/* 2 values pushed */\0120 10 \012MIAP[0]	/* MoveIndirectAbsPt */\012EIF[ ]	/* EndIf */\012PUSHW[ ]	/* 4 values pushed */\0126 2 17 24 \012CALL[ ]	/* CallFunction */\012IUP[0]	/* InterpolateUntPts */\012IUP[1]	/* InterpolateUntPts */";
};
width = 294;
}
);
note = uni02B0;
unicode = 02B0;
},
{
glyphname = uni02B1;
lastChange = "2020-08-12 05:57:25 +0000";
layers = (
{
layerId = "A36D14D1-FF07-4574-A62D-30DF65569781";
paths = (
{
closed = 1;
nodes = (
"125 732 LINE",
"118 732 OFFCURVE",
"111 733 OFFCURVE",
"108 733 QCURVE SMOOTH",
"65 733 OFFCURVE",
"49 709 QCURVE SMOOTH",
"40 695 OFFCURVE",
"40 667 QCURVE SMOOTH",
"40 555 LINE",
"40 555 LINE",
"40 356 LINE",
"84 356 LINE",
"84 495 LINE SMOOTH",
"84 547 OFFCURVE",
"129 585 OFFCURVE",
"156 585 QCURVE SMOOTH",
"189 585 OFFCURVE",
"201 563 QCURVE SMOOTH",
"208 550 OFFCURVE",
"208 521 QCURVE SMOOTH",
"208 356 LINE",
"254 356 LINE",
"254 524 LINE SMOOTH",
"254 563 OFFCURVE",
"242 584 QCURVE SMOOTH",
"222 625 OFFCURVE",
"165 625 QCURVE SMOOTH",
"133 625 OFFCURVE",
"112 610 QCURVE SMOOTH",
"100 603 OFFCURVE",
"84 583 QCURVE",
"84 638 LINE",
"84 638 LINE",
"84 662 LINE SMOOTH",
"84 684 OFFCURVE",
"96 693 OFFCURVE",
"125 694 QCURVE",
"125 694 LINE"
);
}
);
userData = {
assembly = "PUSHW[ ]	/* 1 value pushed */\01220 \012CALL[ ]	/* CallFunction */\012PUSHW[ ]	/* 1 value pushed */\01237 \012MDAP[1]	/* MoveDirectAbsPt */\012PUSHW[ ]	/* 1 value pushed */\01216 \012MDAP[1]	/* MoveDirectAbsPt */\012PUSHW[ ]	/* 1 value pushed */\01237 \012SRP0[ ]	/* SetRefPoint0 */\012PUSHW[ ]	/* 1 value pushed */\01226 \012MDRP[10000]	/* MoveDirectRelPt */\012PUSHW[ ]	/* 1 value pushed */\01226 \012MDAP[1]	/* MoveDirectAbsPt */\012PUSHW[ ]	/* 1 value pushed */\01225 \012MDRP[11100]	/* MoveDirectRelPt */\012PUSHW[ ]	/* 1 value pushed */\0123 \012MDRP[10000]	/* MoveDirectRelPt */\012PUSHW[ ]	/* 1 value pushed */\01225 \012SRP0[ ]	/* SetRefPoint0 */\012PUSHW[ ]	/* 1 value pushed */\0125 \012MDRP[10000]	/* MoveDirectRelPt */\012PUSHW[ ]	/* 1 value pushed */\01216 \012SRP0[ ]	/* SetRefPoint0 */\012PUSHW[ ]	/* 2 values pushed */\01215 3 \012MIRP[10100]	/* MoveIndirectRelPt */\012PUSHW[ ]	/* 1 value pushed */\01216 \012SRP0[ ]	/* SetRefPoint0 */\012PUSHW[ ]	/* 1 value pushed */\01219 \012MDRP[10000]	/* MoveDirectRelPt */\012PUSHW[ ]	/* 1 value pushed */\01219 \012MDAP[1]	/* MoveDirectAbsPt */\012PUSHW[ ]	/* 1 value pushed */\01226 \012SRP0[ ]	/* SetRefPoint0 */\012PUSHW[ ]	/* 1 value pushed */\01228 \012MDRP[10000]	/* MoveDirectRelPt */\012SVTCA[0]	/* SetFreedomAndProjectionVectorToAxis */\012PUSHW[ ]	/* 1 value pushed */\01215 \012MDAP[1]	/* MoveDirectAbsPt */\012PUSHW[ ]	/* 1 value pushed */\01225 \012MDAP[1]	/* MoveDirectAbsPt */\012PUSHW[ ]	/* 1 value pushed */\0121 \012RCVT[ ]	/* ReadCVT */\012IF[ ]	/* If */\012PUSHW[ ]	/* 1 value pushed */\01233 \012MDAP[1]	/* MoveDirectAbsPt */\012ELSE[ ]	/* Else */\012PUSHW[ ]	/* 2 values pushed */\01233 10 \012MIAP[0]	/* MoveIndirectAbsPt */\012EIF[ ]	/* EndIf */\012PUSHW[ ]	/* 1 value pushed */\0121 \012RCVT[ ]	/* ReadCVT */\012IF[ ]	/* If */\012PUSHW[ ]	/* 1 value pushed */\01236 \012MDAP[1]	/* MoveDirectAbsPt */\012ELSE[ ]	/* Else */\012PUSHW[ ]	/* 2 values pushed */\01236 10 \012MIAP[0]	/* MoveIndirectAbsPt */\012EIF[ ]	/* EndIf */\012PUSHW[ ]	/* 2 values pushed */\01221 2 \012MIRP[10100]	/* MoveIndirectRelPt */\012PUSHW[ ]	/* 2 values pushed */\01210 2 \012MIRP[10100]	/* MoveIndirectRelPt */\012IUP[0]	/* InterpolateUntPts */\012IUP[1]	/* InterpolateUntPts */";
};
width = 294;
}
);
note = uni02B1;
unicode = 02B1;
},
{
glyphname = uni02B2;
lastChange = "2020-08-12 05:57:25 +0000";
layers = (
{
layerId = "A36D14D1-FF07-4574-A62D-30DF65569781";
paths = (
{
closed = 1;
nodes = (
"125 715 LINE",
"81 715 LINE",
"81 665 LINE",
"125 665 LINE",
"125 665 LINE"
);
},
{
closed = 1;
nodes = (
"40 252 LINE",
"47 251 OFFCURVE",
"54 251 OFFCURVE",
"58 251 QCURVE SMOOTH",
"101 251 OFFCURVE",
"116 275 QCURVE SMOOTH",
"125 289 OFFCURVE",
"125 317 QCURVE SMOOTH",
"125 617 LINE",
"81 617 LINE",
"81 322 LINE SMOOTH",
"81 300 OFFCURVE",
"70 291 OFFCURVE",
"40 290 QCURVE",
"40 290 LINE"
);
}
);
userData = {
assembly = "PUSHW[ ]	/* 1 value pushed */\01220 \012CALL[ ]	/* CallFunction */\012PUSHW[ ]	/* 3 values pushed */\0120 1 23 \012CALL[ ]	/* CallFunction */\012PUSHW[ ]	/* 1 value pushed */\0121 \012SRP0[ ]	/* SetRefPoint0 */\012PUSHW[ ]	/* 1 value pushed */\0127 \012MDRP[10000]	/* MoveDirectRelPt */\012PUSHW[ ]	/* 1 value pushed */\0120 \012SRP0[ ]	/* SetRefPoint0 */\012PUSHW[ ]	/* 1 value pushed */\0129 \012MDRP[10000]	/* MoveDirectRelPt */\012SVTCA[0]	/* SetFreedomAndProjectionVectorToAxis */\012PUSHW[ ]	/* 1 value pushed */\01214 \012MDAP[1]	/* MoveDirectAbsPt */\012PUSHW[ ]	/* 1 value pushed */\01217 \012MDAP[1]	/* MoveDirectAbsPt */\012PUSHW[ ]	/* 1 value pushed */\0121 \012RCVT[ ]	/* ReadCVT */\012IF[ ]	/* If */\012PUSHW[ ]	/* 1 value pushed */\0122 \012MDAP[1]	/* MoveDirectAbsPt */\012ELSE[ ]	/* Else */\012PUSHW[ ]	/* 2 values pushed */\0122 10 \012MIAP[0]	/* MoveIndirectAbsPt */\012EIF[ ]	/* EndIf */\012IUP[0]	/* InterpolateUntPts */\012IUP[1]	/* InterpolateUntPts */";
};
width = 165;
}
);
note = uni02B2;
unicode = 02B2;
},
{
glyphname = uni02B3;
lastChange = "2020-08-12 05:57:25 +0000";
layers = (
{
layerId = "A36D14D1-FF07-4574-A62D-30DF65569781";
paths = (
{
closed = 1;
nodes = (
"40 356 LINE",
"84 356 LINE",
"84 507 LINE SMOOTH",
"84 535 OFFCURVE",
"119 578 OFFCURVE",
"152 578 QCURVE SMOOTH",
"156 578 OFFCURVE",
"163 577 OFFCURVE",
"167 576 QCURVE",
"167 623 LINE",
"160 624 OFFCURVE",
"154 624 OFFCURVE",
"152 624 QCURVE SMOOTH",
"127 624 OFFCURVE",
"87 586 OFFCURVE",
"81 573 QCURVE",
"81 618 LINE",
"40 618 LINE",
"40 618 LINE"
);
}
);
userData = {
assembly = "PUSHW[ ]	/* 1 value pushed */\01220 \012CALL[ ]	/* CallFunction */\012PUSHW[ ]	/* 3 values pushed */\01215 0 23 \012CALL[ ]	/* CallFunction */\012PUSHW[ ]	/* 1 value pushed */\01215 \012SRP0[ ]	/* SetRefPoint0 */\012PUSHW[ ]	/* 1 value pushed */\0122 \012MDRP[10000]	/* MoveDirectRelPt */\012PUSHW[ ]	/* 1 value pushed */\0122 \012MDAP[1]	/* MoveDirectAbsPt */\012SVTCA[0]	/* SetFreedomAndProjectionVectorToAxis */\012PUSHW[ ]	/* 1 value pushed */\01216 \012MDAP[1]	/* MoveDirectAbsPt */\012PUSHW[ ]	/* 4 values pushed */\0125 2 12 24 \012CALL[ ]	/* CallFunction */\012PUSHW[ ]	/* 1 value pushed */\0125 \012SRP0[ ]	/* SetRefPoint0 */\012PUSHW[ ]	/* 1 value pushed */\0120 \012MDRP[10000]	/* MoveDirectRelPt */\012PUSHW[ ]	/* 1 value pushed */\0120 \012MDAP[1]	/* MoveDirectAbsPt */\012IUP[0]	/* InterpolateUntPts */\012IUP[1]	/* InterpolateUntPts */";
};
width = 207;
}
);
note = uni02B3;
unicode = 02B3;
},
{
glyphname = uni02B4;
lastChange = "2020-08-12 05:57:25 +0000";
layers = (
{
layerId = "A36D14D1-FF07-4574-A62D-30DF65569781";
paths = (
{
closed = 1;
nodes = (
"168 624 LINE",
"124 624 LINE",
"124 473 LINE SMOOTH",
"124 445 OFFCURVE",
"88 403 OFFCURVE",
"55 403 QCURVE SMOOTH",
"51 403 OFFCURVE",
"44 403 OFFCURVE",
"40 404 QCURVE",
"40 357 LINE",
"48 357 OFFCURVE",
"53 356 OFFCURVE",
"54 356 QCURVE SMOOTH",
"81 356 OFFCURVE",
"121 394 OFFCURVE",
"126 407 QCURVE",
"126 362 LINE",
"168 362 LINE",
"168 362 LINE"
);
}
);
userData = {
assembly = "PUSHW[ ]	/* 1 value pushed */\01220 \012CALL[ ]	/* CallFunction */\012PUSHW[ ]	/* 3 values pushed */\0120 15 23 \012CALL[ ]	/* CallFunction */\012PUSHW[ ]	/* 1 value pushed */\01215 \012SRP0[ ]	/* SetRefPoint0 */\012PUSHW[ ]	/* 1 value pushed */\0122 \012MDRP[10000]	/* MoveDirectRelPt */\012PUSHW[ ]	/* 1 value pushed */\0122 \012MDAP[1]	/* MoveDirectAbsPt */\012SVTCA[0]	/* SetFreedomAndProjectionVectorToAxis */\012PUSHW[ ]	/* 1 value pushed */\01216 \012MDAP[1]	/* MoveDirectAbsPt */\012PUSHW[ ]	/* 1 value pushed */\0120 \012MDAP[1]	/* MoveDirectAbsPt */\012PUSHW[ ]	/* 1 value pushed */\0125 \012MDAP[1]	/* MoveDirectAbsPt */\012PUSHW[ ]	/* 1 value pushed */\0128 \012MDAP[1]	/* MoveDirectAbsPt */\012PUSHW[ ]	/* 1 value pushed */\0125 \012SRP0[ ]	/* SetRefPoint0 */\012PUSHW[ ]	/* 1 value pushed */\0121 \012MDRP[10000]	/* MoveDirectRelPt */\012PUSHW[ ]	/* 1 value pushed */\0121 \012MDAP[1]	/* MoveDirectAbsPt */\012PUSHW[ ]	/* 1 value pushed */\0125 \012SRP0[ ]	/* SetRefPoint0 */\012PUSHW[ ]	/* 2 values pushed */\01212 2 \012MIRP[10100]	/* MoveIndirectRelPt */\012IUP[0]	/* InterpolateUntPts */\012IUP[1]	/* InterpolateUntPts */";
};
width = 208;
}
);
note = uni02B4;
unicode = 02B4;
},
{
glyphname = uni02B5;
lastChange = "2020-08-12 05:57:25 +0000";
layers = (
{
layerId = "A36D14D1-FF07-4574-A62D-30DF65569781";
paths = (
{
closed = 1;
nodes = (
"209 290 LINE",
"180 291 OFFCURVE",
"168 300 OFFCURVE",
"168 322 QCURVE SMOOTH",
"168 429 LINE",
"168 429 LINE",
"168 624 LINE",
"124 624 LINE",
"124 473 LINE SMOOTH",
"124 445 OFFCURVE",
"88 403 OFFCURVE",
"55 403 QCURVE SMOOTH",
"51 403 OFFCURVE",
"44 403 OFFCURVE",
"40 404 QCURVE",
"40 357 LINE",
"48 357 OFFCURVE",
"53 356 OFFCURVE",
"54 356 QCURVE SMOOTH",
"81 356 OFFCURVE",
"101 375 QCURVE SMOOTH",
"117 391 OFFCURVE",
"124 403 QCURVE",
"124 317 LINE SMOOTH",
"124 289 OFFCURVE",
"133 275 QCURVE SMOOTH",
"149 251 OFFCURVE",
"192 251 QCURVE SMOOTH",
"194 251 OFFCURVE",
"202 251 OFFCURVE",
"209 252 QCURVE",
"209 252 LINE"
);
}
);
userData = {
assembly = "PUSHW[ ]	/* 1 value pushed */\01220 \012CALL[ ]	/* CallFunction */\012PUSHW[ ]	/* 3 values pushed */\01227 7 23 \012CALL[ ]	/* CallFunction */\012PUSHW[ ]	/* 1 value pushed */\0127 \012SRP0[ ]	/* SetRefPoint0 */\012PUSHW[ ]	/* 1 value pushed */\01222 \012MDRP[10000]	/* MoveDirectRelPt */\012PUSHW[ ]	/* 1 value pushed */\01227 \012SRP0[ ]	/* SetRefPoint0 */\012PUSHW[ ]	/* 1 value pushed */\01224 \012MDRP[10000]	/* MoveDirectRelPt */\012SVTCA[0]	/* SetFreedomAndProjectionVectorToAxis */\012PUSHW[ ]	/* 1 value pushed */\01223 \012MDAP[1]	/* MoveDirectAbsPt */\012PUSHW[ ]	/* 1 value pushed */\0120 \012MDAP[1]	/* MoveDirectAbsPt */\012PUSHW[ ]	/* 1 value pushed */\0123 \012MDAP[1]	/* MoveDirectAbsPt */\012IUP[0]	/* InterpolateUntPts */\012IUP[1]	/* InterpolateUntPts */";
};
width = 249;
}
);
note = uni02B5;
unicode = 02B5;
},
{
glyphname = uni02B6;
lastChange = "2020-08-12 05:57:25 +0000";
layers = (
{
layerId = "A36D14D1-FF07-4574-A62D-30DF65569781";
paths = (
{
closed = 1;
nodes = (
"193 517 LINE SMOOTH",
"228 517 OFFCURVE",
"270 488 OFFCURVE",
"270 451 QCURVE SMOOTH",
"270 431 OFFCURVE",
"241 417 QCURVE SMOOTH",
"225 409 OFFCURVE",
"199 409 QCURVE SMOOTH",
"115 409 LINE",
"115 517 LINE",
"115 517 LINE"
);
},
{
closed = 1;
nodes = (
"45 346 LINE",
"217 346 LINE SMOOTH",
"260 346 OFFCURVE",
"288 359 QCURVE SMOOTH",
"340 382 OFFCURVE",
"340 446 QCURVE SMOOTH",
"340 479 OFFCURVE",
"312 522 OFFCURVE",
"288 535 QCURVE",
"309 554 OFFCURVE",
"331 583 OFFCURVE",
"333 605 QCURVE SMOOTH",
"334 655 LINE SMOOTH",
"335 676 OFFCURVE",
"338 687 QCURVE SMOOTH",
"342 704 OFFCURVE",
"354 709 QCURVE",
"354 717 LINE",
"273 717 LINE",
"271 712 OFFCURVE",
"267 697 OFFCURVE",
"266 676 QCURVE SMOOTH",
"263 614 LINE SMOOTH",
"261 587 OFFCURVE",
"236 575 QCURVE SMOOTH",
"222 568 OFFCURVE",
"191 568 QCURVE SMOOTH",
"115 568 LINE",
"115 717 LINE",
"45 717 LINE",
"45 717 LINE"
);
}
);
userData = {
assembly = "PUSHW[ ]	/* 1 value pushed */\01220 \012CALL[ ]	/* CallFunction */\012PUSHW[ ]	/* 1 value pushed */\01240 \012MDAP[1]	/* MoveDirectAbsPt */\012PUSHW[ ]	/* 1 value pushed */\01217 \012MDAP[1]	/* MoveDirectAbsPt */\012PUSHW[ ]	/* 1 value pushed */\01240 \012SRP0[ ]	/* SetRefPoint0 */\012PUSHW[ ]	/* 1 value pushed */\01210 \012MDRP[10000]	/* MoveDirectRelPt */\012PUSHW[ ]	/* 1 value pushed */\01210 \012MDAP[1]	/* MoveDirectAbsPt */\012PUSHW[ ]	/* 2 values pushed */\01211 3 \012MIRP[10100]	/* MoveIndirectRelPt */\012PUSHW[ ]	/* 1 value pushed */\0120 \012MDRP[10000]	/* MoveDirectRelPt */\012PUSHW[ ]	/* 1 value pushed */\01217 \012SRP0[ ]	/* SetRefPoint0 */\012PUSHW[ ]	/* 1 value pushed */\0126 \012MDRP[10000]	/* MoveDirectRelPt */\012PUSHW[ ]	/* 1 value pushed */\0126 \012MDAP[1]	/* MoveDirectAbsPt */\012PUSHW[ ]	/* 1 value pushed */\01217 \012SRP0[ ]	/* SetRefPoint0 */\012PUSHW[ ]	/* 2 values pushed */\01234 3 \012MIRP[10100]	/* MoveIndirectRelPt */\012PUSHW[ ]	/* 1 value pushed */\01225 \012MDRP[10000]	/* MoveDirectRelPt */\012PUSHW[ ]	/* 1 value pushed */\01225 \012MDAP[1]	/* MoveDirectAbsPt */\012PUSHW[ ]	/* 1 value pushed */\01234 \012SRP0[ ]	/* SetRefPoint0 */\012PUSHW[ ]	/* 1 value pushed */\01227 \012MDRP[10000]	/* MoveDirectRelPt */\012PUSHW[ ]	/* 1 value pushed */\01227 \012MDAP[1]	/* MoveDirectAbsPt */\012SVTCA[0]	/* SetFreedomAndProjectionVectorToAxis */\012PUSHW[ ]	/* 1 value pushed */\0121 \012RCVT[ ]	/* ReadCVT */\012IF[ ]	/* If */\012PUSHW[ ]	/* 1 value pushed */\01210 \012MDAP[1]	/* MoveDirectAbsPt */\012ELSE[ ]	/* Else */\012PUSHW[ ]	/* 2 values pushed */\01210 10 \012MIAP[0]	/* MoveIndirectAbsPt */\012EIF[ ]	/* EndIf */\012PUSHW[ ]	/* 1 value pushed */\0121 \012RCVT[ ]	/* ReadCVT */\012IF[ ]	/* If */\012PUSHW[ ]	/* 1 value pushed */\01221 \012MDAP[1]	/* MoveDirectAbsPt */\012ELSE[ ]	/* Else */\012PUSHW[ ]	/* 2 values pushed */\01221 10 \012MIAP[0]	/* MoveIndirectAbsPt */\012EIF[ ]	/* EndIf */\012PUSHW[ ]	/* 4 values pushed */\0122 2 38 24 \012CALL[ ]	/* CallFunction */\012PUSHW[ ]	/* 4 values pushed */\01212 2 0 24 \012CALL[ ]	/* CallFunction */\012IUP[0]	/* InterpolateUntPts */\012IUP[1]	/* InterpolateUntPts */";
};
width = 394;
}
);
note = uni02B6;
unicode = 02B6;
},
{
glyphname = uni02B7;
lastChange = "2020-08-12 05:57:25 +0000";
layers = (
{
layerId = "A36D14D1-FF07-4574-A62D-30DF65569781";
paths = (
{
closed = 1;
nodes = (
"40 618 LINE",
"116 356 LINE",
"161 356 LINE",
"213 559 LINE",
"266 356 LINE",
"312 356 LINE",
"388 618 LINE",
"344 618 LINE",
"290 413 LINE",
"239 618 LINE",
"190 618 LINE",
"139 412 LINE",
"89 618 LINE",
"89 618 LINE"
);
}
);
userData = {
assembly = "PUSHW[ ]	/* 1 value pushed */\01220 \012CALL[ ]	/* CallFunction */\012SVTCA[0]	/* SetFreedomAndProjectionVectorToAxis */\012PUSHW[ ]	/* 1 value pushed */\0120 \012MDAP[1]	/* MoveDirectAbsPt */\012PUSHW[ ]	/* 1 value pushed */\0122 \012MDAP[1]	/* MoveDirectAbsPt */\012PUSHW[ ]	/* 1 value pushed */\0125 \012MDAP[1]	/* MoveDirectAbsPt */\012PUSHW[ ]	/* 1 value pushed */\0127 \012MDAP[1]	/* MoveDirectAbsPt */\012PUSHW[ ]	/* 1 value pushed */\01210 \012MDAP[1]	/* MoveDirectAbsPt */\012IUP[0]	/* InterpolateUntPts */\012IUP[1]	/* InterpolateUntPts */";
};
width = 428;
}
);
note = uni02B7;
unicode = 02B7;
},
{
glyphname = uni02B8;
lastChange = "2020-08-12 05:57:25 +0000";
layers = (
{
layerId = "A36D14D1-FF07-4574-A62D-30DF65569781";
paths = (
{
closed = 1;
nodes = (
"160 405 LINE",
"90 618 LINE",
"40 618 LINE",
"137 349 LINE",
"134 340 OFFCURVE",
"118 304 OFFCURVE",
"117 302 QCURVE SMOOTH",
"113 296 OFFCURVE",
"102 288 OFFCURVE",
"90 288 QCURVE SMOOTH",
"86 288 OFFCURVE",
"76 290 OFFCURVE",
"64 292 QCURVE",
"64 252 LINE",
"71 250 OFFCURVE",
"81 249 OFFCURVE",
"91 249 QCURVE SMOOTH",
"129 249 OFFCURVE",
"160 293 OFFCURVE",
"198 394 QCURVE SMOOTH",
"214 436 OFFCURVE",
"238 503 QCURVE SMOOTH",
"270 593 OFFCURVE",
"279 618 QCURVE",
"231 618 LINE",
"231 618 LINE"
);
}
);
userData = {
assembly = "PUSHW[ ]	/* 1 value pushed */\01220 \012CALL[ ]	/* CallFunction */\012SVTCA[0]	/* SetFreedomAndProjectionVectorToAxis */\012PUSHW[ ]	/* 1 value pushed */\0120 \012MDAP[1]	/* MoveDirectAbsPt */\012PUSHW[ ]	/* 1 value pushed */\01222 \012MDAP[1]	/* MoveDirectAbsPt */\012PUSHW[ ]	/* 1 value pushed */\0128 \012MDAP[1]	/* MoveDirectAbsPt */\012PUSHW[ ]	/* 1 value pushed */\01211 \012MDAP[1]	/* MoveDirectAbsPt */\012IUP[0]	/* InterpolateUntPts */\012IUP[1]	/* InterpolateUntPts */";
};
width = 319;
}
);
note = uni02B8;
unicode = 02B8;
},
{
glyphname = uni02E1;
lastChange = "2020-08-12 05:57:25 +0000";
layers = (
{
layerId = "A36D14D1-FF07-4574-A62D-30DF65569781";
paths = (
{
closed = 1;
nodes = (
"40 356 LINE",
"84 356 LINE",
"84 715 LINE",
"40 715 LINE",
"40 715 LINE"
);
}
);
userData = {
assembly = "PUSHW[ ]	/* 1 value pushed */\01220 \012CALL[ ]	/* CallFunction */\012PUSHW[ ]	/* 3 values pushed */\0121 0 23 \012CALL[ ]	/* CallFunction */\012SVTCA[0]	/* SetFreedomAndProjectionVectorToAxis */\012PUSHW[ ]	/* 1 value pushed */\0122 \012MDAP[1]	/* MoveDirectAbsPt */\012PUSHW[ ]	/* 1 value pushed */\0121 \012RCVT[ ]	/* ReadCVT */\012IF[ ]	/* If */\012PUSHW[ ]	/* 1 value pushed */\0120 \012MDAP[1]	/* MoveDirectAbsPt */\012ELSE[ ]	/* Else */\012PUSHW[ ]	/* 2 values pushed */\0120 10 \012MIAP[0]	/* MoveIndirectAbsPt */\012EIF[ ]	/* EndIf */\012IUP[0]	/* InterpolateUntPts */\012IUP[1]	/* InterpolateUntPts */";
};
width = 124;
}
);
note = uni02E1;
unicode = 02E1;
},
{
glyphname = uni02E2;
lastChange = "2020-08-12 05:57:25 +0000";
layers = (
{
layerId = "A36D14D1-FF07-4574-A62D-30DF65569781";
paths = (
{
closed = 1;
nodes = (
"40 438 LINE",
"42 399 OFFCURVE",
"90 346 OFFCURVE",
"149 346 QCURVE SMOOTH",
"203 346 OFFCURVE",
"256 397 OFFCURVE",
"256 432 QCURVE SMOOTH",
"256 468 OFFCURVE",
"231 485 QCURVE SMOOTH",
"214 496 OFFCURVE",
"167 507 QCURVE SMOOTH",
"138 514 LINE SMOOTH",
"119 519 OFFCURVE",
"109 525 QCURVE SMOOTH",
"92 535 OFFCURVE",
"92 552 QCURVE SMOOTH",
"92 568 OFFCURVE",
"118 587 OFFCURVE",
"143 587 QCURVE SMOOTH",
"180 587 OFFCURVE",
"195 570 QCURVE SMOOTH",
"205 558 OFFCURVE",
"206 542 QCURVE",
"247 542 LINE",
"248 568 OFFCURVE",
"232 590 QCURVE SMOOTH",
"205 625 OFFCURVE",
"146 625 QCURVE SMOOTH",
"101 625 OFFCURVE",
"47 579 OFFCURVE",
"47 542 QCURVE SMOOTH",
"47 510 OFFCURVE",
"76 492 QCURVE SMOOTH",
"92 482 OFFCURVE",
"125 474 QCURVE SMOOTH",
"160 465 LINE SMOOTH",
"188 458 OFFCURVE",
"198 453 QCURVE SMOOTH",
"212 444 OFFCURVE",
"212 427 QCURVE SMOOTH",
"212 405 OFFCURVE",
"175 383 OFFCURVE",
"151 383 QCURVE SMOOTH",
"110 383 OFFCURVE",
"93 405 QCURVE SMOOTH",
"85 417 OFFCURVE",
"83 438 QCURVE",
"83 438 LINE"
);
}
);
userData = {
assembly = "PUSHW[ ]	/* 1 value pushed */\01220 \012CALL[ ]	/* CallFunction */\012PUSHW[ ]	/* 1 value pushed */\01247 \012MDAP[1]	/* MoveDirectAbsPt */\012PUSHW[ ]	/* 1 value pushed */\0127 \012MDAP[1]	/* MoveDirectAbsPt */\012PUSHW[ ]	/* 1 value pushed */\01247 \012SRP0[ ]	/* SetRefPoint0 */\012PUSHW[ ]	/* 1 value pushed */\01216 \012MDRP[10000]	/* MoveDirectRelPt */\012PUSHW[ ]	/* 1 value pushed */\01216 \012MDAP[1]	/* MoveDirectAbsPt */\012PUSHW[ ]	/* 2 values pushed */\01231 3 \012MIRP[10100]	/* MoveIndirectRelPt */\012PUSHW[ ]	/* 1 value pushed */\0122 \012MDRP[10000]	/* MoveDirectRelPt */\012PUSHW[ ]	/* 1 value pushed */\0122 \012MDAP[1]	/* MoveDirectAbsPt */\012PUSHW[ ]	/* 1 value pushed */\0127 \012SRP0[ ]	/* SetRefPoint0 */\012PUSHW[ ]	/* 1 value pushed */\01224 \012MDRP[10000]	/* MoveDirectRelPt */\012PUSHW[ ]	/* 1 value pushed */\01224 \012MDAP[1]	/* MoveDirectAbsPt */\012PUSHW[ ]	/* 1 value pushed */\0127 \012SRP0[ ]	/* SetRefPoint0 */\012PUSHW[ ]	/* 1 value pushed */\01240 \012MDRP[11100]	/* MoveDirectRelPt */\012PUSHW[ ]	/* 1 value pushed */\01216 \012SRP0[ ]	/* SetRefPoint0 */\012PUSHW[ ]	/* 1 value pushed */\01246 \012MDRP[10000]	/* MoveDirectRelPt */\012PUSHW[ ]	/* 1 value pushed */\01246 \012MDAP[1]	/* MoveDirectAbsPt */\012SVTCA[0]	/* SetFreedomAndProjectionVectorToAxis */\012PUSHW[ ]	/* 3 values pushed */\0124 43 23 \012CALL[ ]	/* CallFunction */\012PUSHW[ ]	/* 4 values pushed */\01219 2 28 24 \012CALL[ ]	/* CallFunction */\012IUP[0]	/* InterpolateUntPts */\012IUP[1]	/* InterpolateUntPts */";
};
width = 296;
}
);
note = uni02E2;
unicode = 02E2;
},
{
glyphname = uni02E3;
lastChange = "2020-08-12 05:57:25 +0000";
layers = (
{
layerId = "A36D14D1-FF07-4574-A62D-30DF65569781";
paths = (
{
closed = 1;
nodes = (
"132 490 LINE",
"40 356 LINE",
"96 356 LINE",
"159 455 LINE",
"224 356 LINE",
"280 356 LINE",
"187 490 LINE",
"276 617 LINE",
"222 618 LINE",
"162 526 LINE",
"101 618 LINE",
"44 618 LINE",
"44 618 LINE"
);
}
);
userData = {
assembly = "PUSHW[ ]	/* 1 value pushed */\01220 \012CALL[ ]	/* CallFunction */\012SVTCA[0]	/* SetFreedomAndProjectionVectorToAxis */\012PUSHW[ ]	/* 1 value pushed */\0126 \012MDAP[1]	/* MoveDirectAbsPt */\012PUSHW[ ]	/* 1 value pushed */\0129 \012MDAP[1]	/* MoveDirectAbsPt */\012PUSHW[ ]	/* 1 value pushed */\0120 \012MDAP[1]	/* MoveDirectAbsPt */\012PUSHW[ ]	/* 1 value pushed */\0123 \012MDAP[1]	/* MoveDirectAbsPt */\012IUP[0]	/* InterpolateUntPts */\012IUP[1]	/* InterpolateUntPts */";
};
width = 320;
}
);
note = uni02E3;
unicode = 02E3;
},
{
glyphname = uni1D45;
lastChange = "2020-08-12 05:57:25 +0000";
layers = (
{
layerId = "A36D14D1-FF07-4574-A62D-30DF65569781";
paths = (
{
closed = 1;
nodes = (
"330 371 OFFCURVE",
"356 343 OFFCURVE",
"391 343 QCURVE SMOOTH",
"407 343 OFFCURVE",
"416 344 OFFCURVE",
"420 346 QCURVE",
"420 391 LINE",
"391 394 OFFCURVE",
"381 399 OFFCURVE",
"381 429 QCURVE SMOOTH",
"381 719 LINE",
"325 719 LINE",
"325 664 LINE",
"304 692 OFFCURVE",
"242 726 OFFCURVE",
"201 726 QCURVE SMOOTH",
"126 726 OFFCURVE",
"40 616 OFFCURVE",
"40 531 QCURVE SMOOTH",
"40 446 OFFCURVE",
"127 335 OFFCURVE",
"201 335 QCURVE SMOOTH",
"243 335 OFFCURVE",
"305 370 OFFCURVE",
"326 399 QCURVE",
"326 399 LINE"
);
},
{
closed = 1;
nodes = (
"259 673 OFFCURVE",
"319 603 OFFCURVE",
"319 531 QCURVE SMOOTH",
"319 458 OFFCURVE",
"259 389 OFFCURVE",
"209 389 QCURVE SMOOTH",
"160 389 OFFCURVE",
"100 458 OFFCURVE",
"100 531 QCURVE SMOOTH",
"100 604 OFFCURVE",
"160 673 OFFCURVE",
"209 673 QCURVE",
"209 673 LINE"
);
}
);
userData = {
assembly = "PUSHW[ ]	/* 1 value pushed */\01220 \012CALL[ ]	/* CallFunction */\012PUSHW[ ]	/* 1 value pushed */\01237 \012MDAP[1]	/* MoveDirectAbsPt */\012PUSHW[ ]	/* 1 value pushed */\01234 \012MDAP[1]	/* MoveDirectAbsPt */\012PUSHW[ ]	/* 1 value pushed */\0120 \012MDRP[10000]	/* MoveDirectRelPt */\012PUSHW[ ]	/* 1 value pushed */\0120 \012MDAP[1]	/* MoveDirectAbsPt */\012PUSHW[ ]	/* 1 value pushed */\01237 \012SRP0[ ]	/* SetRefPoint0 */\012PUSHW[ ]	/* 1 value pushed */\0126 \012MDRP[10000]	/* MoveDirectRelPt */\012PUSHW[ ]	/* 1 value pushed */\0126 \012MDAP[1]	/* MoveDirectAbsPt */\012PUSHW[ ]	/* 1 value pushed */\01234 \012SRP0[ ]	/* SetRefPoint0 */\012PUSHW[ ]	/* 1 value pushed */\01212 \012MDRP[10000]	/* MoveDirectRelPt */\012PUSHW[ ]	/* 1 value pushed */\01212 \012MDAP[1]	/* MoveDirectAbsPt */\012PUSHW[ ]	/* 1 value pushed */\01234 \012SRP0[ ]	/* SetRefPoint0 */\012PUSHW[ ]	/* 2 values pushed */\01215 3 \012MIRP[10100]	/* MoveIndirectRelPt */\012PUSHW[ ]	/* 1 value pushed */\0126 \012SRP0[ ]	/* SetRefPoint0 */\012PUSHW[ ]	/* 2 values pushed */\01228 3 \012MIRP[10100]	/* MoveIndirectRelPt */\012SVTCA[0]	/* SetFreedomAndProjectionVectorToAxis */\012PUSHW[ ]	/* 1 value pushed */\0121 \012RCVT[ ]	/* ReadCVT */\012IF[ ]	/* If */\012PUSHW[ ]	/* 1 value pushed */\0129 \012MDAP[1]	/* MoveDirectAbsPt */\012ELSE[ ]	/* Else */\012PUSHW[ ]	/* 2 values pushed */\0129 10 \012MIAP[0]	/* MoveIndirectAbsPt */\012EIF[ ]	/* EndIf */\012PUSHW[ ]	/* 1 value pushed */\0121 \012RCVT[ ]	/* ReadCVT */\012IF[ ]	/* If */\012PUSHW[ ]	/* 1 value pushed */\01213 \012MDAP[1]	/* MoveDirectAbsPt */\012ELSE[ ]	/* Else */\012PUSHW[ ]	/* 2 values pushed */\01213 10 \012MIAP[0]	/* MoveIndirectAbsPt */\012EIF[ ]	/* EndIf */\012PUSHW[ ]	/* 4 values pushed */\01231 2 3 24 \012CALL[ ]	/* CallFunction */\012PUSHW[ ]	/* 1 value pushed */\01231 \012SRP0[ ]	/* SetRefPoint0 */\012PUSHW[ ]	/* 1 value pushed */\01218 \012MDRP[10000]	/* MoveDirectRelPt */\012PUSHW[ ]	/* 1 value pushed */\01218 \012MDAP[1]	/* MoveDirectAbsPt */\012PUSHW[ ]	/* 1 value pushed */\0129 \012SRP0[ ]	/* SetRefPoint0 */\012PUSHW[ ]	/* 2 values pushed */\01225 2 \012MIRP[10100]	/* MoveIndirectRelPt */\012IUP[0]	/* InterpolateUntPts */\012IUP[1]	/* InterpolateUntPts */";
};
width = 460;
}
);
note = uni1D45;
unicode = 1D45;
},
{
glyphname = uni1D62;
lastChange = "2020-08-05 16:15:03 +0000";
layers = (
{
layerId = "A36D14D1-FF07-4574-A62D-30DF65569781";
paths = (
{
closed = 1;
nodes = (
"46 -342 LINE",
"109 -342 LINE",
"109 28 LINE",
"46 28 LINE",
"46 28 LINE"
);
},
{
closed = 1;
nodes = (
"46 97 LINE",
"109 97 LINE",
"109 167 LINE",
"46 167 LINE",
"46 167 LINE"
);
}
);
userData = {
assembly = "PUSHW[ ]	/* 1 value pushed */\01220 \012CALL[ ]	/* CallFunction */\012PUSHW[ ]	/* 4 values pushed */\0121 3 0 24 \012CALL[ ]	/* CallFunction */\012PUSHW[ ]	/* 1 value pushed */\0120 \012SRP0[ ]	/* SetRefPoint0 */\012PUSHW[ ]	/* 1 value pushed */\0124 \012MDRP[10000]	/* MoveDirectRelPt */\012PUSHW[ ]	/* 1 value pushed */\0121 \012SRP0[ ]	/* SetRefPoint0 */\012PUSHW[ ]	/* 1 value pushed */\0125 \012MDRP[10000]	/* MoveDirectRelPt */\012SVTCA[0]	/* SetFreedomAndProjectionVectorToAxis */\012PUSHW[ ]	/* 1 value pushed */\0122 \012MDAP[1]	/* MoveDirectAbsPt */\012PUSHW[ ]	/* 4 values pushed */\0125 2 6 24 \012CALL[ ]	/* CallFunction */\012IUP[0]	/* InterpolateUntPts */\012IUP[1]	/* InterpolateUntPts */";
};
width = 158;
}
);
note = uni1D62;
unicode = 1D62;
},
{
glyphname = uni1D63;
lastChange = "2020-08-12 05:57:25 +0000";
layers = (
{
layerId = "A36D14D1-FF07-4574-A62D-30DF65569781";
paths = (
{
closed = 1;
nodes = (
"47 -342 LINE",
"110 -342 LINE",
"110 -128 LINE SMOOTH",
"110 -89 OFFCURVE",
"161 -28 OFFCURVE",
"208 -28 QCURVE SMOOTH",
"213 -28 OFFCURVE",
"223 -29 OFFCURVE",
"228 -30 QCURVE",
"228 36 LINE",
"218 37 OFFCURVE",
"210 38 OFFCURVE",
"208 38 QCURVE SMOOTH",
"171 38 OFFCURVE",
"114 -16 OFFCURVE",
"107 -35 QCURVE",
"107 29 LINE",
"47 29 LINE",
"47 29 LINE"
);
}
);
userData = {
assembly = "PUSHW[ ]	/* 1 value pushed */\01220 \012CALL[ ]	/* CallFunction */\012PUSHW[ ]	/* 4 values pushed */\01215 3 0 24 \012CALL[ ]	/* CallFunction */\012PUSHW[ ]	/* 1 value pushed */\01215 \012SRP0[ ]	/* SetRefPoint0 */\012PUSHW[ ]	/* 1 value pushed */\0122 \012MDRP[10000]	/* MoveDirectRelPt */\012PUSHW[ ]	/* 1 value pushed */\0122 \012MDAP[1]	/* MoveDirectAbsPt */\012PUSHW[ ]	/* 1 value pushed */\0120 \012SRP0[ ]	/* SetRefPoint0 */\012PUSHW[ ]	/* 1 value pushed */\0128 \012MDRP[11100]	/* MoveDirectRelPt */\012SVTCA[0]	/* SetFreedomAndProjectionVectorToAxis */\012PUSHW[ ]	/* 1 value pushed */\01216 \012MDAP[1]	/* MoveDirectAbsPt */\012PUSHW[ ]	/* 4 values pushed */\0125 2 12 24 \012CALL[ ]	/* CallFunction */\012PUSHW[ ]	/* 1 value pushed */\0125 \012SRP0[ ]	/* SetRefPoint0 */\012PUSHW[ ]	/* 1 value pushed */\0128 \012MDRP[10000]	/* MoveDirectRelPt */\012PUSHW[ ]	/* 1 value pushed */\0128 \012MDAP[1]	/* MoveDirectAbsPt */\012IUP[0]	/* InterpolateUntPts */\012IUP[1]	/* InterpolateUntPts */";
};
width = 268;
}
);
note = uni1D63;
unicode = 1D63;
},
{
glyphname = uni1D64;
lastChange = "2020-08-05 16:15:03 +0000";
layers = (
{
layerId = "A36D14D1-FF07-4574-A62D-30DF65569781";
paths = (
{
closed = 1;
nodes = (
"44 29 LINE",
"44 -223 LINE SMOOTH",
"44 -271 OFFCURVE",
"60 -299 QCURVE SMOOTH",
"89 -352 OFFCURVE",
"168 -352 QCURVE SMOOTH",
"219 -352 OFFCURVE",
"255 -323 QCURVE SMOOTH",
"273 -308 OFFCURVE",
"285 -287 QCURVE",
"284 -342 LINE",
"343 -342 LINE",
"343 29 LINE",
"281 29 LINE",
"281 -153 LINE SMOOTH",
"281 -208 OFFCURVE",
"268 -238 QCURVE SMOOTH",
"245 -297 OFFCURVE",
"179 -297 QCURVE SMOOTH",
"134 -297 OFFCURVE",
"117 -264 QCURVE SMOOTH",
"108 -246 OFFCURVE",
"108 -217 QCURVE SMOOTH",
"108 29 LINE",
"108 29 LINE"
);
}
);
userData = {
assembly = "PUSHW[ ]	/* 1 value pushed */\01220 \012CALL[ ]	/* CallFunction */\012PUSHW[ ]	/* 1 value pushed */\01224 \012MDAP[1]	/* MoveDirectAbsPt */\012PUSHW[ ]	/* 1 value pushed */\01210 \012MDAP[1]	/* MoveDirectAbsPt */\012PUSHW[ ]	/* 1 value pushed */\01224 \012SRP0[ ]	/* SetRefPoint0 */\012PUSHW[ ]	/* 1 value pushed */\01222 \012MDRP[10000]	/* MoveDirectRelPt */\012PUSHW[ ]	/* 1 value pushed */\01222 \012MDAP[1]	/* MoveDirectAbsPt */\012PUSHW[ ]	/* 2 values pushed */\0121 3 \012MIRP[10100]	/* MoveIndirectRelPt */\012PUSHW[ ]	/* 1 value pushed */\01210 \012SRP0[ ]	/* SetRefPoint0 */\012PUSHW[ ]	/* 2 values pushed */\01211 3 \012MIRP[10100]	/* MoveIndirectRelPt */\012PUSHW[ ]	/* 1 value pushed */\01210 \012SRP0[ ]	/* SetRefPoint0 */\012PUSHW[ ]	/* 1 value pushed */\01213 \012MDRP[10000]	/* MoveDirectRelPt */\012PUSHW[ ]	/* 1 value pushed */\01213 \012MDAP[1]	/* MoveDirectAbsPt */\012SVTCA[0]	/* SetFreedomAndProjectionVectorToAxis */\012PUSHW[ ]	/* 1 value pushed */\0120 \012MDAP[1]	/* MoveDirectAbsPt */\012PUSHW[ ]	/* 1 value pushed */\01210 \012MDAP[1]	/* MoveDirectAbsPt */\012PUSHW[ ]	/* 1 value pushed */\01212 \012MDAP[1]	/* MoveDirectAbsPt */\012PUSHW[ ]	/* 4 values pushed */\0125 2 18 24 \012CALL[ ]	/* CallFunction */\012IUP[0]	/* InterpolateUntPts */\012IUP[1]	/* InterpolateUntPts */";
};
width = 395;
}
);
note = uni1D64;
unicode = 1D64;
},
{
glyphname = uni1D65;
lastChange = "2020-08-12 05:57:25 +0000";
layers = (
{
layerId = "A36D14D1-FF07-4574-A62D-30DF65569781";
paths = (
{
closed = 1;
nodes = (
"40 29 LINE",
"177 -342 LINE",
"244 -342 LINE",
"383 29 LINE",
"315 29 LINE",
"211 -273 LINE",
"112 29 LINE",
"112 29 LINE"
);
}
);
userData = {
assembly = "PUSHW[ ]	/* 1 value pushed */\01220 \012CALL[ ]	/* CallFunction */\012SVTCA[0]	/* SetFreedomAndProjectionVectorToAxis */\012PUSHW[ ]	/* 1 value pushed */\0124 \012MDAP[1]	/* MoveDirectAbsPt */\012PUSHW[ ]	/* 1 value pushed */\0120 \012MDAP[1]	/* MoveDirectAbsPt */\012PUSHW[ ]	/* 1 value pushed */\0122 \012MDAP[1]	/* MoveDirectAbsPt */\012IUP[0]	/* InterpolateUntPts */\012IUP[1]	/* InterpolateUntPts */";
};
width = 423;
}
);
note = uni1D65;
unicode = 1D65;
},
{
glyphname = uni2071;
lastChange = "2020-08-12 05:57:25 +0000";
layers = (
{
layerId = "A36D14D1-FF07-4574-A62D-30DF65569781";
paths = (
{
closed = 1;
nodes = (
"40 391 LINE",
"85 391 LINE",
"85 651 LINE",
"40 651 LINE",
"40 651 LINE"
);
},
{
closed = 1;
nodes = (
"40 700 LINE",
"85 700 LINE",
"85 750 LINE",
"40 750 LINE",
"40 750 LINE"
);
}
);
userData = {
assembly = "PUSHW[ ]	/* 1 value pushed */\01220 \012CALL[ ]	/* CallFunction */\012PUSHW[ ]	/* 4 values pushed */\0121 3 0 24 \012CALL[ ]	/* CallFunction */\012PUSHW[ ]	/* 1 value pushed */\0120 \012SRP0[ ]	/* SetRefPoint0 */\012PUSHW[ ]	/* 1 value pushed */\0124 \012MDRP[10000]	/* MoveDirectRelPt */\012PUSHW[ ]	/* 1 value pushed */\0121 \012SRP0[ ]	/* SetRefPoint0 */\012PUSHW[ ]	/* 1 value pushed */\0125 \012MDRP[10000]	/* MoveDirectRelPt */\012SVTCA[0]	/* SetFreedomAndProjectionVectorToAxis */\012PUSHW[ ]	/* 1 value pushed */\0124 \012MDAP[1]	/* MoveDirectAbsPt */\012PUSHW[ ]	/* 1 value pushed */\0122 \012MDAP[1]	/* MoveDirectAbsPt */\012IUP[0]	/* InterpolateUntPts */\012IUP[1]	/* InterpolateUntPts */";
};
width = 125;
}
);
note = uni2071;
unicode = 2071;
},
{
glyphname = uni207F;
lastChange = "2020-08-05 16:15:03 +0000";
layers = (
{
layerId = "A36D14D1-FF07-4574-A62D-30DF65569781";
paths = (
{
closed = 1;
nodes = (
"42 397 LINE",
"108 397 LINE",
"108 571 LINE SMOOTH",
"108 610 OFFCURVE",
"151 664 OFFCURVE",
"192 664 QCURVE SMOOTH",
"230 664 OFFCURVE",
"261 622 OFFCURVE",
"261 586 QCURVE SMOOTH",
"261 397 LINE",
"328 397 LINE",
"328 602 LINE SMOOTH",
"328 653 OFFCURVE",
"272 719 OFFCURVE",
"213 719 QCURVE SMOOTH",
"178 719 OFFCURVE",
"125 690 OFFCURVE",
"108 664 QCURVE",
"108 710 LINE",
"42 710 LINE",
"42 710 LINE"
);
}
);
userData = {
assembly = "PUSHW[ ]	/* 1 value pushed */\01220 \012CALL[ ]	/* CallFunction */\012PUSHW[ ]	/* 1 value pushed */\01220 \012MDAP[1]	/* MoveDirectAbsPt */\012PUSHW[ ]	/* 1 value pushed */\01210 \012MDAP[1]	/* MoveDirectAbsPt */\012PUSHW[ ]	/* 1 value pushed */\01220 \012SRP0[ ]	/* SetRefPoint0 */\012PUSHW[ ]	/* 1 value pushed */\0120 \012MDRP[10000]	/* MoveDirectRelPt */\012PUSHW[ ]	/* 1 value pushed */\0120 \012MDAP[1]	/* MoveDirectAbsPt */\012PUSHW[ ]	/* 2 values pushed */\0121 3 \012MIRP[10100]	/* MoveIndirectRelPt */\012PUSHW[ ]	/* 1 value pushed */\01210 \012SRP0[ ]	/* SetRefPoint0 */\012PUSHW[ ]	/* 2 values pushed */\0129 3 \012MIRP[10100]	/* MoveIndirectRelPt */\012PUSHW[ ]	/* 1 value pushed */\0121 \012SRP0[ ]	/* SetRefPoint0 */\012PUSHW[ ]	/* 1 value pushed */\01217 \012MDRP[10000]	/* MoveDirectRelPt */\012SVTCA[0]	/* SetFreedomAndProjectionVectorToAxis */\012PUSHW[ ]	/* 1 value pushed */\0129 \012MDAP[1]	/* MoveDirectAbsPt */\012PUSHW[ ]	/* 1 value pushed */\01218 \012MDAP[1]	/* MoveDirectAbsPt */\012PUSHW[ ]	/* 1 value pushed */\0121 \012RCVT[ ]	/* ReadCVT */\012IF[ ]	/* If */\012PUSHW[ ]	/* 1 value pushed */\0125 \012MDAP[1]	/* MoveDirectAbsPt */\012ELSE[ ]	/* Else */\012PUSHW[ ]	/* 2 values pushed */\0125 10 \012MIAP[0]	/* MoveIndirectAbsPt */\012EIF[ ]	/* EndIf */\012PUSHW[ ]	/* 2 values pushed */\01214 2 \012MIRP[10100]	/* MoveIndirectRelPt */\012IUP[0]	/* InterpolateUntPts */\012IUP[1]	/* InterpolateUntPts */";
};
width = 370;
}
);
note = uni207F;
unicode = 207F;
},
{
glyphname = uni2090;
lastChange = "2020-08-12 05:57:25 +0000";
layers = (
{
layerId = "A36D14D1-FF07-4574-A62D-30DF65569781";
paths = (
{
closed = 1;
nodes = (
"114 -313 OFFCURVE",
"86 -291 OFFCURVE",
"86 -272 QCURVE SMOOTH",
"86 -247 OFFCURVE",
"106 -235 QCURVE SMOOTH",
"118 -229 OFFCURVE",
"142 -226 QCURVE SMOOTH",
"169 -222 LINE SMOOTH",
"181 -221 OFFCURVE",
"207 -214 OFFCURVE",
"214 -208 QCURVE",
"214 -244 LINE SMOOTH",
"214 -285 OFFCURVE",
"178 -302 QCURVE SMOOTH",
"156 -313 OFFCURVE",
"133 -313 QCURVE",
"133 -313 LINE"
);
},
{
closed = 1;
nodes = (
"123 -192 LINE SMOOTH",
"85 -197 OFFCURVE",
"40 -237 OFFCURVE",
"40 -273 QCURVE SMOOTH",
"40 -306 OFFCURVE",
"86 -351 OFFCURVE",
"123 -351 QCURVE SMOOTH",
"153 -351 OFFCURVE",
"203 -325 OFFCURVE",
"217 -307 QCURVE",
"219 -323 OFFCURVE",
"224 -331 QCURVE SMOOTH",
"234 -348 OFFCURVE",
"257 -348 QCURVE SMOOTH",
"267 -348 OFFCURVE",
"277 -346 OFFCURVE",
"288 -343 QCURVE",
"288 -311 LINE",
"283 -311 OFFCURVE",
"276 -312 OFFCURVE",
"273 -312 QCURVE SMOOTH",
"264 -312 OFFCURVE",
"258 -304 OFFCURVE",
"258 -297 QCURVE SMOOTH",
"258 -146 LINE SMOOTH",
"258 -109 OFFCURVE",
"230 -91 QCURVE SMOOTH",
"201 -74 OFFCURVE",
"155 -74 QCURVE SMOOTH",
"115 -74 OFFCURVE",
"55 -112 OFFCURVE",
"54 -160 QCURVE",
"95 -160 LINE",
"97 -140 OFFCURVE",
"105 -129 QCURVE SMOOTH",
"120 -111 OFFCURVE",
"154 -111 QCURVE SMOOTH",
"184 -111 OFFCURVE",
"216 -131 OFFCURVE",
"216 -154 QCURVE SMOOTH",
"216 -165 OFFCURVE",
"213 -170 QCURVE SMOOTH",
"207 -181 OFFCURVE",
"192 -183 QCURVE",
"192 -183 LINE"
);
}
);
userData = {
assembly = "PUSHW[ ]	/* 1 value pushed */\01220 \012CALL[ ]	/* CallFunction */\012PUSHW[ ]	/* 4 values pushed */\01213 3 56 24 \012CALL[ ]	/* CallFunction */\012PUSHW[ ]	/* 3 values pushed */\01235 20 23 \012CALL[ ]	/* CallFunction */\012PUSHW[ ]	/* 1 value pushed */\01220 \012SRP0[ ]	/* SetRefPoint0 */\012PUSHW[ ]	/* 1 value pushed */\0124 \012MDRP[10000]	/* MoveDirectRelPt */\012PUSHW[ ]	/* 1 value pushed */\0124 \012MDAP[1]	/* MoveDirectAbsPt */\012PUSHW[ ]	/* 1 value pushed */\01213 \012SRP0[ ]	/* SetRefPoint0 */\012PUSHW[ ]	/* 1 value pushed */\01228 \012MDRP[11100]	/* MoveDirectRelPt */\012PUSHW[ ]	/* 1 value pushed */\01220 \012SRP0[ ]	/* SetRefPoint0 */\012PUSHW[ ]	/* 1 value pushed */\01250 \012MDRP[10000]	/* MoveDirectRelPt */\012PUSHW[ ]	/* 1 value pushed */\01250 \012MDAP[1]	/* MoveDirectAbsPt */\012SVTCA[0]	/* SetFreedomAndProjectionVectorToAxis */\012PUSHW[ ]	/* 1 value pushed */\01243 \012MDAP[1]	/* MoveDirectAbsPt */\012PUSHW[ ]	/* 1 value pushed */\01246 \012MDAP[1]	/* MoveDirectAbsPt */\012PUSHW[ ]	/* 1 value pushed */\01253 \012MDAP[1]	/* MoveDirectAbsPt */\012PUSHW[ ]	/* 1 value pushed */\0120 \012MDAP[1]	/* MoveDirectAbsPt */\012PUSHW[ ]	/* 1 value pushed */\01239 \012MDAP[1]	/* MoveDirectAbsPt */\012PUSHW[ ]	/* 1 value pushed */\01242 \012MDAP[1]	/* MoveDirectAbsPt */\012PUSHW[ ]	/* 1 value pushed */\01250 \012MDAP[1]	/* MoveDirectAbsPt */\012PUSHW[ ]	/* 3 values pushed */\01231 23 23 \012CALL[ ]	/* CallFunction */\012IUP[0]	/* InterpolateUntPts */\012IUP[1]	/* InterpolateUntPts */";
};
width = 328;
}
);
note = uni2090;
unicode = 2090;
},
{
glyphname = uni2091;
lastChange = "2020-08-12 05:57:25 +0000";
layers = (
{
layerId = "A36D14D1-FF07-4574-A62D-30DF65569781";
paths = (
{
closed = 1;
nodes = (
"243 -101 OFFCURVE",
"191 -74 OFFCURVE",
"163 -74 QCURVE SMOOTH",
"108 -74 OFFCURVE",
"40 -153 OFFCURVE",
"40 -216 QCURVE SMOOTH",
"40 -280 OFFCURVE",
"107 -351 OFFCURVE",
"156 -351 QCURVE SMOOTH",
"176 -351 OFFCURVE",
"192 -347 QCURVE SMOOTH",
"222 -340 OFFCURVE",
"242 -321 QCURVE SMOOTH",
"254 -310 OFFCURVE",
"273 -274 OFFCURVE",
"275 -260 QCURVE",
"231 -260 LINE",
"227 -277 OFFCURVE",
"215 -290 QCURVE SMOOTH",
"194 -313 OFFCURVE",
"160 -313 QCURVE SMOOTH",
"123 -313 OFFCURVE",
"88 -265 OFFCURVE",
"87 -225 QCURVE",
"278 -225 LINE",
"278 -186 OFFCURVE",
"274 -167 QCURVE SMOOTH",
"270 -141 OFFCURVE",
"257 -121 QCURVE",
"257 -121 LINE"
);
},
{
closed = 1;
nodes = (
"88 -190 LINE",
"89 -156 OFFCURVE",
"130 -113 OFFCURVE",
"161 -113 QCURVE SMOOTH",
"203 -113 OFFCURVE",
"221 -145 QCURVE SMOOTH",
"230 -162 OFFCURVE",
"233 -190 QCURVE",
"233 -190 LINE"
);
}
);
userData = {
assembly = "PUSHW[ ]	/* 1 value pushed */\01220 \012CALL[ ]	/* CallFunction */\012PUSHW[ ]	/* 4 values pushed */\0125 3 23 24 \012CALL[ ]	/* CallFunction */\012PUSHW[ ]	/* 1 value pushed */\0125 \012SRP0[ ]	/* SetRefPoint0 */\012PUSHW[ ]	/* 1 value pushed */\01236 \012MDRP[10000]	/* MoveDirectRelPt */\012PUSHW[ ]	/* 1 value pushed */\01236 \012MDAP[1]	/* MoveDirectAbsPt */\012SVTCA[0]	/* SetFreedomAndProjectionVectorToAxis */\012PUSHW[ ]	/* 1 value pushed */\01212 \012MDAP[1]	/* MoveDirectAbsPt */\012PUSHW[ ]	/* 4 values pushed */\0128 2 20 24 \012CALL[ ]	/* CallFunction */\012PUSHW[ ]	/* 4 values pushed */\01226 2 33 24 \012CALL[ ]	/* CallFunction */\012PUSHW[ ]	/* 3 values pushed */\01229 4 23 \012CALL[ ]	/* CallFunction */\012IUP[0]	/* InterpolateUntPts */\012IUP[1]	/* InterpolateUntPts */";
};
width = 318;
}
);
note = uni2091;
unicode = 2091;
},
{
glyphname = uni2092;
lastChange = "2020-08-12 05:57:25 +0000";
layers = (
{
layerId = "A36D14D1-FF07-4574-A62D-30DF65569781";
paths = (
{
closed = 1;
nodes = (
"237 -247 OFFCURVE",
"205 -313 OFFCURVE",
"161 -313 QCURVE SMOOTH",
"121 -313 OFFCURVE",
"85 -258 OFFCURVE",
"85 -216 QCURVE SMOOTH",
"85 -172 OFFCURVE",
"121 -111 OFFCURVE",
"162 -111 QCURVE SMOOTH",
"207 -111 OFFCURVE",
"226 -147 QCURVE SMOOTH",
"237 -170 OFFCURVE",
"237 -207 QCURVE",
"237 -207 LINE"
);
},
{
closed = 1;
nodes = (
"283 -140 OFFCURVE",
"213 -73 OFFCURVE",
"163 -73 QCURVE SMOOTH",
"107 -73 OFFCURVE",
"40 -151 OFFCURVE",
"40 -217 QCURVE SMOOTH",
"40 -278 OFFCURVE",
"103 -352 OFFCURVE",
"157 -352 QCURVE SMOOTH",
"222 -352 OFFCURVE",
"283 -269 OFFCURVE",
"283 -206 QCURVE",
"283 -206 LINE"
);
}
);
userData = {
assembly = "PUSHW[ ]	/* 1 value pushed */\01220 \012CALL[ ]	/* CallFunction */\012PUSHW[ ]	/* 1 value pushed */\01225 \012MDAP[1]	/* MoveDirectAbsPt */\012PUSHW[ ]	/* 1 value pushed */\0120 \012MDAP[1]	/* MoveDirectAbsPt */\012PUSHW[ ]	/* 1 value pushed */\01225 \012SRP0[ ]	/* SetRefPoint0 */\012PUSHW[ ]	/* 1 value pushed */\01219 \012MDRP[10000]	/* MoveDirectRelPt */\012PUSHW[ ]	/* 1 value pushed */\01219 \012MDAP[1]	/* MoveDirectAbsPt */\012PUSHW[ ]	/* 2 values pushed */\0127 3 \012MIRP[10100]	/* MoveIndirectRelPt */\012PUSHW[ ]	/* 1 value pushed */\0120 \012SRP0[ ]	/* SetRefPoint0 */\012PUSHW[ ]	/* 2 values pushed */\01213 3 \012MIRP[10100]	/* MoveIndirectRelPt */\012SVTCA[0]	/* SetFreedomAndProjectionVectorToAxis */\012PUSHW[ ]	/* 4 values pushed */\01210 2 16 24 \012CALL[ ]	/* CallFunction */\012PUSHW[ ]	/* 4 values pushed */\01222 2 4 24 \012CALL[ ]	/* CallFunction */\012IUP[0]	/* InterpolateUntPts */\012IUP[1]	/* InterpolateUntPts */";
};
width = 323;
}
);
note = uni2092;
unicode = 2092;
},
{
glyphname = uni2093;
lastChange = "2020-08-12 05:57:25 +0000";
layers = (
{
layerId = "A36D14D1-FF07-4574-A62D-30DF65569781";
paths = (
{
closed = 1;
nodes = (
"132 -208 LINE",
"40 -342 LINE",
"96 -342 LINE",
"159 -244 LINE",
"224 -342 LINE",
"280 -342 LINE",
"187 -208 LINE",
"276 -82 LINE",
"222 -80 LINE",
"162 -172 LINE",
"101 -80 LINE",
"44 -80 LINE",
"44 -80 LINE"
);
}
);
userData = {
assembly = "PUSHW[ ]	/* 1 value pushed */\01220 \012CALL[ ]	/* CallFunction */\012SVTCA[0]	/* SetFreedomAndProjectionVectorToAxis */\012PUSHW[ ]	/* 1 value pushed */\0126 \012MDAP[1]	/* MoveDirectAbsPt */\012PUSHW[ ]	/* 1 value pushed */\0129 \012MDAP[1]	/* MoveDirectAbsPt */\012PUSHW[ ]	/* 1 value pushed */\0120 \012MDAP[1]	/* MoveDirectAbsPt */\012PUSHW[ ]	/* 1 value pushed */\0123 \012MDAP[1]	/* MoveDirectAbsPt */\012IUP[0]	/* InterpolateUntPts */\012IUP[1]	/* InterpolateUntPts */";
};
width = 320;
}
);
note = uni2093;
unicode = 2093;
},
{
glyphname = uni2094;
lastChange = "2020-08-12 05:57:25 +0000";
layers = (
{
layerId = "A36D14D1-FF07-4574-A62D-30DF65569781";
paths = (
{
closed = 1;
nodes = (
"75 -325 OFFCURVE",
"127 -351 OFFCURVE",
"155 -351 QCURVE SMOOTH",
"210 -351 OFFCURVE",
"278 -272 OFFCURVE",
"278 -209 QCURVE SMOOTH",
"278 -146 OFFCURVE",
"210 -74 OFFCURVE",
"162 -74 QCURVE SMOOTH",
"142 -74 OFFCURVE",
"126 -78 QCURVE SMOOTH",
"96 -85 OFFCURVE",
"76 -104 QCURVE SMOOTH",
"64 -116 OFFCURVE",
"45 -151 OFFCURVE",
"43 -166 QCURVE",
"86 -166 LINE",
"91 -148 OFFCURVE",
"103 -135 QCURVE SMOOTH",
"124 -112 OFFCURVE",
"158 -112 QCURVE SMOOTH",
"195 -112 OFFCURVE",
"230 -161 OFFCURVE",
"231 -200 QCURVE",
"40 -200 LINE",
"40 -240 OFFCURVE",
"43 -258 QCURVE SMOOTH",
"48 -284 OFFCURVE",
"61 -304 QCURVE",
"61 -304 LINE"
);
},
{
closed = 1;
nodes = (
"230 -235 LINE",
"229 -269 OFFCURVE",
"188 -313 OFFCURVE",
"157 -313 QCURVE SMOOTH",
"115 -313 OFFCURVE",
"97 -281 QCURVE SMOOTH",
"87 -264 OFFCURVE",
"84 -235 QCURVE",
"84 -235 LINE"
);
}
);
userData = {
assembly = "PUSHW[ ]	/* 1 value pushed */\01220 \012CALL[ ]	/* CallFunction */\012PUSHW[ ]	/* 4 values pushed */\01223 3 5 24 \012CALL[ ]	/* CallFunction */\012PUSHW[ ]	/* 1 value pushed */\0125 \012SRP0[ ]	/* SetRefPoint0 */\012PUSHW[ ]	/* 1 value pushed */\01236 \012MDRP[10000]	/* MoveDirectRelPt */\012PUSHW[ ]	/* 1 value pushed */\01236 \012MDAP[1]	/* MoveDirectAbsPt */\012SVTCA[0]	/* SetFreedomAndProjectionVectorToAxis */\012PUSHW[ ]	/* 4 values pushed */\01233 2 26 24 \012CALL[ ]	/* CallFunction */\012PUSHW[ ]	/* 4 values pushed */\01220 2 8 24 \012CALL[ ]	/* CallFunction */\012PUSHW[ ]	/* 3 values pushed */\0124 29 23 \012CALL[ ]	/* CallFunction */\012IUP[0]	/* InterpolateUntPts */\012IUP[1]	/* InterpolateUntPts */";
};
width = 318;
}
);
note = uni2094;
unicode = 2094;
},
{
glyphname = uni03B1;
lastChange = "2020-08-12 05:57:25 +0000";
layers = (
{
layerId = "A36D14D1-FF07-4574-A62D-30DF65569781";
paths = (
{
closed = 1;
nodes = (
"513 517 LINE",
"428 517 LINE",
"428 448 LINE",
"426 448 LINE",
"404 485 OFFCURVE",
"324 529 OFFCURVE",
"277 529 QCURVE SMOOTH",
"216 529 OFFCURVE",
"127 484 OFFCURVE",
"68 410 OFFCURVE",
"40 312 OFFCURVE",
"40 260 QCURVE SMOOTH",
"40 208 OFFCURVE",
"68 110 OFFCURVE",
"124 34 OFFCURVE",
"208 -12 OFFCURVE",
"265 -12 QCURVE SMOOTH",
"319 -12 OFFCURVE",
"404 28 OFFCURVE",
"428 76 QCURVE",
"430 76 LINE",
"434 32 OFFCURVE",
"480 -12 OFFCURVE",
"519 -12 QCURVE SMOOTH",
"554 -12 OFFCURVE",
"578 0 QCURVE",
"578 66 LINE",
"571 64 OFFCURVE",
"553 62 OFFCURVE",
"545 62 QCURVE SMOOTH",
"532 62 OFFCURVE",
"513 86 OFFCURVE",
"513 113 QCURVE",
"513 113 LINE"
);
},
{
closed = 1;
nodes = (
"130 289 OFFCURVE",
"144 361 OFFCURVE",
"179 418 OFFCURVE",
"238 454 OFFCURVE",
"283 454 QCURVE SMOOTH",
"320 454 OFFCURVE",
"376 421 OFFCURVE",
"413 367 OFFCURVE",
"431 296 OFFCURVE",
"431 258 QCURVE SMOOTH",
"431 222 OFFCURVE",
"415 152 OFFCURVE",
"379 97 OFFCURVE",
"320 63 OFFCURVE",
"277 63 QCURVE SMOOTH",
"238 63 OFFCURVE",
"182 97 OFFCURVE",
"147 152 OFFCURVE",
"130 220 OFFCURVE",
"130 254 QCURVE",
"130 254 LINE"
);
}
);
userData = {
assembly = "PUSHW[ ]	/* 1 value pushed */\01220 \012CALL[ ]	/* CallFunction */\012PUSHW[ ]	/* 1 value pushed */\01253 \012MDAP[1]	/* MoveDirectAbsPt */\012PUSHW[ ]	/* 1 value pushed */\01212 \012MDAP[1]	/* MoveDirectAbsPt */\012PUSHW[ ]	/* 2 values pushed */\0120 3 \012MIRP[10100]	/* MoveIndirectRelPt */\012PUSHW[ ]	/* 1 value pushed */\0129 \012MDRP[10000]	/* MoveDirectRelPt */\012PUSHW[ ]	/* 1 value pushed */\0129 \012MDAP[1]	/* MoveDirectAbsPt */\012PUSHW[ ]	/* 1 value pushed */\01253 \012SRP0[ ]	/* SetRefPoint0 */\012PUSHW[ ]	/* 1 value pushed */\01221 \012MDRP[10000]	/* MoveDirectRelPt */\012PUSHW[ ]	/* 1 value pushed */\01221 \012MDAP[1]	/* MoveDirectAbsPt */\012PUSHW[ ]	/* 1 value pushed */\01212 \012SRP0[ ]	/* SetRefPoint0 */\012PUSHW[ ]	/* 1 value pushed */\01229 \012MDRP[10000]	/* MoveDirectRelPt */\012PUSHW[ ]	/* 1 value pushed */\01229 \012MDAP[1]	/* MoveDirectAbsPt */\012PUSHW[ ]	/* 1 value pushed */\01212 \012SRP0[ ]	/* SetRefPoint0 */\012PUSHW[ ]	/* 1 value pushed */\01231 \012MDRP[10000]	/* MoveDirectRelPt */\012PUSHW[ ]	/* 1 value pushed */\01231 \012MDAP[1]	/* MoveDirectAbsPt */\012PUSHW[ ]	/* 1 value pushed */\01221 \012SRP0[ ]	/* SetRefPoint0 */\012PUSHW[ ]	/* 2 values pushed */\01233 3 \012MIRP[10100]	/* MoveIndirectRelPt */\012PUSHW[ ]	/* 1 value pushed */\01212 \012SRP0[ ]	/* SetRefPoint0 */\012PUSHW[ ]	/* 1 value pushed */\01243 \012MDRP[10000]	/* MoveDirectRelPt */\012PUSHW[ ]	/* 1 value pushed */\01243 \012MDAP[1]	/* MoveDirectAbsPt */\012SVTCA[0]	/* SetFreedomAndProjectionVectorToAxis */\012PUSHW[ ]	/* 1 value pushed */\0123 \012MDAP[1]	/* MoveDirectAbsPt */\012PUSHW[ ]	/* 1 value pushed */\0126 \012MDAP[1]	/* MoveDirectAbsPt */\012PUSHW[ ]	/* 1 value pushed */\01238 \012MDAP[1]	/* MoveDirectAbsPt */\012PUSHW[ ]	/* 1 value pushed */\01212 \012MDAP[1]	/* MoveDirectAbsPt */\012PUSHW[ ]	/* 1 value pushed */\0121 \012RCVT[ ]	/* ReadCVT */\012IF[ ]	/* If */\012PUSHW[ ]	/* 1 value pushed */\01231 \012MDAP[1]	/* MoveDirectAbsPt */\012ELSE[ ]	/* Else */\012PUSHW[ ]	/* 2 values pushed */\01231 8 \012MIAP[0]	/* MoveIndirectAbsPt */\012EIF[ ]	/* EndIf */\012PUSHW[ ]	/* 1 value pushed */\0121 \012RCVT[ ]	/* ReadCVT */\012IF[ ]	/* If */\012PUSHW[ ]	/* 1 value pushed */\01226 \012MDAP[1]	/* MoveDirectAbsPt */\012ELSE[ ]	/* Else */\012PUSHW[ ]	/* 2 values pushed */\01226 8 \012MIAP[0]	/* MoveIndirectAbsPt */\012EIF[ ]	/* EndIf */\012PUSHW[ ]	/* 1 value pushed */\0121 \012RCVT[ ]	/* ReadCVT */\012IF[ ]	/* If */\012PUSHW[ ]	/* 1 value pushed */\0129 \012MDAP[1]	/* MoveDirectAbsPt */\012ELSE[ ]	/* Else */\012PUSHW[ ]	/* 2 values pushed */\0129 4 \012MIAP[0]	/* MoveIndirectAbsPt */\012EIF[ ]	/* EndIf */\012PUSHW[ ]	/* 1 value pushed */\0121 \012RCVT[ ]	/* ReadCVT */\012IF[ ]	/* If */\012PUSHW[ ]	/* 1 value pushed */\01216 \012MDAP[1]	/* MoveDirectAbsPt */\012ELSE[ ]	/* Else */\012PUSHW[ ]	/* 2 values pushed */\01216 4 \012MIAP[0]	/* MoveIndirectAbsPt */\012EIF[ ]	/* EndIf */\012PUSHW[ ]	/* 1 value pushed */\01226 \012SRP0[ ]	/* SetRefPoint0 */\012PUSHW[ ]	/* 2 values pushed */\01248 2 \012MIRP[10100]	/* MoveIndirectRelPt */\012IUP[0]	/* InterpolateUntPts */\012IUP[1]	/* InterpolateUntPts */";
};
width = 618;
}
);
note = uni03B1;
unicode = 03B1;
},
{
glyphname = uni03B2;
lastChange = "2020-08-12 05:57:25 +0000";
layers = (
{
layerId = "A36D14D1-FF07-4574-A62D-30DF65569781";
paths = (
{
closed = 1;
nodes = (
"60 -198 LINE",
"145 -198 LINE",
"145 68 LINE",
"163 36 OFFCURVE",
"242 -12 OFFCURVE",
"303 -12 QCURVE SMOOTH",
"342 -12 OFFCURVE",
"419 15 OFFCURVE",
"482 72 OFFCURVE",
"521 159 OFFCURVE",
"521 220 QCURVE SMOOTH",
"521 257 OFFCURVE",
"505 324 OFFCURVE",
"471 378 OFFCURVE",
"419 414 OFFCURVE",
"382 422 QCURVE",
"382 424 LINE",
"398 428 OFFCURVE",
"430 451 OFFCURVE",
"456 485 OFFCURVE",
"471 531 OFFCURVE",
"471 559 QCURVE SMOOTH",
"471 593 OFFCURVE",
"448 656 OFFCURVE",
"398 703 OFFCURVE",
"321 731 OFFCURVE",
"266 731 QCURVE SMOOTH",
"163 731 OFFCURVE",
"60 629 OFFCURVE",
"60 517 QCURVE",
"60 517 LINE"
);
},
{
closed = 1;
nodes = (
"145 504 LINE SMOOTH",
"145 588 OFFCURVE",
"204 657 OFFCURVE",
"266 657 QCURVE SMOOTH",
"323 657 OFFCURVE",
"381 604 OFFCURVE",
"381 559 QCURVE SMOOTH",
"381 505 OFFCURVE",
"323 435 OFFCURVE",
"268 435 QCURVE SMOOTH",
"241 435 LINE",
"241 367 LINE",
"301 367 LINE SMOOTH",
"367 367 OFFCURVE",
"431 292 OFFCURVE",
"431 209 QCURVE SMOOTH",
"431 167 OFFCURVE",
"404 111 OFFCURVE",
"363 77 OFFCURVE",
"312 63 OFFCURVE",
"288 63 QCURVE SMOOTH",
"223 63 OFFCURVE",
"145 160 OFFCURVE",
"145 258 QCURVE",
"145 258 LINE"
);
}
);
userData = {
assembly = "PUSHW[ ]	/* 1 value pushed */\01220 \012CALL[ ]	/* CallFunction */\012PUSHW[ ]	/* 4 values pushed */\01253 3 0 24 \012CALL[ ]	/* CallFunction */\012PUSHW[ ]	/* 4 values pushed */\0128 3 47 24 \012CALL[ ]	/* CallFunction */\012PUSHW[ ]	/* 4 values pushed */\01219 3 38 24 \012CALL[ ]	/* CallFunction */\012PUSHW[ ]	/* 1 value pushed */\01253 \012SRP0[ ]	/* SetRefPoint0 */\012PUSHW[ ]	/* 1 value pushed */\01227 \012MDRP[10000]	/* MoveDirectRelPt */\012SVTCA[0]	/* SetFreedomAndProjectionVectorToAxis */\012PUSHW[ ]	/* 1 value pushed */\0121 \012RCVT[ ]	/* ReadCVT */\012IF[ ]	/* If */\012PUSHW[ ]	/* 1 value pushed */\0123 \012MDAP[1]	/* MoveDirectAbsPt */\012ELSE[ ]	/* Else */\012PUSHW[ ]	/* 2 values pushed */\0123 10 \012MIAP[0]	/* MoveIndirectAbsPt */\012EIF[ ]	/* EndIf */\012PUSHW[ ]	/* 1 value pushed */\0121 \012RCVT[ ]	/* ReadCVT */\012IF[ ]	/* If */\012PUSHW[ ]	/* 1 value pushed */\01228 \012MDAP[1]	/* MoveDirectAbsPt */\012ELSE[ ]	/* Else */\012PUSHW[ ]	/* 2 values pushed */\01228 6 \012MIAP[0]	/* MoveIndirectAbsPt */\012EIF[ ]	/* EndIf */\012PUSHW[ ]	/* 1 value pushed */\0121 \012RCVT[ ]	/* ReadCVT */\012IF[ ]	/* If */\012PUSHW[ ]	/* 1 value pushed */\01224 \012MDAP[1]	/* MoveDirectAbsPt */\012ELSE[ ]	/* Else */\012PUSHW[ ]	/* 2 values pushed */\01224 4 \012MIAP[0]	/* MoveIndirectAbsPt */\012EIF[ ]	/* EndIf */\012PUSHW[ ]	/* 4 values pushed */\01244 2 42 24 \012CALL[ ]	/* CallFunction */\012PUSHW[ ]	/* 1 value pushed */\01224 \012SRP0[ ]	/* SetRefPoint0 */\012PUSHW[ ]	/* 2 values pushed */\01233 2 \012MIRP[10100]	/* MoveIndirectRelPt */\012PUSHW[ ]	/* 1 value pushed */\0123 \012SRP0[ ]	/* SetRefPoint0 */\012PUSHW[ ]	/* 2 values pushed */\01250 2 \012MIRP[10100]	/* MoveIndirectRelPt */\012IUP[0]	/* InterpolateUntPts */\012IUP[1]	/* InterpolateUntPts */";
};
width = 561;
}
);
note = uni03B2;
unicode = 03B2;
},
{
glyphname = uni03B3;
lastChange = "2020-08-12 05:57:25 +0000";
layers = (
{
layerId = "A36D14D1-FF07-4574-A62D-30DF65569781";
paths = (
{
closed = 1;
nodes = (
"390 517 LINE",
"379 447 OFFCURVE",
"352 330 OFFCURVE",
"321 229 OFFCURVE",
"286 144 OFFCURVE",
"267 106 QCURVE",
"263 106 LINE",
"258 148 OFFCURVE",
"232 261 OFFCURVE",
"196 377 OFFCURVE",
"155 482 OFFCURVE",
"134 517 QCURVE",
"40 517 LINE",
"67 467 OFFCURVE",
"124 322 OFFCURVE",
"171 163 OFFCURVE",
"201 8 OFFCURVE",
"201 -52 QCURVE SMOOTH",
"201 -198 LINE",
"289 -198 LINE",
"289 -12 LINE",
"315 31 OFFCURVE",
"371 140 OFFCURVE",
"422 272 OFFCURVE",
"465 428 OFFCURVE",
"479 517 QCURVE",
"479 517 LINE"
);
}
);
userData = {
assembly = "PUSHW[ ]	/* 1 value pushed */\01220 \012CALL[ ]	/* CallFunction */\012PUSHW[ ]	/* 4 values pushed */\0126 3 7 24 \012CALL[ ]	/* CallFunction */\012SVTCA[0]	/* SetFreedomAndProjectionVectorToAxis */\012PUSHW[ ]	/* 1 value pushed */\01219 \012MDAP[1]	/* MoveDirectAbsPt */\012PUSHW[ ]	/* 1 value pushed */\0121 \012RCVT[ ]	/* ReadCVT */\012IF[ ]	/* If */\012PUSHW[ ]	/* 1 value pushed */\0120 \012MDAP[1]	/* MoveDirectAbsPt */\012ELSE[ ]	/* Else */\012PUSHW[ ]	/* 2 values pushed */\0120 8 \012MIAP[0]	/* MoveIndirectAbsPt */\012EIF[ ]	/* EndIf */\012PUSHW[ ]	/* 1 value pushed */\0121 \012RCVT[ ]	/* ReadCVT */\012IF[ ]	/* If */\012PUSHW[ ]	/* 1 value pushed */\01213 \012MDAP[1]	/* MoveDirectAbsPt */\012ELSE[ ]	/* Else */\012PUSHW[ ]	/* 2 values pushed */\01213 8 \012MIAP[0]	/* MoveIndirectAbsPt */\012EIF[ ]	/* EndIf */\012PUSHW[ ]	/* 1 value pushed */\0121 \012RCVT[ ]	/* ReadCVT */\012IF[ ]	/* If */\012PUSHW[ ]	/* 1 value pushed */\0126 \012MDAP[1]	/* MoveDirectAbsPt */\012ELSE[ ]	/* Else */\012PUSHW[ ]	/* 2 values pushed */\0126 6 \012MIAP[0]	/* MoveIndirectAbsPt */\012EIF[ ]	/* EndIf */\012IUP[0]	/* InterpolateUntPts */\012IUP[1]	/* InterpolateUntPts */";
};
width = 519;
}
);
note = uni03B3;
unicode = 03B3;
},
{
glyphname = uni03B4;
lastChange = "2020-08-12 05:57:25 +0000";
layers = (
{
layerId = "A36D14D1-FF07-4574-A62D-30DF65569781";
paths = (
{
closed = 1;
nodes = (
"40 194 OFFCURVE",
"71 99 OFFCURVE",
"133 28 OFFCURVE",
"225 -12 OFFCURVE",
"287 -12 QCURVE SMOOTH",
"348 -12 OFFCURVE",
"437 30 OFFCURVE",
"495 100 OFFCURVE",
"522 194 OFFCURVE",
"522 247 QCURVE SMOOTH",
"522 296 OFFCURVE",
"491 373 OFFCURVE",
"440 433 OFFCURVE",
"375 482 OFFCURVE",
"341 503 QCURVE SMOOTH",
"306 525 LINE SMOOTH",
"261 553 OFFCURVE",
"210 593 OFFCURVE",
"210 611 QCURVE SMOOTH",
"210 640 OFFCURVE",
"262 660 OFFCURVE",
"300 660 QCURVE SMOOTH",
"313 660 OFFCURVE",
"352 655 OFFCURVE",
"394 646 OFFCURVE",
"436 633 OFFCURVE",
"453 626 QCURVE",
"453 701 LINE",
"421 717 OFFCURVE",
"334 731 OFFCURVE",
"300 731 QCURVE SMOOTH",
"250 731 OFFCURVE",
"182 710 OFFCURVE",
"142 677 OFFCURVE",
"124 638 OFFCURVE",
"123 620 QCURVE SMOOTH",
"122 603 OFFCURVE",
"131 571 OFFCURVE",
"154 538 OFFCURVE",
"194 504 OFFCURVE",
"225 486 QCURVE",
"134 464 OFFCURVE",
"40 340 OFFCURVE",
"40 249 QCURVE",
"40 249 LINE"
);
},
{
closed = 1;
nodes = (
"130 332 OFFCURVE",
"204 432 OFFCURVE",
"288 446 QCURVE",
"368 401 OFFCURVE",
"432 304 OFFCURVE",
"432 247 QCURVE SMOOTH",
"432 159 OFFCURVE",
"354 63 OFFCURVE",
"287 63 QCURVE SMOOTH",
"217 63 OFFCURVE",
"130 156 OFFCURVE",
"130 249 QCURVE",
"130 249 LINE"
);
}
);
userData = {
assembly = "PUSHW[ ]	/* 1 value pushed */\01220 \012CALL[ ]	/* CallFunction */\012PUSHW[ ]	/* 4 values pushed */\01244 3 0 24 \012CALL[ ]	/* CallFunction */\012PUSHW[ ]	/* 4 values pushed */\01234 3 50 24 \012CALL[ ]	/* CallFunction */\012PUSHW[ ]	/* 1 value pushed */\01244 \012SRP0[ ]	/* SetRefPoint0 */\012PUSHW[ ]	/* 1 value pushed */\0128 \012MDRP[10000]	/* MoveDirectRelPt */\012PUSHW[ ]	/* 1 value pushed */\0128 \012MDAP[1]	/* MoveDirectAbsPt */\012PUSHW[ ]	/* 1 value pushed */\01244 \012SRP0[ ]	/* SetRefPoint0 */\012PUSHW[ ]	/* 2 values pushed */\01225 3 \012MIRP[10100]	/* MoveIndirectRelPt */\012SVTCA[0]	/* SetFreedomAndProjectionVectorToAxis */\012PUSHW[ ]	/* 1 value pushed */\0121 \012RCVT[ ]	/* ReadCVT */\012IF[ ]	/* If */\012PUSHW[ ]	/* 1 value pushed */\01213 \012MDAP[1]	/* MoveDirectAbsPt */\012ELSE[ ]	/* Else */\012PUSHW[ ]	/* 2 values pushed */\01213 10 \012MIAP[0]	/* MoveIndirectAbsPt */\012EIF[ ]	/* EndIf */\012PUSHW[ ]	/* 1 value pushed */\0121 \012RCVT[ ]	/* ReadCVT */\012IF[ ]	/* If */\012PUSHW[ ]	/* 1 value pushed */\01239 \012MDAP[1]	/* MoveDirectAbsPt */\012ELSE[ ]	/* Else */\012PUSHW[ ]	/* 2 values pushed */\01239 4 \012MIAP[0]	/* MoveIndirectAbsPt */\012EIF[ ]	/* EndIf */\012PUSHW[ ]	/* 1 value pushed */\01213 \012SRP0[ ]	/* SetRefPoint0 */\012PUSHW[ ]	/* 2 values pushed */\01222 2 \012MIRP[10100]	/* MoveIndirectRelPt */\012PUSHW[ ]	/* 1 value pushed */\01239 \012SRP0[ ]	/* SetRefPoint0 */\012PUSHW[ ]	/* 2 values pushed */\01247 2 \012MIRP[10100]	/* MoveIndirectRelPt */\012IUP[0]	/* InterpolateUntPts */\012IUP[1]	/* InterpolateUntPts */";
};
width = 562;
}
);
note = uni03B4;
unicode = 03B4;
},
{
glyphname = uni03B5;
lastChange = "2020-08-12 05:57:25 +0000";
layers = (
{
layerId = "A36D14D1-FF07-4574-A62D-30DF65569781";
paths = (
{
closed = 1;
nodes = (
"456 378 LINE",
"444 458 OFFCURVE",
"342 529 OFFCURVE",
"258 529 QCURVE SMOOTH",
"217 529 OFFCURVE",
"145 509 OFFCURVE",
"89 470 OFFCURVE",
"57 414 OFFCURVE",
"57 377 QCURVE SMOOTH",
"57 334 OFFCURVE",
"97 281 OFFCURVE",
"132 270 QCURVE",
"132 268 LINE",
"93 259 OFFCURVE",
"40 196 OFFCURVE",
"40 146 QCURVE SMOOTH",
"40 102 OFFCURVE",
"76 42 OFFCURVE",
"134 5 OFFCURVE",
"206 -12 OFFCURVE",
"243 -12 QCURVE SMOOTH",
"343 -12 OFFCURVE",
"465 69 OFFCURVE",
"479 164 QCURVE",
"392 164 LINE",
"387 133 OFFCURVE",
"363 93 OFFCURVE",
"329 70 OFFCURVE",
"285 61 OFFCURVE",
"260 61 QCURVE SMOOTH",
"202 61 OFFCURVE",
"131 103 OFFCURVE",
"131 151 QCURVE SMOOTH",
"131 190 OFFCURVE",
"178 233 OFFCURVE",
"230 233 QCURVE SMOOTH",
"309 233 LINE",
"309 306 LINE",
"228 306 LINE SMOOTH",
"190 306 OFFCURVE",
"146 341 OFFCURVE",
"146 379 QCURVE SMOOTH",
"146 421 OFFCURVE",
"208 456 OFFCURVE",
"258 456 QCURVE SMOOTH",
"310 456 OFFCURVE",
"365 419 OFFCURVE",
"372 378 QCURVE",
"372 378 LINE"
);
}
);
userData = {
assembly = "PUSHW[ ]	/* 1 value pushed */\01220 \012CALL[ ]	/* CallFunction */\012PUSHW[ ]	/* 4 values pushed */\01215 3 32 24 \012CALL[ ]	/* CallFunction */\012PUSHW[ ]	/* 4 values pushed */\0126 3 39 24 \012CALL[ ]	/* CallFunction */\012SVTCA[0]	/* SetFreedomAndProjectionVectorToAxis */\012PUSHW[ ]	/* 1 value pushed */\0121 \012RCVT[ ]	/* ReadCVT */\012IF[ ]	/* If */\012PUSHW[ ]	/* 1 value pushed */\01244 \012MDAP[1]	/* MoveDirectAbsPt */\012ELSE[ ]	/* Else */\012PUSHW[ ]	/* 2 values pushed */\01244 8 \012MIAP[0]	/* MoveIndirectAbsPt */\012EIF[ ]	/* EndIf */\012PUSHW[ ]	/* 1 value pushed */\0121 \012RCVT[ ]	/* ReadCVT */\012IF[ ]	/* If */\012PUSHW[ ]	/* 1 value pushed */\01227 \012MDAP[1]	/* MoveDirectAbsPt */\012ELSE[ ]	/* Else */\012PUSHW[ ]	/* 2 values pushed */\01227 4 \012MIAP[0]	/* MoveIndirectAbsPt */\012EIF[ ]	/* EndIf */\012PUSHW[ ]	/* 4 values pushed */\01210 2 11 24 \012CALL[ ]	/* CallFunction */\012PUSHW[ ]	/* 1 value pushed */\01244 \012SRP0[ ]	/* SetRefPoint0 */\012PUSHW[ ]	/* 1 value pushed */\0120 \012MDRP[11100]	/* MoveDirectRelPt */\012PUSHW[ ]	/* 1 value pushed */\01244 \012SRP0[ ]	/* SetRefPoint0 */\012PUSHW[ ]	/* 2 values pushed */\0123 2 \012MIRP[10100]	/* MoveIndirectRelPt */\012PUSHW[ ]	/* 1 value pushed */\01227 \012SRP0[ ]	/* SetRefPoint0 */\012PUSHW[ ]	/* 2 values pushed */\01218 2 \012MIRP[10100]	/* MoveIndirectRelPt */\012PUSHW[ ]	/* 1 value pushed */\01227 \012SRP0[ ]	/* SetRefPoint0 */\012PUSHW[ ]	/* 1 value pushed */\01223 \012MDRP[11100]	/* MoveDirectRelPt */\012IUP[0]	/* InterpolateUntPts */\012IUP[1]	/* InterpolateUntPts */";
};
width = 519;
}
);
note = uni03B5;
unicode = 03B5;
},
{
glyphname = uni03B6;
lastChange = "2020-08-12 05:57:25 +0000";
layers = (
{
layerId = "A36D14D1-FF07-4574-A62D-30DF65569781";
paths = (
{
closed = 1;
nodes = (
"292 74 LINE SMOOTH",
"208 74 OFFCURVE",
"133 170 OFFCURVE",
"130 262 QCURVE SMOOTH",
"128 324 OFFCURVE",
"161 435 OFFCURVE",
"235 531 OFFCURVE",
"352 613 OFFCURVE",
"435 646 QCURVE",
"435 714 LINE",
"87 714 LINE",
"87 639 LINE",
"290 639 LINE",
"168 586 OFFCURVE",
"40 389 OFFCURVE",
"40 262 QCURVE SMOOTH",
"40 139 OFFCURVE",
"161 0 OFFCURVE",
"270 0 QCURVE SMOOTH",
"305 0 LINE SMOOTH",
"320 0 OFFCURVE",
"338 -12 OFFCURVE",
"347 -31 OFFCURVE",
"349 -55 OFFCURVE",
"349 -66 QCURVE SMOOTH",
"349 -82 OFFCURVE",
"344 -123 OFFCURVE",
"337 -154 QCURVE",
"419 -154 LINE",
"427 -125 OFFCURVE",
"431 -80 OFFCURVE",
"431 -51 QCURVE SMOOTH",
"431 9 OFFCURVE",
"374 74 OFFCURVE",
"307 74 QCURVE",
"307 74 LINE"
);
}
);
userData = {
assembly = "PUSHW[ ]	/* 1 value pushed */\01220 \012CALL[ ]	/* CallFunction */\012PUSHW[ ]	/* 4 values pushed */\01231 3 19 24 \012CALL[ ]	/* CallFunction */\012SVTCA[0]	/* SetFreedomAndProjectionVectorToAxis */\012PUSHW[ ]	/* 1 value pushed */\0126 \012MDAP[1]	/* MoveDirectAbsPt */\012PUSHW[ ]	/* 1 value pushed */\0121 \012RCVT[ ]	/* ReadCVT */\012IF[ ]	/* If */\012PUSHW[ ]	/* 1 value pushed */\01224 \012MDAP[1]	/* MoveDirectAbsPt */\012ELSE[ ]	/* Else */\012PUSHW[ ]	/* 2 values pushed */\01224 10 \012MIAP[0]	/* MoveIndirectAbsPt */\012EIF[ ]	/* EndIf */\012PUSHW[ ]	/* 1 value pushed */\0121 \012RCVT[ ]	/* ReadCVT */\012IF[ ]	/* If */\012PUSHW[ ]	/* 1 value pushed */\01215 \012MDAP[1]	/* MoveDirectAbsPt */\012ELSE[ ]	/* Else */\012PUSHW[ ]	/* 2 values pushed */\01215 4 \012MIAP[0]	/* MoveIndirectAbsPt */\012EIF[ ]	/* EndIf */\012PUSHW[ ]	/* 2 values pushed */\0120 2 \012MIRP[10100]	/* MoveIndirectRelPt */\012PUSHW[ ]	/* 1 value pushed */\01224 \012SRP0[ ]	/* SetRefPoint0 */\012PUSHW[ ]	/* 2 values pushed */\01222 2 \012MIRP[10100]	/* MoveIndirectRelPt */\012IUP[0]	/* InterpolateUntPts */\012IUP[1]	/* InterpolateUntPts */";
};
width = 475;
}
);
note = uni03B6;
unicode = 03B6;
},
{
glyphname = uni03B7;
lastChange = "2020-08-10 01:56:02 +0000";
layers = (
{
layerId = "A36D14D1-FF07-4574-A62D-30DF65569781";
paths = (
{
closed = 1;
nodes = (
"60 0 LINE",
"145 0 LINE",
"145 292 LINE SMOOTH",
"145 327 OFFCURVE",
"164 386 OFFCURVE",
"202 430 OFFCURVE",
"259 454 OFFCURVE",
"298 454 QCURVE SMOOTH",
"347 454 OFFCURVE",
"403 398 OFFCURVE",
"403 350 QCURVE SMOOTH",
"403 -198 LINE",
"488 -198 LINE",
"488 340 LINE SMOOTH",
"488 382 OFFCURVE",
"471 451 OFFCURVE",
"429 501 OFFCURVE",
"361 529 OFFCURVE",
"310 529 QCURVE SMOOTH",
"195 529 OFFCURVE",
"142 435 QCURVE",
"140 435 LINE",
"140 517 LINE",
"60 517 LINE",
"60 517 LINE"
);
}
);
userData = {
assembly = "PUSHW[ ]	/* 1 value pushed */\01220 \012CALL[ ]	/* CallFunction */\012PUSHW[ ]	/* 1 value pushed */\01224 \012MDAP[1]	/* MoveDirectAbsPt */\012PUSHW[ ]	/* 1 value pushed */\01212 \012MDAP[1]	/* MoveDirectAbsPt */\012PUSHW[ ]	/* 1 value pushed */\01224 \012SRP0[ ]	/* SetRefPoint0 */\012PUSHW[ ]	/* 1 value pushed */\0120 \012MDRP[10000]	/* MoveDirectRelPt */\012PUSHW[ ]	/* 1 value pushed */\0120 \012MDAP[1]	/* MoveDirectAbsPt */\012PUSHW[ ]	/* 2 values pushed */\01221 3 \012MIRP[10100]	/* MoveIndirectRelPt */\012PUSHW[ ]	/* 1 value pushed */\0122 \012MDRP[10000]	/* MoveDirectRelPt */\012PUSHW[ ]	/* 1 value pushed */\0122 \012MDAP[1]	/* MoveDirectAbsPt */\012PUSHW[ ]	/* 1 value pushed */\01212 \012SRP0[ ]	/* SetRefPoint0 */\012PUSHW[ ]	/* 2 values pushed */\01211 3 \012MIRP[10100]	/* MoveIndirectRelPt */\012SVTCA[0]	/* SetFreedomAndProjectionVectorToAxis */\012PUSHW[ ]	/* 1 value pushed */\0121 \012RCVT[ ]	/* ReadCVT */\012IF[ ]	/* If */\012PUSHW[ ]	/* 1 value pushed */\0120 \012MDAP[1]	/* MoveDirectAbsPt */\012ELSE[ ]	/* Else */\012PUSHW[ ]	/* 2 values pushed */\0120 8 \012MIAP[0]	/* MoveIndirectAbsPt */\012EIF[ ]	/* EndIf */\012PUSHW[ ]	/* 1 value pushed */\0121 \012RCVT[ ]	/* ReadCVT */\012IF[ ]	/* If */\012PUSHW[ ]	/* 1 value pushed */\0125 \012MDAP[1]	/* MoveDirectAbsPt */\012ELSE[ ]	/* Else */\012PUSHW[ ]	/* 2 values pushed */\0125 8 \012MIAP[0]	/* MoveIndirectAbsPt */\012EIF[ ]	/* EndIf */\012PUSHW[ ]	/* 1 value pushed */\0121 \012RCVT[ ]	/* ReadCVT */\012IF[ ]	/* If */\012PUSHW[ ]	/* 1 value pushed */\01211 \012MDAP[1]	/* MoveDirectAbsPt */\012ELSE[ ]	/* Else */\012PUSHW[ ]	/* 2 values pushed */\01211 6 \012MIAP[0]	/* MoveIndirectAbsPt */\012EIF[ ]	/* EndIf */\012PUSHW[ ]	/* 1 value pushed */\0121 \012RCVT[ ]	/* ReadCVT */\012IF[ ]	/* If */\012PUSHW[ ]	/* 1 value pushed */\01222 \012MDAP[1]	/* MoveDirectAbsPt */\012ELSE[ ]	/* Else */\012PUSHW[ ]	/* 2 values pushed */\01222 4 \012MIAP[0]	/* MoveIndirectAbsPt */\012EIF[ ]	/* EndIf */\012PUSHW[ ]	/* 1 value pushed */\0125 \012SRP0[ ]	/* SetRefPoint0 */\012PUSHW[ ]	/* 2 values pushed */\01216 2 \012MIRP[10100]	/* MoveIndirectRelPt */\012IUP[0]	/* InterpolateUntPts */\012IUP[1]	/* InterpolateUntPts */";
};
width = 548;
}
);
note = uni03B7;
unicode = 03B7;
},
{
glyphname = uni03B8;
lastChange = "2020-08-12 05:57:25 +0000";
layers = (
{
layerId = "A36D14D1-FF07-4574-A62D-30DF65569781";
paths = (
{
closed = 1;
nodes = (
"206 731 OFFCURVE",
"118 676 OFFCURVE",
"64 578 OFFCURVE",
"40 441 OFFCURVE",
"40 359 QCURVE SMOOTH",
"40 278 OFFCURVE",
"63 141 OFFCURVE",
"117 43 OFFCURVE",
"205 -12 OFFCURVE",
"271 -12 QCURVE SMOOTH",
"335 -12 OFFCURVE",
"424 41 OFFCURVE",
"478 139 OFFCURVE",
"502 275 OFFCURVE",
"502 359 QCURVE SMOOTH",
"502 443 OFFCURVE",
"479 581 OFFCURVE",
"425 678 OFFCURVE",
"336 731 OFFCURVE",
"271 731 QCURVE",
"271 731 LINE"
);
},
{
closed = 1;
nodes = (
"131 400 LINE",
"133 461 OFFCURVE",
"147 556 OFFCURVE",
"178 622 OFFCURVE",
"230 656 OFFCURVE",
"271 656 QCURVE SMOOTH",
"309 656 OFFCURVE",
"360 622 OFFCURVE",
"392 556 OFFCURVE",
"407 461 OFFCURVE",
"410 400 QCURVE",
"410 400 LINE"
);
},
{
closed = 1;
nodes = (
"232 63 OFFCURVE",
"180 91 OFFCURVE",
"148 154 OFFCURVE",
"132 257 OFFCURVE",
"131 333 QCURVE",
"411 333 LINE",
"408 257 OFFCURVE",
"393 154 OFFCURVE",
"362 91 OFFCURVE",
"311 63 OFFCURVE",
"271 63 QCURVE",
"271 63 LINE"
);
}
);
userData = {
assembly = "PUSHW[ ]	/* 1 value pushed */\01220 \012CALL[ ]	/* CallFunction */\012PUSHW[ ]	/* 1 value pushed */\01242 \012MDAP[1]	/* MoveDirectAbsPt */\012PUSHW[ ]	/* 1 value pushed */\01236 \012MDAP[1]	/* MoveDirectAbsPt */\012PUSHW[ ]	/* 2 values pushed */\0125 3 \012MIRP[10100]	/* MoveIndirectRelPt */\012PUSHW[ ]	/* 1 value pushed */\01242 \012SRP0[ ]	/* SetRefPoint0 */\012PUSHW[ ]	/* 1 value pushed */\01215 \012MDRP[10000]	/* MoveDirectRelPt */\012PUSHW[ ]	/* 1 value pushed */\01215 \012MDAP[1]	/* MoveDirectAbsPt */\012PUSHW[ ]	/* 1 value pushed */\01236 \012SRP0[ ]	/* SetRefPoint0 */\012PUSHW[ ]	/* 1 value pushed */\01220 \012MDRP[10000]	/* MoveDirectRelPt */\012PUSHW[ ]	/* 1 value pushed */\01220 \012MDAP[1]	/* MoveDirectAbsPt */\012PUSHW[ ]	/* 1 value pushed */\01215 \012SRP0[ ]	/* SetRefPoint0 */\012PUSHW[ ]	/* 2 values pushed */\01237 3 \012MIRP[10100]	/* MoveIndirectRelPt */\012PUSHW[ ]	/* 1 value pushed */\01230 \012MDRP[10000]	/* MoveDirectRelPt */\012SVTCA[0]	/* SetFreedomAndProjectionVectorToAxis */\012PUSHW[ ]	/* 1 value pushed */\0121 \012RCVT[ ]	/* ReadCVT */\012IF[ ]	/* If */\012PUSHW[ ]	/* 1 value pushed */\0120 \012MDAP[1]	/* MoveDirectAbsPt */\012ELSE[ ]	/* Else */\012PUSHW[ ]	/* 2 values pushed */\0120 10 \012MIAP[0]	/* MoveIndirectAbsPt */\012EIF[ ]	/* EndIf */\012PUSHW[ ]	/* 1 value pushed */\0121 \012RCVT[ ]	/* ReadCVT */\012IF[ ]	/* If */\012PUSHW[ ]	/* 1 value pushed */\01210 \012MDAP[1]	/* MoveDirectAbsPt */\012ELSE[ ]	/* Else */\012PUSHW[ ]	/* 2 values pushed */\01210 4 \012MIAP[0]	/* MoveIndirectAbsPt */\012EIF[ ]	/* EndIf */\012PUSHW[ ]	/* 4 values pushed */\01220 2 36 24 \012CALL[ ]	/* CallFunction */\012PUSHW[ ]	/* 1 value pushed */\0120 \012SRP0[ ]	/* SetRefPoint0 */\012PUSHW[ ]	/* 2 values pushed */\01225 2 \012MIRP[10100]	/* MoveIndirectRelPt */\012PUSHW[ ]	/* 1 value pushed */\01210 \012SRP0[ ]	/* SetRefPoint0 */\012PUSHW[ ]	/* 2 values pushed */\01231 2 \012MIRP[10100]	/* MoveIndirectRelPt */\012IUP[0]	/* InterpolateUntPts */\012IUP[1]	/* InterpolateUntPts */";
};
width = 542;
}
);
note = uni03B8;
unicode = 03B8;
},
{
glyphname = uni03B9;
lastChange = "2020-08-12 05:57:25 +0000";
layers = (
{
layerId = "A36D14D1-FF07-4574-A62D-30DF65569781";
paths = (
{
closed = 1;
nodes = (
"60 517 LINE",
"60 90 LINE SMOOTH",
"60 37 OFFCURVE",
"104 -12 OFFCURVE",
"149 -12 QCURVE SMOOTH",
"169 -12 OFFCURVE",
"199 -6 OFFCURVE",
"215 1 QCURVE",
"215 67 LINE",
"205 65 OFFCURVE",
"188 62 OFFCURVE",
"180 62 QCURVE SMOOTH",
"145 62 OFFCURVE",
"145 112 QCURVE SMOOTH",
"145 517 LINE",
"145 517 LINE"
);
}
);
userData = {
assembly = "PUSHW[ ]	/* 1 value pushed */\01220 \012CALL[ ]	/* CallFunction */\012PUSHW[ ]	/* 4 values pushed */\0121 3 13 24 \012CALL[ ]	/* CallFunction */\012SVTCA[0]	/* SetFreedomAndProjectionVectorToAxis */\012PUSHW[ ]	/* 1 value pushed */\0123 \012MDAP[1]	/* MoveDirectAbsPt */\012PUSHW[ ]	/* 1 value pushed */\0126 \012MDAP[1]	/* MoveDirectAbsPt */\012PUSHW[ ]	/* 1 value pushed */\0121 \012RCVT[ ]	/* ReadCVT */\012IF[ ]	/* If */\012PUSHW[ ]	/* 1 value pushed */\0120 \012MDAP[1]	/* MoveDirectAbsPt */\012ELSE[ ]	/* Else */\012PUSHW[ ]	/* 2 values pushed */\0120 8 \012MIAP[0]	/* MoveIndirectAbsPt */\012EIF[ ]	/* EndIf */\012PUSHW[ ]	/* 1 value pushed */\0121 \012RCVT[ ]	/* ReadCVT */\012IF[ ]	/* If */\012PUSHW[ ]	/* 1 value pushed */\01210 \012MDAP[1]	/* MoveDirectAbsPt */\012ELSE[ ]	/* Else */\012PUSHW[ ]	/* 2 values pushed */\01210 4 \012MIAP[0]	/* MoveIndirectAbsPt */\012EIF[ ]	/* EndIf */\012IUP[0]	/* InterpolateUntPts */\012IUP[1]	/* InterpolateUntPts */";
};
width = 255;
}
);
note = uni03B9;
unicode = 03B9;
},
{
glyphname = uni03BA;
lastChange = "2020-08-12 05:57:25 +0000";
layers = (
{
layerId = "A36D14D1-FF07-4574-A62D-30DF65569781";
paths = (
{
closed = 1;
nodes = (
"60 0 LINE",
"145 0 LINE",
"145 182 LINE",
"224 257 LINE",
"402 0 LINE",
"510 0 LINE",
"286 318 LINE",
"495 517 LINE",
"381 517 LINE",
"145 278 LINE",
"145 517 LINE",
"60 517 LINE",
"60 517 LINE"
);
}
);
userData = {
assembly = "PUSHW[ ]	/* 1 value pushed */\01220 \012CALL[ ]	/* CallFunction */\012PUSHW[ ]	/* 4 values pushed */\0121 3 0 24 \012CALL[ ]	/* CallFunction */\012PUSHW[ ]	/* 1 value pushed */\0121 \012SRP0[ ]	/* SetRefPoint0 */\012PUSHW[ ]	/* 1 value pushed */\0129 \012MDRP[10000]	/* MoveDirectRelPt */\012SVTCA[0]	/* SetFreedomAndProjectionVectorToAxis */\012PUSHW[ ]	/* 1 value pushed */\0121 \012RCVT[ ]	/* ReadCVT */\012IF[ ]	/* If */\012PUSHW[ ]	/* 1 value pushed */\0120 \012MDAP[1]	/* MoveDirectAbsPt */\012ELSE[ ]	/* Else */\012PUSHW[ ]	/* 2 values pushed */\0120 8 \012MIAP[0]	/* MoveIndirectAbsPt */\012EIF[ ]	/* EndIf */\012PUSHW[ ]	/* 1 value pushed */\0121 \012RCVT[ ]	/* ReadCVT */\012IF[ ]	/* If */\012PUSHW[ ]	/* 1 value pushed */\0123 \012MDAP[1]	/* MoveDirectAbsPt */\012ELSE[ ]	/* Else */\012PUSHW[ ]	/* 2 values pushed */\0123 8 \012MIAP[0]	/* MoveIndirectAbsPt */\012EIF[ ]	/* EndIf */\012PUSHW[ ]	/* 1 value pushed */\0121 \012RCVT[ ]	/* ReadCVT */\012IF[ ]	/* If */\012PUSHW[ ]	/* 1 value pushed */\0126 \012MDAP[1]	/* MoveDirectAbsPt */\012ELSE[ ]	/* Else */\012PUSHW[ ]	/* 2 values pushed */\0126 4 \012MIAP[0]	/* MoveIndirectAbsPt */\012EIF[ ]	/* EndIf */\012PUSHW[ ]	/* 1 value pushed */\0121 \012RCVT[ ]	/* ReadCVT */\012IF[ ]	/* If */\012PUSHW[ ]	/* 1 value pushed */\01210 \012MDAP[1]	/* MoveDirectAbsPt */\012ELSE[ ]	/* Else */\012PUSHW[ ]	/* 2 values pushed */\01210 4 \012MIAP[0]	/* MoveIndirectAbsPt */\012EIF[ ]	/* EndIf */\012IUP[0]	/* InterpolateUntPts */\012IUP[1]	/* InterpolateUntPts */";
};
width = 550;
}
);
note = uni03BA;
unicode = 03BA;
},
{
glyphname = uni03BB;
lastChange = "2020-08-12 05:57:25 +0000";
layers = (
{
layerId = "A36D14D1-FF07-4574-A62D-30DF65569781";
paths = (
{
closed = 1;
nodes = (
"296 593 LINE SMOOTH",
"282 631 OFFCURVE",
"255 684 OFFCURVE",
"222 717 OFFCURVE",
"179 731 OFFCURVE",
"151 731 QCURVE SMOOTH",
"116 731 OFFCURVE",
"86 720 QCURVE",
"86 650 LINE",
"111 656 OFFCURVE",
"134 656 QCURVE SMOOTH",
"160 656 OFFCURVE",
"190 634 OFFCURVE",
"200 609 QCURVE SMOOTH",
"247 486 LINE",
"40 0 LINE",
"137 0 LINE",
"286 392 LINE",
"288 392 LINE",
"406 43 LINE SMOOTH",
"416 15 OFFCURVE",
"454 -12 OFFCURVE",
"487 -12 QCURVE SMOOTH",
"505 -12 OFFCURVE",
"526 -6 OFFCURVE",
"540 1 QCURVE",
"540 67 LINE",
"530 64 OFFCURVE",
"516 62 OFFCURVE",
"508 62 QCURVE SMOOTH",
"498 62 OFFCURVE",
"485 68 OFFCURVE",
"480 79 QCURVE",
"480 79 LINE"
);
}
);
userData = {
assembly = "PUSHW[ ]	/* 1 value pushed */\01220 \012CALL[ ]	/* CallFunction */\012SVTCA[0]	/* SetFreedomAndProjectionVectorToAxis */\012PUSHW[ ]	/* 1 value pushed */\0123 \012MDAP[1]	/* MoveDirectAbsPt */\012PUSHW[ ]	/* 1 value pushed */\0126 \012MDAP[1]	/* MoveDirectAbsPt */\012PUSHW[ ]	/* 1 value pushed */\0121 \012RCVT[ ]	/* ReadCVT */\012IF[ ]	/* If */\012PUSHW[ ]	/* 1 value pushed */\01227 \012MDAP[1]	/* MoveDirectAbsPt */\012ELSE[ ]	/* Else */\012PUSHW[ ]	/* 2 values pushed */\01227 10 \012MIAP[0]	/* MoveIndirectAbsPt */\012EIF[ ]	/* EndIf */\012PUSHW[ ]	/* 1 value pushed */\0121 \012RCVT[ ]	/* ReadCVT */\012IF[ ]	/* If */\012PUSHW[ ]	/* 1 value pushed */\01210 \012MDAP[1]	/* MoveDirectAbsPt */\012ELSE[ ]	/* Else */\012PUSHW[ ]	/* 2 values pushed */\01210 4 \012MIAP[0]	/* MoveIndirectAbsPt */\012EIF[ ]	/* EndIf */\012PUSHW[ ]	/* 1 value pushed */\0121 \012RCVT[ ]	/* ReadCVT */\012IF[ ]	/* If */\012PUSHW[ ]	/* 1 value pushed */\0127 \012MDAP[1]	/* MoveDirectAbsPt */\012ELSE[ ]	/* Else */\012PUSHW[ ]	/* 2 values pushed */\0127 4 \012MIAP[0]	/* MoveIndirectAbsPt */\012EIF[ ]	/* EndIf */\012PUSHW[ ]	/* 1 value pushed */\0121 \012RCVT[ ]	/* ReadCVT */\012IF[ ]	/* If */\012PUSHW[ ]	/* 1 value pushed */\01216 \012MDAP[1]	/* MoveDirectAbsPt */\012ELSE[ ]	/* Else */\012PUSHW[ ]	/* 2 values pushed */\01216 4 \012MIAP[0]	/* MoveIndirectAbsPt */\012EIF[ ]	/* EndIf */\012IUP[0]	/* InterpolateUntPts */\012IUP[1]	/* InterpolateUntPts */";
};
width = 580;
}
);
note = uni03BB;
unicode = 03BB;
},
{
glyphname = uni03BC;
lastChange = "2020-08-10 01:56:02 +0000";
layers = (
{
layerId = "A36D14D1-FF07-4574-A62D-30DF65569781";
paths = (
{
closed = 1;
nodes = (
"485 517 LINE",
"400 517 LINE",
"400 225 LINE SMOOTH",
"400 190 OFFCURVE",
"381 131 OFFCURVE",
"343 87 OFFCURVE",
"286 63 OFFCURVE",
"248 63 QCURVE SMOOTH",
"200 63 OFFCURVE",
"145 119 OFFCURVE",
"145 167 QCURVE SMOOTH",
"145 517 LINE",
"60 517 LINE",
"60 -198 LINE",
"145 -198 LINE",
"145 23 LINE",
"147 23 LINE",
"164 6 OFFCURVE",
"215 -12 OFFCURVE",
"246 -12 QCURVE SMOOTH",
"293 -12 OFFCURVE",
"374 34 OFFCURVE",
"403 82 QCURVE",
"405 82 LINE",
"405 0 LINE",
"485 0 LINE",
"485 0 LINE"
);
}
);
userData = {
assembly = "PUSHW[ ]	/* 1 value pushed */\01220 \012CALL[ ]	/* CallFunction */\012PUSHW[ ]	/* 1 value pushed */\01226 \012MDAP[1]	/* MoveDirectAbsPt */\012PUSHW[ ]	/* 1 value pushed */\01223 \012MDAP[1]	/* MoveDirectAbsPt */\012PUSHW[ ]	/* 2 values pushed */\0120 3 \012MIRP[10100]	/* MoveIndirectRelPt */\012PUSHW[ ]	/* 1 value pushed */\01223 \012SRP0[ ]	/* SetRefPoint0 */\012PUSHW[ ]	/* 1 value pushed */\0122 \012MDRP[10000]	/* MoveDirectRelPt */\012PUSHW[ ]	/* 1 value pushed */\0122 \012MDAP[1]	/* MoveDirectAbsPt */\012PUSHW[ ]	/* 1 value pushed */\01226 \012SRP0[ ]	/* SetRefPoint0 */\012PUSHW[ ]	/* 1 value pushed */\01212 \012MDRP[10000]	/* MoveDirectRelPt */\012PUSHW[ ]	/* 1 value pushed */\01212 \012MDAP[1]	/* MoveDirectAbsPt */\012PUSHW[ ]	/* 2 values pushed */\01211 3 \012MIRP[10100]	/* MoveIndirectRelPt */\012PUSHW[ ]	/* 1 value pushed */\0129 \012MDRP[10000]	/* MoveDirectRelPt */\012PUSHW[ ]	/* 1 value pushed */\0129 \012MDAP[1]	/* MoveDirectAbsPt */\012PUSHW[ ]	/* 1 value pushed */\01211 \012SRP0[ ]	/* SetRefPoint0 */\012PUSHW[ ]	/* 1 value pushed */\01214 \012MDRP[10000]	/* MoveDirectRelPt */\012SVTCA[0]	/* SetFreedomAndProjectionVectorToAxis */\012PUSHW[ ]	/* 1 value pushed */\0122 \012MDAP[1]	/* MoveDirectAbsPt */\012PUSHW[ ]	/* 1 value pushed */\0121 \012RCVT[ ]	/* ReadCVT */\012IF[ ]	/* If */\012PUSHW[ ]	/* 1 value pushed */\01213 \012MDAP[1]	/* MoveDirectAbsPt */\012ELSE[ ]	/* Else */\012PUSHW[ ]	/* 2 values pushed */\01213 8 \012MIAP[0]	/* MoveIndirectAbsPt */\012EIF[ ]	/* EndIf */\012PUSHW[ ]	/* 1 value pushed */\0121 \012RCVT[ ]	/* ReadCVT */\012IF[ ]	/* If */\012PUSHW[ ]	/* 1 value pushed */\01224 \012MDAP[1]	/* MoveDirectAbsPt */\012ELSE[ ]	/* Else */\012PUSHW[ ]	/* 2 values pushed */\01224 8 \012MIAP[0]	/* MoveIndirectAbsPt */\012EIF[ ]	/* EndIf */\012PUSHW[ ]	/* 1 value pushed */\0121 \012RCVT[ ]	/* ReadCVT */\012IF[ ]	/* If */\012PUSHW[ ]	/* 1 value pushed */\01211 \012MDAP[1]	/* MoveDirectAbsPt */\012ELSE[ ]	/* Else */\012PUSHW[ ]	/* 2 values pushed */\01211 6 \012MIAP[0]	/* MoveIndirectAbsPt */\012EIF[ ]	/* EndIf */\012PUSHW[ ]	/* 1 value pushed */\0121 \012RCVT[ ]	/* ReadCVT */\012IF[ ]	/* If */\012PUSHW[ ]	/* 1 value pushed */\0120 \012MDAP[1]	/* MoveDirectAbsPt */\012ELSE[ ]	/* Else */\012PUSHW[ ]	/* 2 values pushed */\0120 4 \012MIAP[0]	/* MoveIndirectAbsPt */\012EIF[ ]	/* EndIf */\012PUSHW[ ]	/* 1 value pushed */\0121 \012RCVT[ ]	/* ReadCVT */\012IF[ ]	/* If */\012PUSHW[ ]	/* 1 value pushed */\0126 \012MDAP[1]	/* MoveDirectAbsPt */\012ELSE[ ]	/* Else */\012PUSHW[ ]	/* 2 values pushed */\0126 4 \012MIAP[0]	/* MoveIndirectAbsPt */\012EIF[ ]	/* EndIf */\012PUSHW[ ]	/* 2 values pushed */\01218 2 \012MIRP[10100]	/* MoveIndirectRelPt */\012IUP[0]	/* InterpolateUntPts */\012IUP[1]	/* InterpolateUntPts */";
};
width = 545;
}
);
note = uni03BC;
unicode = 03BC;
},
{
glyphname = uni03BD;
lastChange = "2020-08-12 05:57:25 +0000";
layers = (
{
layerId = "A36D14D1-FF07-4574-A62D-30DF65569781";
paths = (
{
closed = 1;
nodes = (
"410 517 LINE",
"402 463 OFFCURVE",
"375 350 OFFCURVE",
"340 239 OFFCURVE",
"298 133 OFFCURVE",
"276 87 QCURVE",
"135 517 LINE",
"40 517 LINE",
"226 0 LINE",
"317 0 LINE",
"381 122 OFFCURVE",
"477 385 OFFCURVE",
"498 517 QCURVE",
"498 517 LINE"
);
}
);
userData = {
assembly = "PUSHW[ ]	/* 1 value pushed */\01220 \012CALL[ ]	/* CallFunction */\012SVTCA[0]	/* SetFreedomAndProjectionVectorToAxis */\012PUSHW[ ]	/* 1 value pushed */\0121 \012RCVT[ ]	/* ReadCVT */\012IF[ ]	/* If */\012PUSHW[ ]	/* 1 value pushed */\0120 \012MDAP[1]	/* MoveDirectAbsPt */\012ELSE[ ]	/* Else */\012PUSHW[ ]	/* 2 values pushed */\0120 8 \012MIAP[0]	/* MoveIndirectAbsPt */\012EIF[ ]	/* EndIf */\012PUSHW[ ]	/* 1 value pushed */\0121 \012RCVT[ ]	/* ReadCVT */\012IF[ ]	/* If */\012PUSHW[ ]	/* 1 value pushed */\0125 \012MDAP[1]	/* MoveDirectAbsPt */\012ELSE[ ]	/* Else */\012PUSHW[ ]	/* 2 values pushed */\0125 8 \012MIAP[0]	/* MoveIndirectAbsPt */\012EIF[ ]	/* EndIf */\012PUSHW[ ]	/* 1 value pushed */\0121 \012RCVT[ ]	/* ReadCVT */\012IF[ ]	/* If */\012PUSHW[ ]	/* 1 value pushed */\0123 \012MDAP[1]	/* MoveDirectAbsPt */\012ELSE[ ]	/* Else */\012PUSHW[ ]	/* 2 values pushed */\0123 4 \012MIAP[0]	/* MoveIndirectAbsPt */\012EIF[ ]	/* EndIf */\012IUP[0]	/* InterpolateUntPts */\012IUP[1]	/* InterpolateUntPts */";
};
width = 538;
}
);
note = uni03BD;
unicode = 03BD;
},
{
glyphname = uni03BE;
lastChange = "2020-08-12 05:57:25 +0000";
layers = (
{
layerId = "A36D14D1-FF07-4574-A62D-30DF65569781";
paths = (
{
closed = 1;
nodes = (
"288 4 OFFCURVE",
"323 -3 OFFCURVE",
"341 -22 OFFCURVE",
"345 -50 OFFCURVE",
"345 -66 QCURVE SMOOTH",
"345 -82 OFFCURVE",
"340 -123 OFFCURVE",
"333 -154 QCURVE",
"415 -154 LINE",
"423 -125 OFFCURVE",
"427 -80 OFFCURVE",
"427 -51 QCURVE SMOOTH",
"427 9 OFFCURVE",
"370 74 OFFCURVE",
"303 74 QCURVE",
"222 68 OFFCURVE",
"129 133 OFFCURVE",
"129 205 QCURVE SMOOTH",
"129 272 OFFCURVE",
"204 341 OFFCURVE",
"290 341 QCURVE SMOOTH",
"387 341 LINE",
"387 416 LINE",
"294 416 LINE SMOOTH",
"222 416 OFFCURVE",
"151 479 OFFCURVE",
"151 530 QCURVE SMOOTH",
"151 593 OFFCURVE",
"220 658 OFFCURVE",
"274 658 QCURVE SMOOTH",
"308 658 OFFCURVE",
"380 643 OFFCURVE",
"411 630 QCURVE",
"411 705 LINE",
"381 717 OFFCURVE",
"309 731 OFFCURVE",
"274 731 QCURVE SMOOTH",
"228 731 OFFCURVE",
"151 704 OFFCURVE",
"95 652 OFFCURVE",
"64 578 OFFCURVE",
"64 530 QCURVE SMOOTH",
"64 478 OFFCURVE",
"125 396 OFFCURVE",
"172 381 QCURVE",
"172 379 LINE",
"107 359 OFFCURVE",
"40 267 OFFCURVE",
"40 198 QCURVE SMOOTH",
"40 159 OFFCURVE",
"68 88 OFFCURVE",
"122 33 OFFCURVE",
"203 0 OFFCURVE",
"257 0 QCURVE",
"257 0 LINE"
);
}
);
userData = {
assembly = "PUSHW[ ]	/* 1 value pushed */\01220 \012CALL[ ]	/* CallFunction */\012PUSHW[ ]	/* 4 values pushed */\01236 3 5 24 \012CALL[ ]	/* CallFunction */\012PUSHW[ ]	/* 4 values pushed */\01227 3 12 24 \012CALL[ ]	/* CallFunction */\012PUSHW[ ]	/* 4 values pushed */\01242 3 49 24 \012CALL[ ]	/* CallFunction */\012SVTCA[0]	/* SetFreedomAndProjectionVectorToAxis */\012PUSHW[ ]	/* 1 value pushed */\01245 \012MDAP[1]	/* MoveDirectAbsPt */\012PUSHW[ ]	/* 1 value pushed */\0121 \012RCVT[ ]	/* ReadCVT */\012IF[ ]	/* If */\012PUSHW[ ]	/* 1 value pushed */\01217 \012MDAP[1]	/* MoveDirectAbsPt */\012ELSE[ ]	/* Else */\012PUSHW[ ]	/* 2 values pushed */\01217 10 \012MIAP[0]	/* MoveIndirectAbsPt */\012EIF[ ]	/* EndIf */\012PUSHW[ ]	/* 1 value pushed */\0121 \012RCVT[ ]	/* ReadCVT */\012IF[ ]	/* If */\012PUSHW[ ]	/* 1 value pushed */\0120 \012MDAP[1]	/* MoveDirectAbsPt */\012ELSE[ ]	/* Else */\012PUSHW[ ]	/* 2 values pushed */\0120 4 \012MIAP[0]	/* MoveIndirectAbsPt */\012EIF[ ]	/* EndIf */\012PUSHW[ ]	/* 4 values pushed */\01231 2 32 24 \012CALL[ ]	/* CallFunction */\012PUSHW[ ]	/* 1 value pushed */\01217 \012SRP0[ ]	/* SetRefPoint0 */\012PUSHW[ ]	/* 2 values pushed */\01224 2 \012MIRP[10100]	/* MoveIndirectRelPt */\012PUSHW[ ]	/* 1 value pushed */\0120 \012SRP0[ ]	/* SetRefPoint0 */\012PUSHW[ ]	/* 2 values pushed */\01239 2 \012MIRP[10100]	/* MoveIndirectRelPt */\012IUP[0]	/* InterpolateUntPts */\012IUP[1]	/* InterpolateUntPts */";
};
width = 467;
}
);
note = uni03BE;
unicode = 03BE;
},
{
glyphname = uni03BF;
lastChange = "2020-08-12 05:57:25 +0000";
layers = (
{
layerId = "A36D14D1-FF07-4574-A62D-30DF65569781";
paths = (
{
closed = 1;
nodes = (
"40 201 OFFCURVE",
"72 103 OFFCURVE",
"136 30 OFFCURVE",
"229 -12 OFFCURVE",
"291 -12 QCURVE SMOOTH",
"352 -12 OFFCURVE",
"446 30 OFFCURVE",
"510 103 OFFCURVE",
"542 201 OFFCURVE",
"542 258 QCURVE SMOOTH",
"542 315 OFFCURVE",
"510 414 OFFCURVE",
"446 487 OFFCURVE",
"352 529 OFFCURVE",
"291 529 QCURVE SMOOTH",
"229 529 OFFCURVE",
"136 487 OFFCURVE",
"72 414 OFFCURVE",
"40 315 OFFCURVE",
"40 258 QCURVE",
"40 258 LINE"
);
},
{
closed = 1;
nodes = (
"130 305 OFFCURVE",
"155 378 OFFCURVE",
"199 428 OFFCURVE",
"258 454 OFFCURVE",
"291 454 QCURVE SMOOTH",
"324 454 OFFCURVE",
"383 428 OFFCURVE",
"427 378 OFFCURVE",
"452 305 OFFCURVE",
"452 258 QCURVE SMOOTH",
"452 211 OFFCURVE",
"427 138 OFFCURVE",
"383 89 OFFCURVE",
"324 63 OFFCURVE",
"291 63 QCURVE SMOOTH",
"258 63 OFFCURVE",
"199 89 OFFCURVE",
"155 138 OFFCURVE",
"130 211 OFFCURVE",
"130 258 QCURVE",
"130 258 LINE"
);
}
);
userData = {
assembly = "PUSHW[ ]	/* 1 value pushed */\01220 \012CALL[ ]	/* CallFunction */\012PUSHW[ ]	/* 1 value pushed */\01240 \012MDAP[1]	/* MoveDirectAbsPt */\012PUSHW[ ]	/* 1 value pushed */\01230 \012MDAP[1]	/* MoveDirectAbsPt */\012PUSHW[ ]	/* 1 value pushed */\01240 \012SRP0[ ]	/* SetRefPoint0 */\012PUSHW[ ]	/* 1 value pushed */\0120 \012MDRP[10000]	/* MoveDirectRelPt */\012PUSHW[ ]	/* 1 value pushed */\0120 \012MDAP[1]	/* MoveDirectAbsPt */\012PUSHW[ ]	/* 1 value pushed */\01230 \012SRP0[ ]	/* SetRefPoint0 */\012PUSHW[ ]	/* 2 values pushed */\01210 3 \012MIRP[10100]	/* MoveIndirectRelPt */\012PUSHW[ ]	/* 1 value pushed */\0120 \012SRP0[ ]	/* SetRefPoint0 */\012PUSHW[ ]	/* 2 values pushed */\01220 3 \012MIRP[10100]	/* MoveIndirectRelPt */\012SVTCA[0]	/* SetFreedomAndProjectionVectorToAxis */\012PUSHW[ ]	/* 1 value pushed */\0121 \012RCVT[ ]	/* ReadCVT */\012IF[ ]	/* If */\012PUSHW[ ]	/* 1 value pushed */\0125 \012MDAP[1]	/* MoveDirectAbsPt */\012ELSE[ ]	/* Else */\012PUSHW[ ]	/* 2 values pushed */\0125 8 \012MIAP[0]	/* MoveIndirectAbsPt */\012EIF[ ]	/* EndIf */\012PUSHW[ ]	/* 1 value pushed */\0121 \012RCVT[ ]	/* ReadCVT */\012IF[ ]	/* If */\012PUSHW[ ]	/* 1 value pushed */\01215 \012MDAP[1]	/* MoveDirectAbsPt */\012ELSE[ ]	/* Else */\012PUSHW[ ]	/* 2 values pushed */\01215 4 \012MIAP[0]	/* MoveIndirectAbsPt */\012EIF[ ]	/* EndIf */\012PUSHW[ ]	/* 2 values pushed */\01225 2 \012MIRP[10100]	/* MoveIndirectRelPt */\012PUSHW[ ]	/* 1 value pushed */\0125 \012SRP0[ ]	/* SetRefPoint0 */\012PUSHW[ ]	/* 2 values pushed */\01235 2 \012MIRP[10100]	/* MoveIndirectRelPt */\012IUP[0]	/* InterpolateUntPts */\012IUP[1]	/* InterpolateUntPts */";
};
width = 582;
}
);
note = uni03BF;
unicode = 03BF;
},
{
glyphname = pi;
lastChange = "2020-08-12 05:57:25 +0000";
layers = (
{
layerId = "A36D14D1-FF07-4574-A62D-30DF65569781";
paths = (
{
closed = 1;
nodes = (
"540 -7 OFFCURVE",
"575 3 OFFCURVE",
"594 12 QCURVE",
"594 77 LINE",
"583 72 OFFCURVE",
"562 66 OFFCURVE",
"551 66 QCURVE SMOOTH",
"536 66 OFFCURVE",
"521 77 OFFCURVE",
"514 95 OFFCURVE",
"513 117 OFFCURVE",
"513 128 QCURVE SMOOTH",
"513 442 LINE",
"590 442 LINE",
"590 517 LINE",
"40 517 LINE",
"40 442 LINE",
"110 442 LINE",
"110 0 LINE",
"195 0 LINE",
"195 442 LINE",
"428 442 LINE",
"428 118 LINE SMOOTH",
"428 92 OFFCURVE",
"433 47 OFFCURVE",
"451 13 OFFCURVE",
"487 -7 OFFCURVE",
"519 -7 QCURVE",
"519 -7 LINE"
);
}
);
userData = {
assembly = "PUSHW[ ]	/* 1 value pushed */\01210 \012CALL[ ]	/* CallFunction */\012PUSHW[ ]	/* 3 values pushed */\0128 9 13 \012CALL[ ]	/* CallFunction */\012PUSHW[ ]	/* 3 values pushed */\01216 5 13 \012CALL[ ]	/* CallFunction */\012PUSHW[ ]	/* 1 value pushed */\0125 \012SRP0[ ]	/* SetRefPoint0 */\012PUSHW[ ]	/* 1 value pushed */\01214 \012MDRP[11100]	/* MoveDirectRelPt */\012PUSHW[ ]	/* 1 value pushed */\01224 \012MDRP[10000]	/* MoveDirectRelPt */\012PUSHW[ ]	/* 1 value pushed */\01224 \012MDAP[1]	/* MoveDirectAbsPt */\012PUSHW[ ]	/* 1 value pushed */\01216 \012SRP0[ ]	/* SetRefPoint0 */\012PUSHW[ ]	/* 1 value pushed */\01229 \012MDRP[11100]	/* MoveDirectRelPt */\012SVTCA[0]	/* SetFreedomAndProjectionVectorToAxis */\012PUSHW[ ]	/* 3 values pushed */\01221 0 13 \012CALL[ ]	/* CallFunction */\012PUSHW[ ]	/* 3 values pushed */\01213 14 13 \012CALL[ ]	/* CallFunction */\012PUSHW[ ]	/* 1 value pushed */\01214 \012SRP0[ ]	/* SetRefPoint0 */\012PUSHW[ ]	/* 1 value pushed */\0126 \012MDRP[10000]	/* MoveDirectRelPt */\012PUSHW[ ]	/* 1 value pushed */\0120 \012SRP0[ ]	/* SetRefPoint0 */\012PUSHW[ ]	/* 1 value pushed */\0128 \012MDRP[10000]	/* MoveDirectRelPt */\012PUSHW[ ]	/* 1 value pushed */\0128 \012MDAP[1]	/* MoveDirectAbsPt */\012PUSHW[ ]	/* 1 value pushed */\01214 \012SRP0[ ]	/* SetRefPoint0 */\012PUSHW[ ]	/* 1 value pushed */\01210 \012MDRP[10000]	/* MoveDirectRelPt */\012IUP[0]	/* InterpolateUntPts */\012IUP[1]	/* InterpolateUntPts */";
};
width = 634;
}
);
note = pi;
unicode = 03C0;
},
{
glyphname = uni03C1;
lastChange = "2020-08-12 05:57:25 +0000";
layers = (
{
layerId = "A36D14D1-FF07-4574-A62D-30DF65569781";
paths = (
{
closed = 1;
nodes = (
"60 -198 LINE",
"145 -198 LINE",
"145 69 LINE",
"147 69 LINE",
"161 46 OFFCURVE",
"202 15 OFFCURVE",
"246 -4 OFFCURVE",
"289 -12 OFFCURVE",
"305 -12 QCURVE SMOOTH",
"367 -12 OFFCURVE",
"454 36 OFFCURVE",
"509 113 OFFCURVE",
"534 209 OFFCURVE",
"534 257 QCURVE SMOOTH",
"534 309 OFFCURVE",
"506 408 OFFCURVE",
"447 483 OFFCURVE",
"357 529 OFFCURVE",
"295 529 QCURVE SMOOTH",
"239 529 OFFCURVE",
"152 490 OFFCURVE",
"92 419 OFFCURVE",
"60 318 OFFCURVE",
"60 257 QCURVE",
"60 257 LINE"
);
},
{
closed = 1;
nodes = (
"444 225 OFFCURVE",
"425 153 OFFCURVE",
"388 96 OFFCURVE",
"334 62 OFFCURVE",
"298 62 QCURVE SMOOTH",
"257 62 OFFCURVE",
"198 95 OFFCURVE",
"160 150 OFFCURVE",
"143 221 OFFCURVE",
"143 259 QCURVE SMOOTH",
"143 350 OFFCURVE",
"220 454 OFFCURVE",
"291 454 QCURVE SMOOTH",
"333 454 OFFCURVE",
"391 422 OFFCURVE",
"428 369 OFFCURVE",
"444 300 OFFCURVE",
"444 263 QCURVE",
"444 263 LINE"
);
}
);
userData = {
assembly = "PUSHW[ ]	/* 1 value pushed */\01220 \012CALL[ ]	/* CallFunction */\012PUSHW[ ]	/* 1 value pushed */\01242 \012MDAP[1]	/* MoveDirectAbsPt */\012PUSHW[ ]	/* 1 value pushed */\01224 \012MDAP[1]	/* MoveDirectAbsPt */\012PUSHW[ ]	/* 1 value pushed */\01242 \012SRP0[ ]	/* SetRefPoint0 */\012PUSHW[ ]	/* 1 value pushed */\0120 \012MDRP[10000]	/* MoveDirectRelPt */\012PUSHW[ ]	/* 1 value pushed */\0120 \012MDAP[1]	/* MoveDirectAbsPt */\012PUSHW[ ]	/* 1 value pushed */\01224 \012SRP0[ ]	/* SetRefPoint0 */\012PUSHW[ ]	/* 2 values pushed */\01210 3 \012MIRP[10100]	/* MoveIndirectRelPt */\012PUSHW[ ]	/* 1 value pushed */\0120 \012SRP0[ ]	/* SetRefPoint0 */\012PUSHW[ ]	/* 2 values pushed */\01221 3 \012MIRP[10100]	/* MoveIndirectRelPt */\012PUSHW[ ]	/* 1 value pushed */\01232 \012MDRP[10000]	/* MoveDirectRelPt */\012PUSHW[ ]	/* 1 value pushed */\01232 \012MDAP[1]	/* MoveDirectAbsPt */\012SVTCA[0]	/* SetFreedomAndProjectionVectorToAxis */\012PUSHW[ ]	/* 1 value pushed */\01220 \012MDAP[1]	/* MoveDirectAbsPt */\012PUSHW[ ]	/* 1 value pushed */\01237 \012MDAP[1]	/* MoveDirectAbsPt */\012PUSHW[ ]	/* 1 value pushed */\0121 \012RCVT[ ]	/* ReadCVT */\012IF[ ]	/* If */\012PUSHW[ ]	/* 1 value pushed */\0125 \012MDAP[1]	/* MoveDirectAbsPt */\012ELSE[ ]	/* Else */\012PUSHW[ ]	/* 2 values pushed */\0125 8 \012MIAP[0]	/* MoveIndirectAbsPt */\012EIF[ ]	/* EndIf */\012PUSHW[ ]	/* 1 value pushed */\0121 \012RCVT[ ]	/* ReadCVT */\012IF[ ]	/* If */\012PUSHW[ ]	/* 1 value pushed */\01222 \012MDAP[1]	/* MoveDirectAbsPt */\012ELSE[ ]	/* Else */\012PUSHW[ ]	/* 2 values pushed */\01222 6 \012MIAP[0]	/* MoveIndirectAbsPt */\012EIF[ ]	/* EndIf */\012PUSHW[ ]	/* 1 value pushed */\0121 \012RCVT[ ]	/* ReadCVT */\012IF[ ]	/* If */\012PUSHW[ ]	/* 1 value pushed */\01215 \012MDAP[1]	/* MoveDirectAbsPt */\012ELSE[ ]	/* Else */\012PUSHW[ ]	/* 2 values pushed */\01215 4 \012MIAP[0]	/* MoveIndirectAbsPt */\012EIF[ ]	/* EndIf */\012PUSHW[ ]	/* 1 value pushed */\0125 \012SRP0[ ]	/* SetRefPoint0 */\012PUSHW[ ]	/* 2 values pushed */\01229 2 \012MIRP[10100]	/* MoveIndirectRelPt */\012IUP[0]	/* InterpolateUntPts */\012IUP[1]	/* InterpolateUntPts */";
};
width = 574;
}
);
note = uni03C1;
unicode = 03C1;
},
{
glyphname = uni03C2;
lastChange = "2020-08-12 05:57:25 +0000";
layers = (
{
layerId = "A36D14D1-FF07-4574-A62D-30DF65569781";
paths = (
{
closed = 1;
nodes = (
"492 378 LINE",
"483 419 OFFCURVE",
"443 476 OFFCURVE",
"388 512 OFFCURVE",
"321 529 OFFCURVE",
"285 529 QCURVE SMOOTH",
"222 529 OFFCURVE",
"130 487 OFFCURVE",
"69 415 OFFCURVE",
"40 317 OFFCURVE",
"40 262 QCURVE SMOOTH",
"40 201 OFFCURVE",
"74 104 OFFCURVE",
"135 36 OFFCURVE",
"222 0 OFFCURVE",
"276 0 QCURVE SMOOTH",
"322 0 LINE SMOOTH",
"338 0 OFFCURVE",
"356 -12 OFFCURVE",
"365 -31 OFFCURVE",
"367 -55 OFFCURVE",
"367 -66 QCURVE SMOOTH",
"367 -82 OFFCURVE",
"362 -123 OFFCURVE",
"355 -154 QCURVE",
"437 -154 LINE",
"445 -125 OFFCURVE",
"449 -80 OFFCURVE",
"449 -51 QCURVE SMOOTH",
"449 9 OFFCURVE",
"392 74 OFFCURVE",
"325 74 QCURVE SMOOTH",
"292 74 LINE SMOOTH",
"219 74 OFFCURVE",
"130 166 OFFCURVE",
"130 262 QCURVE SMOOTH",
"130 298 OFFCURVE",
"146 367 OFFCURVE",
"182 421 OFFCURVE",
"241 454 OFFCURVE",
"285 454 QCURVE SMOOTH",
"330 454 OFFCURVE",
"388 418 OFFCURVE",
"403 378 QCURVE",
"403 378 LINE"
);
}
);
userData = {
assembly = "PUSHW[ ]	/* 1 value pushed */\01220 \012CALL[ ]	/* CallFunction */\012PUSHW[ ]	/* 4 values pushed */\0128 3 33 24 \012CALL[ ]	/* CallFunction */\012SVTCA[0]	/* SetFreedomAndProjectionVectorToAxis */\012PUSHW[ ]	/* 1 value pushed */\01218 \012MDAP[1]	/* MoveDirectAbsPt */\012PUSHW[ ]	/* 1 value pushed */\0121 \012RCVT[ ]	/* ReadCVT */\012IF[ ]	/* If */\012PUSHW[ ]	/* 1 value pushed */\01238 \012MDAP[1]	/* MoveDirectAbsPt */\012ELSE[ ]	/* Else */\012PUSHW[ ]	/* 2 values pushed */\01238 8 \012MIAP[0]	/* MoveIndirectAbsPt */\012EIF[ ]	/* EndIf */\012PUSHW[ ]	/* 1 value pushed */\0121 \012RCVT[ ]	/* ReadCVT */\012IF[ ]	/* If */\012PUSHW[ ]	/* 1 value pushed */\01227 \012MDAP[1]	/* MoveDirectAbsPt */\012ELSE[ ]	/* Else */\012PUSHW[ ]	/* 2 values pushed */\01227 4 \012MIAP[0]	/* MoveIndirectAbsPt */\012EIF[ ]	/* EndIf */\012PUSHW[ ]	/* 1 value pushed */\01238 \012SRP0[ ]	/* SetRefPoint0 */\012PUSHW[ ]	/* 1 value pushed */\0120 \012MDRP[11100]	/* MoveDirectRelPt */\012PUSHW[ ]	/* 1 value pushed */\01238 \012SRP0[ ]	/* SetRefPoint0 */\012PUSHW[ ]	/* 2 values pushed */\0123 2 \012MIRP[10100]	/* MoveIndirectRelPt */\012PUSHW[ ]	/* 1 value pushed */\01227 \012SRP0[ ]	/* SetRefPoint0 */\012PUSHW[ ]	/* 2 values pushed */\01211 2 \012MIRP[10100]	/* MoveIndirectRelPt */\012IUP[0]	/* InterpolateUntPts */\012IUP[1]	/* InterpolateUntPts */";
};
width = 532;
}
);
note = uni03C2;
unicode = 03C2;
},
{
glyphname = uni03C3;
lastChange = "2020-08-12 05:57:25 +0000";
layers = (
{
layerId = "A36D14D1-FF07-4574-A62D-30DF65569781";
paths = (
{
closed = 1;
nodes = (
"40 201 OFFCURVE",
"72 103 OFFCURVE",
"134 30 OFFCURVE",
"226 -12 OFFCURVE",
"285 -12 QCURVE SMOOTH",
"347 -12 OFFCURVE",
"438 37 OFFCURVE",
"498 115 OFFCURVE",
"527 211 OFFCURVE",
"527 258 QCURVE SMOOTH",
"527 311 OFFCURVE",
"486 413 OFFCURVE",
"447 442 QCURVE",
"567 442 LINE",
"567 517 LINE",
"308 517 LINE SMOOTH",
"246 517 OFFCURVE",
"147 479 OFFCURVE",
"77 410 OFFCURVE",
"40 315 OFFCURVE",
"40 258 QCURVE",
"40 258 LINE"
);
},
{
closed = 1;
nodes = (
"130 305 OFFCURVE",
"157 374 OFFCURVE",
"207 420 OFFCURVE",
"275 443 OFFCURVE",
"316 443 QCURVE SMOOTH",
"366 443 LINE",
"398 417 OFFCURVE",
"437 326 OFFCURVE",
"437 258 QCURVE SMOOTH",
"437 215 OFFCURVE",
"418 144 OFFCURVE",
"380 92 OFFCURVE",
"323 63 OFFCURVE",
"285 63 QCURVE SMOOTH",
"254 63 OFFCURVE",
"198 87 OFFCURVE",
"155 136 OFFCURVE",
"130 209 OFFCURVE",
"130 258 QCURVE",
"130 258 LINE"
);
}
);
userData = {
assembly = "PUSHW[ ]	/* 1 value pushed */\01220 \012CALL[ ]	/* CallFunction */\012PUSHW[ ]	/* 1 value pushed */\01240 \012MDAP[1]	/* MoveDirectAbsPt */\012PUSHW[ ]	/* 1 value pushed */\01231 \012MDAP[1]	/* MoveDirectAbsPt */\012PUSHW[ ]	/* 1 value pushed */\01240 \012SRP0[ ]	/* SetRefPoint0 */\012PUSHW[ ]	/* 1 value pushed */\0120 \012MDRP[10000]	/* MoveDirectRelPt */\012PUSHW[ ]	/* 1 value pushed */\0120 \012MDAP[1]	/* MoveDirectAbsPt */\012PUSHW[ ]	/* 1 value pushed */\01231 \012SRP0[ ]	/* SetRefPoint0 */\012PUSHW[ ]	/* 2 values pushed */\01211 3 \012MIRP[10100]	/* MoveIndirectRelPt */\012PUSHW[ ]	/* 1 value pushed */\0120 \012SRP0[ ]	/* SetRefPoint0 */\012PUSHW[ ]	/* 2 values pushed */\01221 3 \012MIRP[10100]	/* MoveIndirectRelPt */\012SVTCA[0]	/* SetFreedomAndProjectionVectorToAxis */\012PUSHW[ ]	/* 1 value pushed */\0121 \012RCVT[ ]	/* ReadCVT */\012IF[ ]	/* If */\012PUSHW[ ]	/* 1 value pushed */\0125 \012MDAP[1]	/* MoveDirectAbsPt */\012ELSE[ ]	/* Else */\012PUSHW[ ]	/* 2 values pushed */\0125 8 \012MIAP[0]	/* MoveIndirectAbsPt */\012EIF[ ]	/* EndIf */\012PUSHW[ ]	/* 1 value pushed */\0121 \012RCVT[ ]	/* ReadCVT */\012IF[ ]	/* If */\012PUSHW[ ]	/* 1 value pushed */\01216 \012MDAP[1]	/* MoveDirectAbsPt */\012ELSE[ ]	/* Else */\012PUSHW[ ]	/* 2 values pushed */\01216 4 \012MIAP[0]	/* MoveIndirectAbsPt */\012EIF[ ]	/* EndIf */\012PUSHW[ ]	/* 1 value pushed */\0125 \012SRP0[ ]	/* SetRefPoint0 */\012PUSHW[ ]	/* 2 values pushed */\0127 2 \012MIRP[10100]	/* MoveIndirectRelPt */\012PUSHW[ ]	/* 1 value pushed */\01216 \012SRP0[ ]	/* SetRefPoint0 */\012PUSHW[ ]	/* 2 values pushed */\01226 2 \012MIRP[10100]	/* MoveIndirectRelPt */\012PUSHW[ ]	/* 1 value pushed */\0127 \012SRP0[ ]	/* SetRefPoint0 */\012PUSHW[ ]	/* 1 value pushed */\01234 \012MDRP[10000]	/* MoveDirectRelPt */\012PUSHW[ ]	/* 1 value pushed */\01235 \012MDRP[10000]	/* MoveDirectRelPt */\012IUP[0]	/* InterpolateUntPts */\012IUP[1]	/* InterpolateUntPts */";
};
width = 607;
}
);
note = uni03C3;
unicode = 03C3;
},
{
glyphname = uni03C4;
lastChange = "2020-08-12 05:57:25 +0000";
layers = (
{
layerId = "A36D14D1-FF07-4574-A62D-30DF65569781";
paths = (
{
closed = 1;
nodes = (
"212 442 LINE",
"212 91 LINE SMOOTH",
"212 34 OFFCURVE",
"266 -12 OFFCURVE",
"314 -12 QCURVE SMOOTH",
"355 -12 OFFCURVE",
"386 1 QCURVE",
"386 67 LINE",
"368 62 OFFCURVE",
"347 62 QCURVE SMOOTH",
"325 62 OFFCURVE",
"297 81 OFFCURVE",
"297 115 QCURVE SMOOTH",
"297 442 LINE",
"486 442 LINE",
"486 517 LINE",
"40 517 LINE",
"40 442 LINE",
"40 442 LINE"
);
}
);
userData = {
assembly = "PUSHW[ ]	/* 1 value pushed */\01220 \012CALL[ ]	/* CallFunction */\012PUSHW[ ]	/* 4 values pushed */\0125 3 16 24 \012CALL[ ]	/* CallFunction */\012SVTCA[0]	/* SetFreedomAndProjectionVectorToAxis */\012PUSHW[ ]	/* 1 value pushed */\0128 \012MDAP[1]	/* MoveDirectAbsPt */\012PUSHW[ ]	/* 1 value pushed */\01210 \012MDAP[1]	/* MoveDirectAbsPt */\012PUSHW[ ]	/* 1 value pushed */\0121 \012RCVT[ ]	/* ReadCVT */\012IF[ ]	/* If */\012PUSHW[ ]	/* 1 value pushed */\0121 \012MDAP[1]	/* MoveDirectAbsPt */\012ELSE[ ]	/* Else */\012PUSHW[ ]	/* 2 values pushed */\0121 8 \012MIAP[0]	/* MoveIndirectAbsPt */\012EIF[ ]	/* EndIf */\012PUSHW[ ]	/* 1 value pushed */\0121 \012RCVT[ ]	/* ReadCVT */\012IF[ ]	/* If */\012PUSHW[ ]	/* 1 value pushed */\01213 \012MDAP[1]	/* MoveDirectAbsPt */\012ELSE[ ]	/* Else */\012PUSHW[ ]	/* 2 values pushed */\01213 4 \012MIAP[0]	/* MoveIndirectAbsPt */\012EIF[ ]	/* EndIf */\012PUSHW[ ]	/* 1 value pushed */\0121 \012SRP0[ ]	/* SetRefPoint0 */\012PUSHW[ ]	/* 2 values pushed */\0120 2 \012MIRP[10100]	/* MoveIndirectRelPt */\012PUSHW[ ]	/* 1 value pushed */\0123 \012MDRP[10000]	/* MoveDirectRelPt */\012PUSHW[ ]	/* 1 value pushed */\0124 \012MDRP[10000]	/* MoveDirectRelPt */\012IUP[0]	/* InterpolateUntPts */\012IUP[1]	/* InterpolateUntPts */";
};
width = 526;
}
);
note = uni03C4;
unicode = 03C4;
},
{
glyphname = uni03C5;
lastChange = "2020-08-12 05:57:25 +0000";
layers = (
{
layerId = "A36D14D1-FF07-4574-A62D-30DF65569781";
paths = (
{
closed = 1;
nodes = (
"60 517 LINE",
"60 170 LINE SMOOTH",
"60 74 OFFCURVE",
"160 -12 OFFCURVE",
"262 -12 QCURVE SMOOTH",
"320 -12 OFFCURVE",
"406 29 OFFCURVE",
"463 104 OFFCURVE",
"491 210 OFFCURVE",
"491 276 QCURVE SMOOTH",
"491 301 OFFCURVE",
"485 363 OFFCURVE",
"472 427 OFFCURVE",
"450 490 OFFCURVE",
"435 517 QCURVE",
"343 517 LINE",
"359 489 OFFCURVE",
"383 425 OFFCURVE",
"398 361 OFFCURVE",
"405 299 OFFCURVE",
"405 274 QCURVE SMOOTH",
"405 171 OFFCURVE",
"335 63 OFFCURVE",
"262 63 QCURVE SMOOTH",
"234 63 OFFCURVE",
"190 75 OFFCURVE",
"160 104 OFFCURVE",
"145 153 OFFCURVE",
"145 191 QCURVE SMOOTH",
"145 517 LINE",
"145 517 LINE"
);
}
);
userData = {
assembly = "PUSHW[ ]	/* 1 value pushed */\01220 \012CALL[ ]	/* CallFunction */\012PUSHW[ ]	/* 1 value pushed */\01230 \012MDAP[1]	/* MoveDirectAbsPt */\012PUSHW[ ]	/* 1 value pushed */\0129 \012MDAP[1]	/* MoveDirectAbsPt */\012PUSHW[ ]	/* 1 value pushed */\01230 \012SRP0[ ]	/* SetRefPoint0 */\012PUSHW[ ]	/* 1 value pushed */\01228 \012MDRP[10000]	/* MoveDirectRelPt */\012PUSHW[ ]	/* 1 value pushed */\01228 \012MDAP[1]	/* MoveDirectAbsPt */\012PUSHW[ ]	/* 2 values pushed */\0121 3 \012MIRP[10100]	/* MoveIndirectRelPt */\012PUSHW[ ]	/* 1 value pushed */\0129 \012SRP0[ ]	/* SetRefPoint0 */\012PUSHW[ ]	/* 2 values pushed */\01220 3 \012MIRP[10100]	/* MoveIndirectRelPt */\012SVTCA[0]	/* SetFreedomAndProjectionVectorToAxis */\012PUSHW[ ]	/* 1 value pushed */\0121 \012RCVT[ ]	/* ReadCVT */\012IF[ ]	/* If */\012PUSHW[ ]	/* 1 value pushed */\0120 \012MDAP[1]	/* MoveDirectAbsPt */\012ELSE[ ]	/* Else */\012PUSHW[ ]	/* 2 values pushed */\0120 8 \012MIAP[0]	/* MoveIndirectAbsPt */\012EIF[ ]	/* EndIf */\012PUSHW[ ]	/* 1 value pushed */\0121 \012RCVT[ ]	/* ReadCVT */\012IF[ ]	/* If */\012PUSHW[ ]	/* 1 value pushed */\01214 \012MDAP[1]	/* MoveDirectAbsPt */\012ELSE[ ]	/* Else */\012PUSHW[ ]	/* 2 values pushed */\01214 8 \012MIAP[0]	/* MoveIndirectAbsPt */\012EIF[ ]	/* EndIf */\012PUSHW[ ]	/* 1 value pushed */\0121 \012RCVT[ ]	/* ReadCVT */\012IF[ ]	/* If */\012PUSHW[ ]	/* 1 value pushed */\01225 \012MDAP[1]	/* MoveDirectAbsPt */\012ELSE[ ]	/* Else */\012PUSHW[ ]	/* 2 values pushed */\01225 4 \012MIAP[0]	/* MoveIndirectAbsPt */\012EIF[ ]	/* EndIf */\012PUSHW[ ]	/* 2 values pushed */\0126 2 \012MIRP[10100]	/* MoveIndirectRelPt */\012IUP[0]	/* InterpolateUntPts */\012IUP[1]	/* InterpolateUntPts */";
};
width = 531;
}
);
note = uni03C5;
unicode = 03C5;
},
{
glyphname = uni03C6;
lastChange = "2020-08-12 05:57:25 +0000";
layers = (
{
layerId = "A36D14D1-FF07-4574-A62D-30DF65569781";
paths = (
{
closed = 1;
nodes = (
"408 666 LINE",
"323 666 LINE",
"323 530 LINE",
"260 530 OFFCURVE",
"156 493 OFFCURVE",
"81 424 OFFCURVE",
"40 324 OFFCURVE",
"40 261 QCURVE SMOOTH",
"40 190 OFFCURVE",
"83 90 OFFCURVE",
"160 25 OFFCURVE",
"263 -7 OFFCURVE",
"323 -9 QCURVE",
"323 -198 LINE",
"410 -198 LINE",
"410 -9 LINE",
"469 -6 OFFCURVE",
"572 26 OFFCURVE",
"648 92 OFFCURVE",
"692 192 OFFCURVE",
"692 263 QCURVE SMOOTH",
"692 326 OFFCURVE",
"650 425 OFFCURVE",
"575 494 OFFCURVE",
"471 530 OFFCURVE",
"408 530 QCURVE",
"408 530 LINE"
);
},
{
closed = 1;
nodes = (
"408 457 LINE",
"453 458 OFFCURVE",
"525 431 OFFCURVE",
"575 379 OFFCURVE",
"602 306 OFFCURVE",
"602 263 QCURVE SMOOTH",
"602 213 OFFCURVE",
"573 139 OFFCURVE",
"521 89 OFFCURVE",
"450 66 OFFCURVE",
"408 67 QCURVE",
"408 67 LINE"
);
},
{
closed = 1;
nodes = (
"323 65 LINE",
"281 64 OFFCURVE",
"210 87 OFFCURVE",
"159 137 OFFCURVE",
"130 211 OFFCURVE",
"130 261 QCURVE SMOOTH",
"130 304 OFFCURVE",
"157 377 OFFCURVE",
"206 429 OFFCURVE",
"278 456 OFFCURVE",
"323 455 QCURVE",
"323 455 LINE"
);
}
);
userData = {
assembly = "PUSHW[ ]	/* 1 value pushed */\01220 \012CALL[ ]	/* CallFunction */\012PUSHW[ ]	/* 4 values pushed */\01242 3 18 24 \012CALL[ ]	/* CallFunction */\012PUSHW[ ]	/* 4 values pushed */\01226 3 47 24 \012CALL[ ]	/* CallFunction */\012PUSHW[ ]	/* 4 values pushed */\0125 3 31 24 \012CALL[ ]	/* CallFunction */\012PUSHW[ ]	/* 1 value pushed */\01226 \012SRP0[ ]	/* SetRefPoint0 */\012PUSHW[ ]	/* 1 value pushed */\0120 \012MDRP[10000]	/* MoveDirectRelPt */\012PUSHW[ ]	/* 1 value pushed */\01226 \012SRP0[ ]	/* SetRefPoint0 */\012PUSHW[ ]	/* 1 value pushed */\01210 \012MDRP[10000]	/* MoveDirectRelPt */\012PUSHW[ ]	/* 1 value pushed */\01210 \012MDAP[1]	/* MoveDirectAbsPt */\012PUSHW[ ]	/* 1 value pushed */\01247 \012SRP0[ ]	/* SetRefPoint0 */\012PUSHW[ ]	/* 1 value pushed */\01212 \012MDRP[10000]	/* MoveDirectRelPt */\012PUSHW[ ]	/* 1 value pushed */\01247 \012SRP0[ ]	/* SetRefPoint0 */\012PUSHW[ ]	/* 1 value pushed */\01223 \012MDRP[10000]	/* MoveDirectRelPt */\012SVTCA[0]	/* SetFreedomAndProjectionVectorToAxis */\012PUSHW[ ]	/* 1 value pushed */\01224 \012MDAP[1]	/* MoveDirectAbsPt */\012PUSHW[ ]	/* 1 value pushed */\0121 \012RCVT[ ]	/* ReadCVT */\012IF[ ]	/* If */\012PUSHW[ ]	/* 1 value pushed */\0120 \012MDAP[1]	/* MoveDirectAbsPt */\012ELSE[ ]	/* Else */\012PUSHW[ ]	/* 2 values pushed */\0120 8 \012MIAP[0]	/* MoveIndirectAbsPt */\012EIF[ ]	/* EndIf */\012PUSHW[ ]	/* 1 value pushed */\0121 \012RCVT[ ]	/* ReadCVT */\012IF[ ]	/* If */\012PUSHW[ ]	/* 1 value pushed */\01223 \012MDAP[1]	/* MoveDirectAbsPt */\012ELSE[ ]	/* Else */\012PUSHW[ ]	/* 2 values pushed */\01223 8 \012MIAP[0]	/* MoveIndirectAbsPt */\012EIF[ ]	/* EndIf */\012PUSHW[ ]	/* 1 value pushed */\0121 \012RCVT[ ]	/* ReadCVT */\012IF[ ]	/* If */\012PUSHW[ ]	/* 1 value pushed */\01211 \012MDAP[1]	/* MoveDirectAbsPt */\012ELSE[ ]	/* Else */\012PUSHW[ ]	/* 2 values pushed */\01211 6 \012MIAP[0]	/* MoveIndirectAbsPt */\012EIF[ ]	/* EndIf */\012PUSHW[ ]	/* 1 value pushed */\0121 \012RCVT[ ]	/* ReadCVT */\012IF[ ]	/* If */\012PUSHW[ ]	/* 1 value pushed */\01210 \012MDAP[1]	/* MoveDirectAbsPt */\012ELSE[ ]	/* Else */\012PUSHW[ ]	/* 2 values pushed */\01210 4 \012MIAP[0]	/* MoveIndirectAbsPt */\012EIF[ ]	/* EndIf */\012PUSHW[ ]	/* 1 value pushed */\0121 \012RCVT[ ]	/* ReadCVT */\012IF[ ]	/* If */\012PUSHW[ ]	/* 1 value pushed */\01213 \012MDAP[1]	/* MoveDirectAbsPt */\012ELSE[ ]	/* Else */\012PUSHW[ ]	/* 2 values pushed */\01213 4 \012MIAP[0]	/* MoveIndirectAbsPt */\012EIF[ ]	/* EndIf */\012PUSHW[ ]	/* 1 value pushed */\01210 \012SRP0[ ]	/* SetRefPoint0 */\012PUSHW[ ]	/* 2 values pushed */\01226 2 \012MIRP[10100]	/* MoveIndirectRelPt */\012PUSHW[ ]	/* 1 value pushed */\0120 \012SRP0[ ]	/* SetRefPoint0 */\012PUSHW[ ]	/* 2 values pushed */\01236 2 \012MIRP[10100]	/* MoveIndirectRelPt */\012PUSHW[ ]	/* 1 value pushed */\01237 \012MDRP[10000]	/* MoveDirectRelPt */\012PUSHW[ ]	/* 1 value pushed */\01226 \012SRP0[ ]	/* SetRefPoint0 */\012PUSHW[ ]	/* 1 value pushed */\01247 \012MDRP[10000]	/* MoveDirectRelPt */\012IUP[0]	/* InterpolateUntPts */\012IUP[1]	/* InterpolateUntPts */";
};
width = 732;
}
);
note = uni03C6;
unicode = 03C6;
},
{
glyphname = uni03C7;
lastChange = "2020-08-12 05:57:25 +0000";
layers = (
{
layerId = "A36D14D1-FF07-4574-A62D-30DF65569781";
paths = (
{
closed = 1;
nodes = (
"322 191 LINE",
"494 517 LINE",
"398 517 LINE",
"277 269 LINE",
"156 517 LINE",
"60 517 LINE",
"229 185 LINE",
"40 -198 LINE",
"139 -198 LINE",
"271 102 LINE",
"410 -198 LINE",
"509 -198 LINE",
"509 -198 LINE"
);
}
);
userData = {
assembly = "PUSHW[ ]	/* 1 value pushed */\01220 \012CALL[ ]	/* CallFunction */\012SVTCA[0]	/* SetFreedomAndProjectionVectorToAxis */\012PUSHW[ ]	/* 1 value pushed */\0121 \012RCVT[ ]	/* ReadCVT */\012IF[ ]	/* If */\012PUSHW[ ]	/* 1 value pushed */\0126 \012MDAP[1]	/* MoveDirectAbsPt */\012ELSE[ ]	/* Else */\012PUSHW[ ]	/* 2 values pushed */\0126 8 \012MIAP[0]	/* MoveIndirectAbsPt */\012EIF[ ]	/* EndIf */\012PUSHW[ ]	/* 1 value pushed */\0121 \012RCVT[ ]	/* ReadCVT */\012IF[ ]	/* If */\012PUSHW[ ]	/* 1 value pushed */\0129 \012MDAP[1]	/* MoveDirectAbsPt */\012ELSE[ ]	/* Else */\012PUSHW[ ]	/* 2 values pushed */\0129 8 \012MIAP[0]	/* MoveIndirectAbsPt */\012EIF[ ]	/* EndIf */\012PUSHW[ ]	/* 1 value pushed */\0121 \012RCVT[ ]	/* ReadCVT */\012IF[ ]	/* If */\012PUSHW[ ]	/* 1 value pushed */\0120 \012MDAP[1]	/* MoveDirectAbsPt */\012ELSE[ ]	/* Else */\012PUSHW[ ]	/* 2 values pushed */\0120 6 \012MIAP[0]	/* MoveIndirectAbsPt */\012EIF[ ]	/* EndIf */\012PUSHW[ ]	/* 1 value pushed */\0121 \012RCVT[ ]	/* ReadCVT */\012IF[ ]	/* If */\012PUSHW[ ]	/* 1 value pushed */\0123 \012MDAP[1]	/* MoveDirectAbsPt */\012ELSE[ ]	/* Else */\012PUSHW[ ]	/* 2 values pushed */\0123 6 \012MIAP[0]	/* MoveIndirectAbsPt */\012EIF[ ]	/* EndIf */\012IUP[0]	/* InterpolateUntPts */\012IUP[1]	/* InterpolateUntPts */";
};
width = 549;
}
);
note = uni03C7;
unicode = 03C7;
},
{
glyphname = uni03C8;
lastChange = "2020-08-10 01:56:02 +0000";
layers = (
{
layerId = "A36D14D1-FF07-4574-A62D-30DF65569781";
paths = (
{
closed = 1;
nodes = (
"373 63 LINE",
"373 665 LINE",
"288 665 LINE",
"288 63 LINE",
"247 67 OFFCURVE",
"192 96 OFFCURVE",
"159 144 OFFCURVE",
"145 210 OFFCURVE",
"145 249 QCURVE SMOOTH",
"145 517 LINE",
"60 517 LINE",
"60 242 LINE SMOOTH",
"60 191 OFFCURVE",
"84 102 OFFCURVE",
"138 34 OFFCURVE",
"225 -8 OFFCURVE",
"288 -12 QCURVE",
"288 -198 LINE",
"373 -198 LINE",
"373 -12 LINE",
"485 -6 OFFCURVE",
"618 138 OFFCURVE",
"618 276 QCURVE SMOOTH",
"618 301 OFFCURVE",
"612 363 OFFCURVE",
"599 427 OFFCURVE",
"577 490 OFFCURVE",
"562 517 QCURVE",
"473 517 LINE",
"489 489 OFFCURVE",
"513 425 OFFCURVE",
"528 361 OFFCURVE",
"535 299 OFFCURVE",
"535 274 QCURVE SMOOTH",
"535 220 OFFCURVE",
"512 142 OFFCURVE",
"470 91 OFFCURVE",
"410 66 OFFCURVE",
"373 63 QCURVE",
"373 63 LINE"
);
}
);
userData = {
assembly = "PUSHW[ ]	/* 1 value pushed */\01220 \012CALL[ ]	/* CallFunction */\012PUSHW[ ]	/* 4 values pushed */\01230 3 27 24 \012CALL[ ]	/* CallFunction */\012PUSHW[ ]	/* 4 values pushed */\01220 3 21 24 \012CALL[ ]	/* CallFunction */\012PUSHW[ ]	/* 4 values pushed */\01216 3 5 24 \012CALL[ ]	/* CallFunction */\012PUSHW[ ]	/* 1 value pushed */\01220 \012SRP0[ ]	/* SetRefPoint0 */\012PUSHW[ ]	/* 1 value pushed */\0120 \012MDRP[10000]	/* MoveDirectRelPt */\012PUSHW[ ]	/* 1 value pushed */\01221 \012SRP0[ ]	/* SetRefPoint0 */\012PUSHW[ ]	/* 1 value pushed */\01235 \012MDRP[10000]	/* MoveDirectRelPt */\012PUSHW[ ]	/* 1 value pushed */\01220 \012SRP0[ ]	/* SetRefPoint0 */\012PUSHW[ ]	/* 1 value pushed */\01237 \012MDRP[10000]	/* MoveDirectRelPt */\012SVTCA[0]	/* SetFreedomAndProjectionVectorToAxis */\012PUSHW[ ]	/* 1 value pushed */\01236 \012MDAP[1]	/* MoveDirectAbsPt */\012PUSHW[ ]	/* 1 value pushed */\0121 \012RCVT[ ]	/* ReadCVT */\012IF[ ]	/* If */\012PUSHW[ ]	/* 1 value pushed */\01210 \012MDAP[1]	/* MoveDirectAbsPt */\012ELSE[ ]	/* Else */\012PUSHW[ ]	/* 2 values pushed */\01210 8 \012MIAP[0]	/* MoveIndirectAbsPt */\012EIF[ ]	/* EndIf */\012PUSHW[ ]	/* 1 value pushed */\0121 \012RCVT[ ]	/* ReadCVT */\012IF[ ]	/* If */\012PUSHW[ ]	/* 1 value pushed */\01228 \012MDAP[1]	/* MoveDirectAbsPt */\012ELSE[ ]	/* Else */\012PUSHW[ ]	/* 2 values pushed */\01228 8 \012MIAP[0]	/* MoveIndirectAbsPt */\012EIF[ ]	/* EndIf */\012PUSHW[ ]	/* 1 value pushed */\0121 \012RCVT[ ]	/* ReadCVT */\012IF[ ]	/* If */\012PUSHW[ ]	/* 1 value pushed */\01220 \012MDAP[1]	/* MoveDirectAbsPt */\012ELSE[ ]	/* Else */\012PUSHW[ ]	/* 2 values pushed */\01220 6 \012MIAP[0]	/* MoveIndirectAbsPt */\012EIF[ ]	/* EndIf */\012PUSHW[ ]	/* 1 value pushed */\0121 \012RCVT[ ]	/* ReadCVT */\012IF[ ]	/* If */\012PUSHW[ ]	/* 1 value pushed */\01219 \012MDAP[1]	/* MoveDirectAbsPt */\012ELSE[ ]	/* Else */\012PUSHW[ ]	/* 2 values pushed */\01219 4 \012MIAP[0]	/* MoveIndirectAbsPt */\012EIF[ ]	/* EndIf */\012PUSHW[ ]	/* 1 value pushed */\0121 \012RCVT[ ]	/* ReadCVT */\012IF[ ]	/* If */\012PUSHW[ ]	/* 1 value pushed */\01222 \012MDAP[1]	/* MoveDirectAbsPt */\012ELSE[ ]	/* Else */\012PUSHW[ ]	/* 2 values pushed */\01222 4 \012MIAP[0]	/* MoveIndirectAbsPt */\012EIF[ ]	/* EndIf */\012PUSHW[ ]	/* 1 value pushed */\01219 \012SRP0[ ]	/* SetRefPoint0 */\012PUSHW[ ]	/* 2 values pushed */\0120 2 \012MIRP[10100]	/* MoveIndirectRelPt */\012PUSHW[ ]	/* 1 value pushed */\01235 \012MDRP[10000]	/* MoveDirectRelPt */\012IUP[0]	/* InterpolateUntPts */\012IUP[1]	/* InterpolateUntPts */";
};
width = 658;
}
);
note = uni03C8;
unicode = 03C8;
},
{
glyphname = uni03C9;
lastChange = "2020-08-12 05:57:25 +0000";
layers = (
{
layerId = "A36D14D1-FF07-4574-A62D-30DF65569781";
paths = (
{
closed = 1;
nodes = (
"321 179 LINE SMOOTH",
"321 116 OFFCURVE",
"274 63 OFFCURVE",
"235 63 QCURVE SMOOTH",
"205 63 OFFCURVE",
"165 93 OFFCURVE",
"141 143 OFFCURVE",
"130 208 OFFCURVE",
"130 243 QCURVE SMOOTH",
"130 274 OFFCURVE",
"139 341 OFFCURVE",
"160 411 OFFCURVE",
"195 482 OFFCURVE",
"222 517 QCURVE",
"125 517 LINE",
"75 448 OFFCURVE",
"40 305 OFFCURVE",
"40 236 QCURVE SMOOTH",
"40 187 OFFCURVE",
"62 97 OFFCURVE",
"108 29 OFFCURVE",
"178 -12 OFFCURVE",
"225 -12 QCURVE SMOOTH",
"273 -12 OFFCURVE",
"337 34 OFFCURVE",
"358 90 QCURVE SMOOTH",
"360 96 LINE",
"376 39 OFFCURVE",
"450 -12 OFFCURVE",
"495 -12 QCURVE SMOOTH",
"540 -12 OFFCURVE",
"611 28 OFFCURVE",
"661 97 OFFCURVE",
"687 187 OFFCURVE",
"687 237 QCURVE SMOOTH",
"687 318 OFFCURVE",
"650 455 OFFCURVE",
"603 517 QCURVE",
"505 517 LINE",
"554 452 OFFCURVE",
"597 318 OFFCURVE",
"597 244 QCURVE SMOOTH",
"597 207 OFFCURVE",
"586 141 OFFCURVE",
"560 92 OFFCURVE",
"520 63 OFFCURVE",
"490 63 QCURVE SMOOTH",
"451 63 OFFCURVE",
"403 116 OFFCURVE",
"403 179 QCURVE SMOOTH",
"403 403 LINE",
"321 403 LINE",
"321 403 LINE"
);
}
);
userData = {
assembly = "PUSHW[ ]	/* 1 value pushed */\01220 \012CALL[ ]	/* CallFunction */\012PUSHW[ ]	/* 4 values pushed */\01243 3 34 24 \012CALL[ ]	/* CallFunction */\012PUSHW[ ]	/* 4 values pushed */\0121 3 0 24 \012CALL[ ]	/* CallFunction */\012PUSHW[ ]	/* 4 values pushed */\01217 3 10 24 \012CALL[ ]	/* CallFunction */\012SVTCA[0]	/* SetFreedomAndProjectionVectorToAxis */\012PUSHW[ ]	/* 1 value pushed */\0121 \012RCVT[ ]	/* ReadCVT */\012IF[ ]	/* If */\012PUSHW[ ]	/* 1 value pushed */\01213 \012MDAP[1]	/* MoveDirectAbsPt */\012ELSE[ ]	/* Else */\012PUSHW[ ]	/* 2 values pushed */\01213 8 \012MIAP[0]	/* MoveIndirectAbsPt */\012EIF[ ]	/* EndIf */\012PUSHW[ ]	/* 1 value pushed */\0121 \012RCVT[ ]	/* ReadCVT */\012IF[ ]	/* If */\012PUSHW[ ]	/* 1 value pushed */\01237 \012MDAP[1]	/* MoveDirectAbsPt */\012ELSE[ ]	/* Else */\012PUSHW[ ]	/* 2 values pushed */\01237 8 \012MIAP[0]	/* MoveIndirectAbsPt */\012EIF[ ]	/* EndIf */\012PUSHW[ ]	/* 1 value pushed */\0121 \012RCVT[ ]	/* ReadCVT */\012IF[ ]	/* If */\012PUSHW[ ]	/* 1 value pushed */\01222 \012MDAP[1]	/* MoveDirectAbsPt */\012ELSE[ ]	/* Else */\012PUSHW[ ]	/* 2 values pushed */\01222 4 \012MIAP[0]	/* MoveIndirectAbsPt */\012EIF[ ]	/* EndIf */\012PUSHW[ ]	/* 1 value pushed */\0121 \012RCVT[ ]	/* ReadCVT */\012IF[ ]	/* If */\012PUSHW[ ]	/* 1 value pushed */\01229 \012MDAP[1]	/* MoveDirectAbsPt */\012ELSE[ ]	/* Else */\012PUSHW[ ]	/* 2 values pushed */\01229 4 \012MIAP[0]	/* MoveIndirectAbsPt */\012EIF[ ]	/* EndIf */\012PUSHW[ ]	/* 1 value pushed */\01222 \012SRP0[ ]	/* SetRefPoint0 */\012PUSHW[ ]	/* 2 values pushed */\0125 2 \012MIRP[10100]	/* MoveIndirectRelPt */\012PUSHW[ ]	/* 1 value pushed */\01248 \012MDRP[10000]	/* MoveDirectRelPt */\012IUP[0]	/* InterpolateUntPts */\012IUP[1]	/* InterpolateUntPts */";
};
width = 727;
}
);
note = uni03C9;
unicode = 03C9;
},
{
glyphname = uni03AF;
lastChange = "2020-08-12 05:57:25 +0000";
layers = (
{
layerId = "A36D14D1-FF07-4574-A62D-30DF65569781";
paths = (
{
closed = 1;
nodes = (
"60 517 LINE",
"60 90 LINE SMOOTH",
"60 37 OFFCURVE",
"104 -12 OFFCURVE",
"149 -12 QCURVE SMOOTH",
"169 -12 OFFCURVE",
"199 -6 OFFCURVE",
"215 1 QCURVE",
"215 67 LINE",
"205 65 OFFCURVE",
"188 62 OFFCURVE",
"180 62 QCURVE SMOOTH",
"145 62 OFFCURVE",
"145 112 QCURVE SMOOTH",
"145 517 LINE",
"145 517 LINE"
);
},
{
closed = 1;
nodes = (
"70 589 LINE",
"138 589 LINE",
"213 732 LINE",
"103 732 LINE",
"103 732 LINE"
);
}
);
userData = {
assembly = "PUSHW[ ]	/* 1 value pushed */\01220 \012CALL[ ]	/* CallFunction */\012PUSHW[ ]	/* 4 values pushed */\0121 3 13 24 \012CALL[ ]	/* CallFunction */\012SVTCA[0]	/* SetFreedomAndProjectionVectorToAxis */\012PUSHW[ ]	/* 1 value pushed */\0123 \012MDAP[1]	/* MoveDirectAbsPt */\012PUSHW[ ]	/* 1 value pushed */\0126 \012MDAP[1]	/* MoveDirectAbsPt */\012PUSHW[ ]	/* 1 value pushed */\01217 \012MDAP[1]	/* MoveDirectAbsPt */\012PUSHW[ ]	/* 1 value pushed */\0121 \012RCVT[ ]	/* ReadCVT */\012IF[ ]	/* If */\012PUSHW[ ]	/* 1 value pushed */\01215 \012MDAP[1]	/* MoveDirectAbsPt */\012ELSE[ ]	/* Else */\012PUSHW[ ]	/* 2 values pushed */\01215 10 \012MIAP[0]	/* MoveIndirectAbsPt */\012EIF[ ]	/* EndIf */\012PUSHW[ ]	/* 1 value pushed */\0121 \012RCVT[ ]	/* ReadCVT */\012IF[ ]	/* If */\012PUSHW[ ]	/* 1 value pushed */\0120 \012MDAP[1]	/* MoveDirectAbsPt */\012ELSE[ ]	/* Else */\012PUSHW[ ]	/* 2 values pushed */\0120 8 \012MIAP[0]	/* MoveIndirectAbsPt */\012EIF[ ]	/* EndIf */\012PUSHW[ ]	/* 1 value pushed */\0121 \012RCVT[ ]	/* ReadCVT */\012IF[ ]	/* If */\012PUSHW[ ]	/* 1 value pushed */\01210 \012MDAP[1]	/* MoveDirectAbsPt */\012ELSE[ ]	/* Else */\012PUSHW[ ]	/* 2 values pushed */\01210 4 \012MIAP[0]	/* MoveIndirectAbsPt */\012EIF[ ]	/* EndIf */\012IUP[0]	/* InterpolateUntPts */\012IUP[1]	/* InterpolateUntPts */";
};
width = 255;
}
);
note = uni03AF;
unicode = 03AF;
},
{
glyphname = uni03CA;
lastChange = "2020-08-12 05:57:25 +0000";
layers = (
{
layerId = "A36D14D1-FF07-4574-A62D-30DF65569781";
paths = (
{
closed = 1;
nodes = (
"136 517 LINE",
"136 90 LINE SMOOTH",
"136 37 OFFCURVE",
"180 -12 OFFCURVE",
"225 -12 QCURVE SMOOTH",
"245 -12 OFFCURVE",
"275 -6 OFFCURVE",
"291 1 QCURVE",
"291 67 LINE",
"281 65 OFFCURVE",
"264 62 OFFCURVE",
"256 62 QCURVE SMOOTH",
"221 62 OFFCURVE",
"221 112 QCURVE SMOOTH",
"221 517 LINE",
"221 517 LINE"
);
},
{
closed = 1;
nodes = (
"228 602 LINE",
"318 602 LINE",
"318 706 LINE",
"228 706 LINE",
"228 706 LINE"
);
},
{
closed = 1;
nodes = (
"40 602 LINE",
"130 602 LINE",
"130 706 LINE",
"40 706 LINE",
"40 706 LINE"
);
}
);
userData = {
assembly = "PUSHW[ ]	/* 1 value pushed */\01220 \012CALL[ ]	/* CallFunction */\012PUSHW[ ]	/* 4 values pushed */\01220 3 19 24 \012CALL[ ]	/* CallFunction */\012PUSHW[ ]	/* 1 value pushed */\01220 \012SRP0[ ]	/* SetRefPoint0 */\012PUSHW[ ]	/* 2 values pushed */\0121 3 \012MIRP[10100]	/* MoveIndirectRelPt */\012PUSHW[ ]	/* 1 value pushed */\01215 \012MDRP[10000]	/* MoveDirectRelPt */\012PUSHW[ ]	/* 1 value pushed */\01215 \012MDAP[1]	/* MoveDirectAbsPt */\012PUSHW[ ]	/* 1 value pushed */\0120 \012MDRP[10000]	/* MoveDirectRelPt */\012PUSHW[ ]	/* 1 value pushed */\0120 \012MDAP[1]	/* MoveDirectAbsPt */\012PUSHW[ ]	/* 1 value pushed */\01220 \012SRP0[ ]	/* SetRefPoint0 */\012PUSHW[ ]	/* 1 value pushed */\01213 \012MDRP[10000]	/* MoveDirectRelPt */\012PUSHW[ ]	/* 1 value pushed */\01213 \012MDAP[1]	/* MoveDirectAbsPt */\012PUSHW[ ]	/* 1 value pushed */\0121 \012SRP0[ ]	/* SetRefPoint0 */\012PUSHW[ ]	/* 2 values pushed */\01216 3 \012MIRP[10100]	/* MoveIndirectRelPt */\012SVTCA[0]	/* SetFreedomAndProjectionVectorToAxis */\012PUSHW[ ]	/* 1 value pushed */\0123 \012MDAP[1]	/* MoveDirectAbsPt */\012PUSHW[ ]	/* 1 value pushed */\0126 \012MDAP[1]	/* MoveDirectAbsPt */\012PUSHW[ ]	/* 1 value pushed */\0121 \012RCVT[ ]	/* ReadCVT */\012IF[ ]	/* If */\012PUSHW[ ]	/* 1 value pushed */\0120 \012MDAP[1]	/* MoveDirectAbsPt */\012ELSE[ ]	/* Else */\012PUSHW[ ]	/* 2 values pushed */\0120 8 \012MIAP[0]	/* MoveIndirectAbsPt */\012EIF[ ]	/* EndIf */\012PUSHW[ ]	/* 1 value pushed */\0121 \012RCVT[ ]	/* ReadCVT */\012IF[ ]	/* If */\012PUSHW[ ]	/* 1 value pushed */\01210 \012MDAP[1]	/* MoveDirectAbsPt */\012ELSE[ ]	/* Else */\012PUSHW[ ]	/* 2 values pushed */\01210 4 \012MIAP[0]	/* MoveIndirectAbsPt */\012EIF[ ]	/* EndIf */\012PUSHW[ ]	/* 4 values pushed */\01216 2 17 24 \012CALL[ ]	/* CallFunction */\012PUSHW[ ]	/* 1 value pushed */\01216 \012SRP0[ ]	/* SetRefPoint0 */\012PUSHW[ ]	/* 1 value pushed */\01219 \012MDRP[10000]	/* MoveDirectRelPt */\012PUSHW[ ]	/* 1 value pushed */\01217 \012SRP0[ ]	/* SetRefPoint0 */\012PUSHW[ ]	/* 1 value pushed */\01221 \012MDRP[10000]	/* MoveDirectRelPt */\012IUP[0]	/* InterpolateUntPts */\012IUP[1]	/* InterpolateUntPts */";
};
width = 358;
}
);
note = uni03CA;
unicode = 03CA;
},
{
glyphname = uni0390;
lastChange = "2020-08-12 05:57:25 +0000";
layers = (
{
layerId = "A36D14D1-FF07-4574-A62D-30DF65569781";
paths = (
{
closed = 1;
nodes = (
"157 517 LINE",
"157 90 LINE SMOOTH",
"157 37 OFFCURVE",
"201 -12 OFFCURVE",
"246 -12 QCURVE SMOOTH",
"266 -12 OFFCURVE",
"296 -6 OFFCURVE",
"312 1 QCURVE",
"312 67 LINE",
"302 65 OFFCURVE",
"285 62 OFFCURVE",
"277 62 QCURVE SMOOTH",
"242 62 OFFCURVE",
"242 112 QCURVE SMOOTH",
"242 517 LINE",
"242 517 LINE"
);
},
{
closed = 1;
nodes = (
"155 589 LINE",
"217 589 LINE",
"280 732 LINE",
"192 732 LINE",
"192 732 LINE"
);
},
{
closed = 1;
nodes = (
"382 706 LINE",
"298 706 LINE",
"298 602 LINE",
"382 602 LINE",
"382 602 LINE"
);
},
{
closed = 1;
nodes = (
"124 706 LINE",
"40 706 LINE",
"40 602 LINE",
"124 602 LINE",
"124 602 LINE"
);
}
);
userData = {
assembly = "PUSHW[ ]	/* 1 value pushed */\01220 \012CALL[ ]	/* CallFunction */\012PUSHW[ ]	/* 4 values pushed */\01223 3 24 24 \012CALL[ ]	/* CallFunction */\012PUSHW[ ]	/* 4 values pushed */\0121 3 13 24 \012CALL[ ]	/* CallFunction */\012PUSHW[ ]	/* 4 values pushed */\01219 3 20 24 \012CALL[ ]	/* CallFunction */\012SVTCA[0]	/* SetFreedomAndProjectionVectorToAxis */\012PUSHW[ ]	/* 1 value pushed */\0123 \012MDAP[1]	/* MoveDirectAbsPt */\012PUSHW[ ]	/* 1 value pushed */\0126 \012MDAP[1]	/* MoveDirectAbsPt */\012PUSHW[ ]	/* 1 value pushed */\01217 \012MDAP[1]	/* MoveDirectAbsPt */\012PUSHW[ ]	/* 1 value pushed */\0121 \012RCVT[ ]	/* ReadCVT */\012IF[ ]	/* If */\012PUSHW[ ]	/* 1 value pushed */\01215 \012MDAP[1]	/* MoveDirectAbsPt */\012ELSE[ ]	/* Else */\012PUSHW[ ]	/* 2 values pushed */\01215 10 \012MIAP[0]	/* MoveIndirectAbsPt */\012EIF[ ]	/* EndIf */\012PUSHW[ ]	/* 1 value pushed */\0121 \012RCVT[ ]	/* ReadCVT */\012IF[ ]	/* If */\012PUSHW[ ]	/* 1 value pushed */\0120 \012MDAP[1]	/* MoveDirectAbsPt */\012ELSE[ ]	/* Else */\012PUSHW[ ]	/* 2 values pushed */\0120 8 \012MIAP[0]	/* MoveIndirectAbsPt */\012EIF[ ]	/* EndIf */\012PUSHW[ ]	/* 1 value pushed */\0121 \012RCVT[ ]	/* ReadCVT */\012IF[ ]	/* If */\012PUSHW[ ]	/* 1 value pushed */\01210 \012MDAP[1]	/* MoveDirectAbsPt */\012ELSE[ ]	/* Else */\012PUSHW[ ]	/* 2 values pushed */\01210 4 \012MIAP[0]	/* MoveIndirectAbsPt */\012EIF[ ]	/* EndIf */\012PUSHW[ ]	/* 4 values pushed */\01222 2 19 24 \012CALL[ ]	/* CallFunction */\012PUSHW[ ]	/* 1 value pushed */\01219 \012SRP0[ ]	/* SetRefPoint0 */\012PUSHW[ ]	/* 1 value pushed */\01223 \012MDRP[10000]	/* MoveDirectRelPt */\012PUSHW[ ]	/* 1 value pushed */\01222 \012SRP0[ ]	/* SetRefPoint0 */\012PUSHW[ ]	/* 1 value pushed */\01225 \012MDRP[10000]	/* MoveDirectRelPt */\012IUP[0]	/* InterpolateUntPts */\012IUP[1]	/* InterpolateUntPts */";
};
width = 422;
}
);
note = uni0390;
unicode = 0390;
},
{
glyphname = uni03CD;
lastChange = "2020-08-12 05:57:25 +0000";
layers = (
{
layerId = "A36D14D1-FF07-4574-A62D-30DF65569781";
paths = (
{
closed = 1;
nodes = (
"60 517 LINE",
"60 170 LINE SMOOTH",
"60 74 OFFCURVE",
"160 -12 OFFCURVE",
"262 -12 QCURVE SMOOTH",
"320 -12 OFFCURVE",
"406 29 OFFCURVE",
"463 104 OFFCURVE",
"491 210 OFFCURVE",
"491 276 QCURVE SMOOTH",
"491 301 OFFCURVE",
"485 363 OFFCURVE",
"472 427 OFFCURVE",
"450 490 OFFCURVE",
"435 517 QCURVE",
"343 517 LINE",
"359 489 OFFCURVE",
"383 425 OFFCURVE",
"398 361 OFFCURVE",
"405 299 OFFCURVE",
"405 274 QCURVE SMOOTH",
"405 171 OFFCURVE",
"335 63 OFFCURVE",
"262 63 QCURVE SMOOTH",
"234 63 OFFCURVE",
"190 75 OFFCURVE",
"160 104 OFFCURVE",
"145 153 OFFCURVE",
"145 191 QCURVE SMOOTH",
"145 517 LINE",
"145 517 LINE"
);
},
{
closed = 1;
nodes = (
"215 589 LINE",
"283 589 LINE",
"358 732 LINE",
"248 732 LINE",
"248 732 LINE"
);
}
);
userData = {
assembly = "PUSHW[ ]	/* 1 value pushed */\01220 \012CALL[ ]	/* CallFunction */\012PUSHW[ ]	/* 1 value pushed */\01234 \012MDAP[1]	/* MoveDirectAbsPt */\012PUSHW[ ]	/* 1 value pushed */\0129 \012MDAP[1]	/* MoveDirectAbsPt */\012PUSHW[ ]	/* 1 value pushed */\01234 \012SRP0[ ]	/* SetRefPoint0 */\012PUSHW[ ]	/* 1 value pushed */\01228 \012MDRP[10000]	/* MoveDirectRelPt */\012PUSHW[ ]	/* 1 value pushed */\01228 \012MDAP[1]	/* MoveDirectAbsPt */\012PUSHW[ ]	/* 2 values pushed */\0121 3 \012MIRP[10100]	/* MoveIndirectRelPt */\012PUSHW[ ]	/* 1 value pushed */\0129 \012SRP0[ ]	/* SetRefPoint0 */\012PUSHW[ ]	/* 2 values pushed */\01220 3 \012MIRP[10100]	/* MoveIndirectRelPt */\012SVTCA[0]	/* SetFreedomAndProjectionVectorToAxis */\012PUSHW[ ]	/* 1 value pushed */\01232 \012MDAP[1]	/* MoveDirectAbsPt */\012PUSHW[ ]	/* 1 value pushed */\0121 \012RCVT[ ]	/* ReadCVT */\012IF[ ]	/* If */\012PUSHW[ ]	/* 1 value pushed */\01230 \012MDAP[1]	/* MoveDirectAbsPt */\012ELSE[ ]	/* Else */\012PUSHW[ ]	/* 2 values pushed */\01230 10 \012MIAP[0]	/* MoveIndirectAbsPt */\012EIF[ ]	/* EndIf */\012PUSHW[ ]	/* 1 value pushed */\0121 \012RCVT[ ]	/* ReadCVT */\012IF[ ]	/* If */\012PUSHW[ ]	/* 1 value pushed */\0120 \012MDAP[1]	/* MoveDirectAbsPt */\012ELSE[ ]	/* Else */\012PUSHW[ ]	/* 2 values pushed */\0120 8 \012MIAP[0]	/* MoveIndirectAbsPt */\012EIF[ ]	/* EndIf */\012PUSHW[ ]	/* 1 value pushed */\0121 \012RCVT[ ]	/* ReadCVT */\012IF[ ]	/* If */\012PUSHW[ ]	/* 1 value pushed */\01214 \012MDAP[1]	/* MoveDirectAbsPt */\012ELSE[ ]	/* Else */\012PUSHW[ ]	/* 2 values pushed */\01214 8 \012MIAP[0]	/* MoveIndirectAbsPt */\012EIF[ ]	/* EndIf */\012PUSHW[ ]	/* 1 value pushed */\0121 \012RCVT[ ]	/* ReadCVT */\012IF[ ]	/* If */\012PUSHW[ ]	/* 1 value pushed */\01225 \012MDAP[1]	/* MoveDirectAbsPt */\012ELSE[ ]	/* Else */\012PUSHW[ ]	/* 2 values pushed */\01225 4 \012MIAP[0]	/* MoveIndirectAbsPt */\012EIF[ ]	/* EndIf */\012PUSHW[ ]	/* 2 values pushed */\0126 2 \012MIRP[10100]	/* MoveIndirectRelPt */\012IUP[0]	/* InterpolateUntPts */\012IUP[1]	/* InterpolateUntPts */";
};
width = 531;
}
);
note = uni03CD;
unicode = 03CD;
},
{
glyphname = uni03CB;
lastChange = "2020-08-12 05:57:25 +0000";
layers = (
{
layerId = "A36D14D1-FF07-4574-A62D-30DF65569781";
paths = (
{
closed = 1;
nodes = (
"60 517 LINE",
"60 170 LINE SMOOTH",
"60 74 OFFCURVE",
"160 -12 OFFCURVE",
"262 -12 QCURVE SMOOTH",
"320 -12 OFFCURVE",
"406 29 OFFCURVE",
"463 104 OFFCURVE",
"491 210 OFFCURVE",
"491 276 QCURVE SMOOTH",
"491 301 OFFCURVE",
"485 363 OFFCURVE",
"472 427 OFFCURVE",
"450 490 OFFCURVE",
"435 517 QCURVE",
"343 517 LINE",
"359 489 OFFCURVE",
"383 425 OFFCURVE",
"398 361 OFFCURVE",
"405 299 OFFCURVE",
"405 274 QCURVE SMOOTH",
"405 171 OFFCURVE",
"335 63 OFFCURVE",
"262 63 QCURVE SMOOTH",
"234 63 OFFCURVE",
"190 75 OFFCURVE",
"160 104 OFFCURVE",
"145 153 OFFCURVE",
"145 191 QCURVE SMOOTH",
"145 517 LINE",
"145 517 LINE"
);
},
{
closed = 1;
nodes = (
"309 602 LINE",
"399 602 LINE",
"399 706 LINE",
"309 706 LINE",
"309 706 LINE"
);
},
{
closed = 1;
nodes = (
"121 602 LINE",
"211 602 LINE",
"211 706 LINE",
"121 706 LINE",
"121 706 LINE"
);
}
);
userData = {
assembly = "PUSHW[ ]	/* 1 value pushed */\01220 \012CALL[ ]	/* CallFunction */\012PUSHW[ ]	/* 4 values pushed */\0121 3 28 24 \012CALL[ ]	/* CallFunction */\012PUSHW[ ]	/* 4 values pushed */\01235 3 34 24 \012CALL[ ]	/* CallFunction */\012PUSHW[ ]	/* 4 values pushed */\01231 3 30 24 \012CALL[ ]	/* CallFunction */\012PUSHW[ ]	/* 1 value pushed */\01231 \012SRP0[ ]	/* SetRefPoint0 */\012PUSHW[ ]	/* 1 value pushed */\0129 \012MDRP[10000]	/* MoveDirectRelPt */\012PUSHW[ ]	/* 1 value pushed */\0129 \012MDAP[1]	/* MoveDirectAbsPt */\012PUSHW[ ]	/* 1 value pushed */\01231 \012SRP0[ ]	/* SetRefPoint0 */\012PUSHW[ ]	/* 2 values pushed */\01220 3 \012MIRP[10100]	/* MoveIndirectRelPt */\012SVTCA[0]	/* SetFreedomAndProjectionVectorToAxis */\012PUSHW[ ]	/* 1 value pushed */\0121 \012RCVT[ ]	/* ReadCVT */\012IF[ ]	/* If */\012PUSHW[ ]	/* 1 value pushed */\0120 \012MDAP[1]	/* MoveDirectAbsPt */\012ELSE[ ]	/* Else */\012PUSHW[ ]	/* 2 values pushed */\0120 8 \012MIAP[0]	/* MoveIndirectAbsPt */\012EIF[ ]	/* EndIf */\012PUSHW[ ]	/* 1 value pushed */\0121 \012RCVT[ ]	/* ReadCVT */\012IF[ ]	/* If */\012PUSHW[ ]	/* 1 value pushed */\01214 \012MDAP[1]	/* MoveDirectAbsPt */\012ELSE[ ]	/* Else */\012PUSHW[ ]	/* 2 values pushed */\01214 8 \012MIAP[0]	/* MoveIndirectAbsPt */\012EIF[ ]	/* EndIf */\012PUSHW[ ]	/* 1 value pushed */\0121 \012RCVT[ ]	/* ReadCVT */\012IF[ ]	/* If */\012PUSHW[ ]	/* 1 value pushed */\01225 \012MDAP[1]	/* MoveDirectAbsPt */\012ELSE[ ]	/* Else */\012PUSHW[ ]	/* 2 values pushed */\01225 4 \012MIAP[0]	/* MoveIndirectAbsPt */\012EIF[ ]	/* EndIf */\012PUSHW[ ]	/* 4 values pushed */\01231 2 32 24 \012CALL[ ]	/* CallFunction */\012PUSHW[ ]	/* 1 value pushed */\01225 \012SRP0[ ]	/* SetRefPoint0 */\012PUSHW[ ]	/* 2 values pushed */\0126 2 \012MIRP[10100]	/* MoveIndirectRelPt */\012PUSHW[ ]	/* 1 value pushed */\01231 \012SRP0[ ]	/* SetRefPoint0 */\012PUSHW[ ]	/* 1 value pushed */\01234 \012MDRP[10000]	/* MoveDirectRelPt */\012PUSHW[ ]	/* 1 value pushed */\01232 \012SRP0[ ]	/* SetRefPoint0 */\012PUSHW[ ]	/* 1 value pushed */\01236 \012MDRP[10000]	/* MoveDirectRelPt */\012IUP[0]	/* InterpolateUntPts */\012IUP[1]	/* InterpolateUntPts */";
};
width = 531;
}
);
note = uni03CB;
unicode = 03CB;
},
{
glyphname = uni03B0;
lastChange = "2020-08-12 05:57:25 +0000";
layers = (
{
layerId = "A36D14D1-FF07-4574-A62D-30DF65569781";
paths = (
{
closed = 1;
nodes = (
"60 517 LINE",
"60 170 LINE SMOOTH",
"60 74 OFFCURVE",
"160 -12 OFFCURVE",
"262 -12 QCURVE SMOOTH",
"320 -12 OFFCURVE",
"406 29 OFFCURVE",
"463 104 OFFCURVE",
"491 210 OFFCURVE",
"491 276 QCURVE SMOOTH",
"491 301 OFFCURVE",
"485 363 OFFCURVE",
"472 427 OFFCURVE",
"450 490 OFFCURVE",
"435 517 QCURVE",
"343 517 LINE",
"359 489 OFFCURVE",
"383 425 OFFCURVE",
"398 361 OFFCURVE",
"405 299 OFFCURVE",
"405 274 QCURVE SMOOTH",
"405 171 OFFCURVE",
"335 63 OFFCURVE",
"262 63 QCURVE SMOOTH",
"234 63 OFFCURVE",
"190 75 OFFCURVE",
"160 104 OFFCURVE",
"145 153 OFFCURVE",
"145 191 QCURVE SMOOTH",
"145 517 LINE",
"145 517 LINE"
);
},
{
closed = 1;
nodes = (
"208 589 LINE",
"270 589 LINE",
"333 732 LINE",
"245 732 LINE",
"245 732 LINE"
);
},
{
closed = 1;
nodes = (
"435 706 LINE",
"351 706 LINE",
"351 602 LINE",
"435 602 LINE",
"435 602 LINE"
);
},
{
closed = 1;
nodes = (
"177 706 LINE",
"93 706 LINE",
"93 602 LINE",
"177 602 LINE",
"177 602 LINE"
);
}
);
userData = {
assembly = "PUSHW[ ]	/* 1 value pushed */\01220 \012CALL[ ]	/* CallFunction */\012PUSHW[ ]	/* 4 values pushed */\0121 3 28 24 \012CALL[ ]	/* CallFunction */\012PUSHW[ ]	/* 4 values pushed */\01238 3 39 24 \012CALL[ ]	/* CallFunction */\012PUSHW[ ]	/* 4 values pushed */\01234 3 35 24 \012CALL[ ]	/* CallFunction */\012PUSHW[ ]	/* 4 values pushed */\01220 3 9 24 \012CALL[ ]	/* CallFunction */\012SVTCA[0]	/* SetFreedomAndProjectionVectorToAxis */\012PUSHW[ ]	/* 1 value pushed */\01232 \012MDAP[1]	/* MoveDirectAbsPt */\012PUSHW[ ]	/* 1 value pushed */\0121 \012RCVT[ ]	/* ReadCVT */\012IF[ ]	/* If */\012PUSHW[ ]	/* 1 value pushed */\01230 \012MDAP[1]	/* MoveDirectAbsPt */\012ELSE[ ]	/* Else */\012PUSHW[ ]	/* 2 values pushed */\01230 10 \012MIAP[0]	/* MoveIndirectAbsPt */\012EIF[ ]	/* EndIf */\012PUSHW[ ]	/* 1 value pushed */\0121 \012RCVT[ ]	/* ReadCVT */\012IF[ ]	/* If */\012PUSHW[ ]	/* 1 value pushed */\0120 \012MDAP[1]	/* MoveDirectAbsPt */\012ELSE[ ]	/* Else */\012PUSHW[ ]	/* 2 values pushed */\0120 8 \012MIAP[0]	/* MoveIndirectAbsPt */\012EIF[ ]	/* EndIf */\012PUSHW[ ]	/* 1 value pushed */\0121 \012RCVT[ ]	/* ReadCVT */\012IF[ ]	/* If */\012PUSHW[ ]	/* 1 value pushed */\01214 \012MDAP[1]	/* MoveDirectAbsPt */\012ELSE[ ]	/* Else */\012PUSHW[ ]	/* 2 values pushed */\01214 8 \012MIAP[0]	/* MoveIndirectAbsPt */\012EIF[ ]	/* EndIf */\012PUSHW[ ]	/* 1 value pushed */\0121 \012RCVT[ ]	/* ReadCVT */\012IF[ ]	/* If */\012PUSHW[ ]	/* 1 value pushed */\01225 \012MDAP[1]	/* MoveDirectAbsPt */\012ELSE[ ]	/* Else */\012PUSHW[ ]	/* 2 values pushed */\01225 4 \012MIAP[0]	/* MoveIndirectAbsPt */\012EIF[ ]	/* EndIf */\012PUSHW[ ]	/* 4 values pushed */\01237 2 34 24 \012CALL[ ]	/* CallFunction */\012PUSHW[ ]	/* 1 value pushed */\01225 \012SRP0[ ]	/* SetRefPoint0 */\012PUSHW[ ]	/* 2 values pushed */\0126 2 \012MIRP[10100]	/* MoveIndirectRelPt */\012PUSHW[ ]	/* 1 value pushed */\01234 \012SRP0[ ]	/* SetRefPoint0 */\012PUSHW[ ]	/* 1 value pushed */\01238 \012MDRP[10000]	/* MoveDirectRelPt */\012PUSHW[ ]	/* 1 value pushed */\01237 \012SRP0[ ]	/* SetRefPoint0 */\012PUSHW[ ]	/* 1 value pushed */\01240 \012MDRP[10000]	/* MoveDirectRelPt */\012IUP[0]	/* InterpolateUntPts */\012IUP[1]	/* InterpolateUntPts */";
};
width = 531;
}
);
note = uni03B0;
unicode = 03B0;
},
{
glyphname = uni03CC;
lastChange = "2020-08-12 05:57:25 +0000";
layers = (
{
layerId = "A36D14D1-FF07-4574-A62D-30DF65569781";
paths = (
{
closed = 1;
nodes = (
"251 589 LINE",
"319 589 LINE",
"394 732 LINE",
"284 732 LINE",
"284 732 LINE"
);
},
{
closed = 1;
nodes = (
"40 201 OFFCURVE",
"72 103 OFFCURVE",
"136 30 OFFCURVE",
"229 -12 OFFCURVE",
"291 -12 QCURVE SMOOTH",
"352 -12 OFFCURVE",
"446 30 OFFCURVE",
"510 103 OFFCURVE",
"542 201 OFFCURVE",
"542 258 QCURVE SMOOTH",
"542 315 OFFCURVE",
"510 414 OFFCURVE",
"446 487 OFFCURVE",
"352 529 OFFCURVE",
"291 529 QCURVE SMOOTH",
"229 529 OFFCURVE",
"136 487 OFFCURVE",
"72 414 OFFCURVE",
"40 315 OFFCURVE",
"40 258 QCURVE",
"40 258 LINE"
);
},
{
closed = 1;
nodes = (
"130 305 OFFCURVE",
"155 378 OFFCURVE",
"199 428 OFFCURVE",
"258 454 OFFCURVE",
"291 454 QCURVE SMOOTH",
"324 454 OFFCURVE",
"383 428 OFFCURVE",
"427 378 OFFCURVE",
"452 305 OFFCURVE",
"452 258 QCURVE SMOOTH",
"452 211 OFFCURVE",
"427 138 OFFCURVE",
"383 89 OFFCURVE",
"324 63 OFFCURVE",
"291 63 QCURVE SMOOTH",
"258 63 OFFCURVE",
"199 89 OFFCURVE",
"155 138 OFFCURVE",
"130 211 OFFCURVE",
"130 258 QCURVE",
"130 258 LINE"
);
}
);
userData = {
assembly = "PUSHW[ ]	/* 1 value pushed */\01220 \012CALL[ ]	/* CallFunction */\012PUSHW[ ]	/* 1 value pushed */\01244 \012MDAP[1]	/* MoveDirectAbsPt */\012PUSHW[ ]	/* 1 value pushed */\01234 \012MDAP[1]	/* MoveDirectAbsPt */\012PUSHW[ ]	/* 1 value pushed */\01244 \012SRP0[ ]	/* SetRefPoint0 */\012PUSHW[ ]	/* 1 value pushed */\0124 \012MDRP[10000]	/* MoveDirectRelPt */\012PUSHW[ ]	/* 1 value pushed */\0124 \012MDAP[1]	/* MoveDirectAbsPt */\012PUSHW[ ]	/* 1 value pushed */\01234 \012SRP0[ ]	/* SetRefPoint0 */\012PUSHW[ ]	/* 2 values pushed */\01214 3 \012MIRP[10100]	/* MoveIndirectRelPt */\012PUSHW[ ]	/* 1 value pushed */\0124 \012SRP0[ ]	/* SetRefPoint0 */\012PUSHW[ ]	/* 2 values pushed */\01224 3 \012MIRP[10100]	/* MoveIndirectRelPt */\012SVTCA[0]	/* SetFreedomAndProjectionVectorToAxis */\012PUSHW[ ]	/* 1 value pushed */\0122 \012MDAP[1]	/* MoveDirectAbsPt */\012PUSHW[ ]	/* 1 value pushed */\0121 \012RCVT[ ]	/* ReadCVT */\012IF[ ]	/* If */\012PUSHW[ ]	/* 1 value pushed */\0120 \012MDAP[1]	/* MoveDirectAbsPt */\012ELSE[ ]	/* Else */\012PUSHW[ ]	/* 2 values pushed */\0120 10 \012MIAP[0]	/* MoveIndirectAbsPt */\012EIF[ ]	/* EndIf */\012PUSHW[ ]	/* 1 value pushed */\0121 \012RCVT[ ]	/* ReadCVT */\012IF[ ]	/* If */\012PUSHW[ ]	/* 1 value pushed */\0129 \012MDAP[1]	/* MoveDirectAbsPt */\012ELSE[ ]	/* Else */\012PUSHW[ ]	/* 2 values pushed */\0129 8 \012MIAP[0]	/* MoveIndirectAbsPt */\012EIF[ ]	/* EndIf */\012PUSHW[ ]	/* 1 value pushed */\0121 \012RCVT[ ]	/* ReadCVT */\012IF[ ]	/* If */\012PUSHW[ ]	/* 1 value pushed */\01219 \012MDAP[1]	/* MoveDirectAbsPt */\012ELSE[ ]	/* Else */\012PUSHW[ ]	/* 2 values pushed */\01219 4 \012MIAP[0]	/* MoveIndirectAbsPt */\012EIF[ ]	/* EndIf */\012PUSHW[ ]	/* 2 values pushed */\01229 2 \012MIRP[10100]	/* MoveIndirectRelPt */\012PUSHW[ ]	/* 1 value pushed */\0129 \012SRP0[ ]	/* SetRefPoint0 */\012PUSHW[ ]	/* 2 values pushed */\01239 2 \012MIRP[10100]	/* MoveIndirectRelPt */\012IUP[0]	/* InterpolateUntPts */\012IUP[1]	/* InterpolateUntPts */";
};
width = 582;
}
);
note = uni03CC;
unicode = 03CC;
},
{
glyphname = uni03CE;
lastChange = "2020-08-12 05:57:25 +0000";
layers = (
{
layerId = "A36D14D1-FF07-4574-A62D-30DF65569781";
paths = (
{
closed = 1;
nodes = (
"321 179 LINE SMOOTH",
"321 116 OFFCURVE",
"274 63 OFFCURVE",
"235 63 QCURVE SMOOTH",
"205 63 OFFCURVE",
"165 93 OFFCURVE",
"141 143 OFFCURVE",
"130 208 OFFCURVE",
"130 243 QCURVE SMOOTH",
"130 274 OFFCURVE",
"139 341 OFFCURVE",
"160 411 OFFCURVE",
"195 482 OFFCURVE",
"222 517 QCURVE",
"125 517 LINE",
"75 448 OFFCURVE",
"40 305 OFFCURVE",
"40 236 QCURVE SMOOTH",
"40 187 OFFCURVE",
"62 97 OFFCURVE",
"108 29 OFFCURVE",
"178 -12 OFFCURVE",
"225 -12 QCURVE SMOOTH",
"273 -12 OFFCURVE",
"337 34 OFFCURVE",
"358 90 QCURVE SMOOTH",
"360 96 LINE",
"376 39 OFFCURVE",
"450 -12 OFFCURVE",
"495 -12 QCURVE SMOOTH",
"540 -12 OFFCURVE",
"611 28 OFFCURVE",
"661 97 OFFCURVE",
"687 187 OFFCURVE",
"687 237 QCURVE SMOOTH",
"687 318 OFFCURVE",
"650 455 OFFCURVE",
"603 517 QCURVE",
"505 517 LINE",
"554 452 OFFCURVE",
"597 318 OFFCURVE",
"597 244 QCURVE SMOOTH",
"597 207 OFFCURVE",
"586 141 OFFCURVE",
"560 92 OFFCURVE",
"520 63 OFFCURVE",
"490 63 QCURVE SMOOTH",
"451 63 OFFCURVE",
"403 116 OFFCURVE",
"403 179 QCURVE SMOOTH",
"403 403 LINE",
"321 403 LINE",
"321 403 LINE"
);
},
{
closed = 1;
nodes = (
"330 589 LINE",
"398 589 LINE",
"473 732 LINE",
"363 732 LINE",
"363 732 LINE"
);
}
);
userData = {
assembly = "PUSHW[ ]	/* 1 value pushed */\01220 \012CALL[ ]	/* CallFunction */\012PUSHW[ ]	/* 4 values pushed */\01243 3 34 24 \012CALL[ ]	/* CallFunction */\012PUSHW[ ]	/* 4 values pushed */\0121 3 0 24 \012CALL[ ]	/* CallFunction */\012PUSHW[ ]	/* 4 values pushed */\01217 3 10 24 \012CALL[ ]	/* CallFunction */\012SVTCA[0]	/* SetFreedomAndProjectionVectorToAxis */\012PUSHW[ ]	/* 1 value pushed */\01254 \012MDAP[1]	/* MoveDirectAbsPt */\012PUSHW[ ]	/* 1 value pushed */\0121 \012RCVT[ ]	/* ReadCVT */\012IF[ ]	/* If */\012PUSHW[ ]	/* 1 value pushed */\01252 \012MDAP[1]	/* MoveDirectAbsPt */\012ELSE[ ]	/* Else */\012PUSHW[ ]	/* 2 values pushed */\01252 10 \012MIAP[0]	/* MoveIndirectAbsPt */\012EIF[ ]	/* EndIf */\012PUSHW[ ]	/* 1 value pushed */\0121 \012RCVT[ ]	/* ReadCVT */\012IF[ ]	/* If */\012PUSHW[ ]	/* 1 value pushed */\01213 \012MDAP[1]	/* MoveDirectAbsPt */\012ELSE[ ]	/* Else */\012PUSHW[ ]	/* 2 values pushed */\01213 8 \012MIAP[0]	/* MoveIndirectAbsPt */\012EIF[ ]	/* EndIf */\012PUSHW[ ]	/* 1 value pushed */\0121 \012RCVT[ ]	/* ReadCVT */\012IF[ ]	/* If */\012PUSHW[ ]	/* 1 value pushed */\01237 \012MDAP[1]	/* MoveDirectAbsPt */\012ELSE[ ]	/* Else */\012PUSHW[ ]	/* 2 values pushed */\01237 8 \012MIAP[0]	/* MoveIndirectAbsPt */\012EIF[ ]	/* EndIf */\012PUSHW[ ]	/* 1 value pushed */\0121 \012RCVT[ ]	/* ReadCVT */\012IF[ ]	/* If */\012PUSHW[ ]	/* 1 value pushed */\01222 \012MDAP[1]	/* MoveDirectAbsPt */\012ELSE[ ]	/* Else */\012PUSHW[ ]	/* 2 values pushed */\01222 4 \012MIAP[0]	/* MoveIndirectAbsPt */\012EIF[ ]	/* EndIf */\012PUSHW[ ]	/* 1 value pushed */\0121 \012RCVT[ ]	/* ReadCVT */\012IF[ ]	/* If */\012PUSHW[ ]	/* 1 value pushed */\01229 \012MDAP[1]	/* MoveDirectAbsPt */\012ELSE[ ]	/* Else */\012PUSHW[ ]	/* 2 values pushed */\01229 4 \012MIAP[0]	/* MoveIndirectAbsPt */\012EIF[ ]	/* EndIf */\012PUSHW[ ]	/* 1 value pushed */\01222 \012SRP0[ ]	/* SetRefPoint0 */\012PUSHW[ ]	/* 2 values pushed */\0125 2 \012MIRP[10100]	/* MoveIndirectRelPt */\012PUSHW[ ]	/* 1 value pushed */\01248 \012MDRP[10000]	/* MoveDirectRelPt */\012IUP[0]	/* InterpolateUntPts */\012IUP[1]	/* InterpolateUntPts */";
};
width = 727;
}
);
note = uni03CE;
unicode = 03CE;
},
